SplineFontDB: 3.0
FontName: Porkysol
FullName: Porky'sol
FamilyName: Porky's
Weight: Bold
Copyright: Porky's (c)1998, Font-a-licious Fonts. 
Version: Macromedia Fontographer 4.1.2 5/28/98
ItalicAngle: 0
UnderlinePosition: -75
UnderlineWidth: 50
Ascent: 800
Descent: 200
sfntRevision: 0x00010000
LayerCount: 2
Layer: 0 1 "Back"  1
Layer: 1 1 "Fore"  0
XUID: [1021 333 18768 3358]
FSType: 1
OS2Version: 4
OS2_WeightWidthSlopeOnly: 0
OS2_UseTypoMetrics: 1
CreationTime: 896395938
ModificationTime: 1357621101
PfmFamily: 81
TTFWeight: 700
TTFWidth: 5
LineGap: 0
VLineGap: 0
Panose: 0 0 7 0 0 0 0 0 0 0
OS2TypoAscent: 1002
OS2TypoAOffset: 0
OS2TypoDescent: -336
OS2TypoDOffset: 0
OS2TypoLinegap: 0
OS2WinAscent: 1002
OS2WinAOffset: 0
OS2WinDescent: 336
OS2WinDOffset: 0
HheadAscent: 1002
HheadAOffset: 0
HheadDescent: -336
HheadDOffset: 0
OS2SubXSize: 700
OS2SubYSize: 650
OS2SubXOff: 0
OS2SubYOff: 143
OS2SupXSize: 700
OS2SupYSize: 650
OS2SupXOff: 0
OS2SupYOff: 453
OS2StrikeYSize: 50
OS2StrikeYPos: 259
OS2Vendor: 'Alts'
OS2CodePages: 80000001.00000000
OS2UnicodeRanges: 00000000.00000000.00000000.00000000
Lookup: 258 0 0 "'kern' Horizontal Kerning in Latin lookup 0"  {"'kern' Horizontal Kerning in Latin lookup 0 subtable"  } ['kern' ('DFLT' <'dflt' > 'latn' <'dflt' > ) ]
MarkAttachClasses: 1
DEI: 91125
TtTable: prep
NPUSHB
 15
 6
 6
 5
 5
 4
 4
 3
 3
 2
 2
 1
 1
 0
 0
 1
SCANTYPE
PUSHW_1
 511
SCANCTRL
RCVT
ROUND[Grey]
WCVTP
RCVT
ROUND[Grey]
WCVTP
RCVT
ROUND[Grey]
WCVTP
RCVT
ROUND[Grey]
WCVTP
RCVT
ROUND[Grey]
WCVTP
RCVT
ROUND[Grey]
WCVTP
RCVT
ROUND[Grey]
WCVTP
PUSHB_2
 7
 7
RCVT
ROUND[Grey]
WCVTP
PUSHB_2
 8
 8
RCVT
ROUND[Grey]
WCVTP
EndTTInstrs
TtTable: fpgm
NPUSHB
 1
 0
FDEF
SROUND
RCVT
DUP
PUSHB_1
 3
CINDEX
RCVT
SWAP
SUB
ROUND[Grey]
RTG
SWAP
ROUND[Grey]
ADD
WCVTP
ENDF
EndTTInstrs
ShortTable: cvt  112
  -215
  -6
  288
  391
  538
  718
  770
  144
  138
  27161
  -16800
  -30045
  -14877
  3245
  11868
  -10844
  13722
  21364
  -17462
  -9562
  27479
  -531
  8756
  27972
  5778

StartChar: .notdef
Encoding: 65536 -1 0
Width: 500
Flags: W
LayerCount: 2
Fore
SplineSet
63 0 m 1,0,-1
 63 723 l 1,1,-1
 438 723 l 1,2,-1
 438 0 l 1,3,-1
 63 0 l 1,0,-1
125 63 m 1,4,-1
 375 63 l 1,5,-1
 375 661 l 1,6,-1
 125 661 l 1,7,-1
 125 63 l 1,4,-1
EndSplineSet
Validated: 1
EndChar

StartChar: exclam
Encoding: 33 33 4
Width: 319
GlyphClass: 2
Flags: W
LayerCount: 2
Fore
SplineSet
48 273 m 0,0,1
 48 286 48 286 51 299 c 2,2,-1
 151 671 l 2,3,4
 169 739 169 739 240 739 c 0,5,6
 281 739 281 739 310 714 c 0,7,8
 342 686 342 686 342 646 c 0,9,10
 342 633 342 633 338 621 c 2,11,-1
 239 249 l 2,12,13
 220 180 220 180 149 180 c 0,14,15
 108 180 108 180 78 206.5 c 128,-1,16
 48 233 48 233 48 273 c 0,0,1
-11 76 m 0,17,18
 -11 118 -11 118 19 148.5 c 128,-1,19
 49 179 49 179 92 179 c 0,20,21
 134 179 134 179 164.5 149 c 128,-1,22
 195 119 195 119 195 76 c 256,23,24
 195 33 195 33 165 3 c 128,-1,25
 135 -27 135 -27 92 -27 c 0,26,27
 50 -27 50 -27 19.5 3 c 128,-1,28
 -11 33 -11 33 -11 76 c 0,17,18
EndSplineSet
Validated: 1
EndChar

StartChar: quotedbl
Encoding: 34 34 5
Width: 390
GlyphClass: 2
Flags: W
LayerCount: 2
Fore
SplineSet
266 391 m 0,0,1
 202 408 202 408 202 470 c 0,2,3
 202 482 202 482 206 495 c 2,4,-1
 250 660 l 2,5,6
 267 723 267 723 328 723 c 0,7,8
 341 723 341 723 354 720 c 0,9,10
 417 703 417 703 417 641 c 0,11,12
 417 628 417 628 414 616 c 2,13,-1
 370 451 l 2,14,15
 353 388 353 388 291 388 c 0,16,17
 279 388 279 388 266 391 c 0,0,1
90 438 m 0,18,19
 27 455 27 455 27 517 c 0,20,21
 27 530 27 530 30 542 c 2,22,-1
 74 707 l 2,23,24
 91 770 91 770 153 770 c 0,25,26
 165 770 165 770 178 767 c 0,27,28
 242 750 242 750 242 688 c 0,29,30
 242 676 242 676 238 663 c 2,31,-1
 194 498 l 2,32,33
 177 435 177 435 116 435 c 0,34,35
 103 435 103 435 90 438 c 0,18,19
EndSplineSet
Validated: 1
EndChar

StartChar: numbersign
Encoding: 35 35 6
Width: 618
GlyphClass: 2
Flags: W
LayerCount: 2
Fore
SplineSet
546 418 m 2,0,-1
 469 409 l 1,1,-1
 467 344 l 1,2,-1
 524 351 l 2,3,4
 559 356 559 356 582 335 c 0,5,6
 602 316 602 316 606 288 c 1,7,8
 609 259 609 259 593 235 c 128,-1,9
 577 211 577 211 542 206 c 2,10,-1
 464 197 l 1,11,-1
 463 56 l 2,12,13
 462 -14 462 -14 397 -22 c 0,14,15
 370 -25 370 -25 346 -10.5 c 128,-1,16
 322 4 322 4 318 34 c 0,17,18
 317 45 317 45 319 179 c 1,19,-1
 274 173 l 1,20,-1
 272 33 l 2,21,22
 271 -37 271 -37 206 -45 c 0,23,24
 179 -49 179 -49 157 -35 c 0,25,26
 131 -19 131 -19 128 10 c 0,27,28
 126 22 126 22 128 156 c 1,29,-1
 72 149 l 2,30,31
 37 144 37 144 15.5 164 c 128,-1,32
 -6 184 -6 184 -10 212 c 1,33,34
 -13 241 -13 241 2 263 c 0,35,36
 19 289 19 289 54 294 c 2,37,-1
 131 303 l 1,38,-1
 133 368 l 1,39,-1
 76 361 l 2,40,41
 41 356 41 356 19.5 376 c 128,-1,42
 -2 396 -2 396 -6 424 c 1,43,44
 -9 453 -9 453 7 477 c 128,-1,45
 23 501 23 501 58 506 c 2,46,-1
 136 515 l 1,47,-1
 137 656 l 2,48,49
 138 726 138 726 203 734 c 0,50,51
 230 737 230 737 254 722.5 c 128,-1,52
 278 708 278 708 282 678 c 0,53,54
 283 667 283 667 281 533 c 1,55,-1
 326 539 l 1,56,-1
 328 679 l 2,57,58
 329 749 329 749 394 757 c 0,59,60
 421 761 421 761 443 747 c 0,61,62
 469 731 469 731 472 702 c 0,63,64
 474 690 474 690 472 556 c 1,65,-1
 528 563 l 2,66,67
 563 568 563 568 586 547 c 0,68,69
 606 528 606 528 610 500 c 1,70,71
 613 471 613 471 598 449 c 0,72,73
 581 423 581 423 546 418 c 2,0,-1
279 386 m 1,74,-1
 278 321 l 1,75,-1
 322 326 l 1,76,-1
 323 391 l 1,77,-1
 279 386 l 1,74,-1
EndSplineSet
Validated: 33
EndChar

StartChar: dollar
Encoding: 36 36 7
Width: 565
GlyphClass: 2
Flags: W
LayerCount: 2
Fore
SplineSet
286 551 m 1,0,-1
 299 469 l 1,1,2
 412 454 412 454 469 418 c 1,3,4
 544 369 544 369 561 265 c 0,5,6
 564 243 564 243 564 222 c 0,7,8
 564 130 564 130 505 63.5 c 128,-1,9
 446 -3 446 -3 354 -25 c 1,10,-1
 373 3 l 1,11,-1
 378 -29 l 2,12,13
 380 -44 380 -44 380 -55 c 0,14,15
 380 -101 380 -101 337 -108 c 0,16,17
 286 -116 286 -116 275 -45 c 2,18,-1
 274 -38 l 1,19,20
 255 -39 255 -39 236 -39 c 0,21,22
 160 -39 160 -39 108 -18 c 0,23,24
 36 12 36 12 36 77 c 0,25,26
 36 120 36 120 63.5 145.5 c 128,-1,27
 91 171 91 171 134 171 c 0,28,29
 154 171 154 171 189 165 c 0,30,31
 230 157 230 157 243 156 c 1,32,-1
 224 273 l 1,33,34
 116 287 116 287 66 315 c 0,35,36
 -7 357 -7 357 -22 453 c 0,37,38
 -25 474 -25 474 -25 495 c 0,39,40
 -25 577 -25 577 25 641 c 0,41,42
 73 702 73 702 152 730 c 1,43,-1
 151 739 l 2,44,45
 148 757 148 757 148 769 c 0,46,47
 148 812 148 812 191 819 c 0,48,49
 198 820 198 820 204 820 c 0,50,51
 243 820 243 820 253 756 c 1,52,-1
 255 748 l 1,53,54
 325 750 325 750 377 729 c 0,55,56
 448 700 448 700 448 638 c 0,57,58
 448 604 448 604 428 578 c 0,59,60
 407 549 407 549 371 543 c 0,61,62
 353 540 353 540 328 544 c 0,63,64
 307 548 307 548 286 551 c 1,0,-1
186 518 m 1,65,66
 184 511 184 511 185 504 c 0,67,68
 186 499 186 499 189 495 c 1,69,-1
 186 518 l 1,65,66
333 252 m 1,70,-1
 343 188 l 1,71,72
 356 205 356 205 352 229 c 0,73,74
 350 244 350 244 333 252 c 1,70,-1
EndSplineSet
Validated: 37
EndChar

StartChar: percent
Encoding: 37 37 8
Width: 673
GlyphClass: 2
Flags: W
LayerCount: 2
Fore
SplineSet
190 403 m 0,0,1
 123 414 123 414 81 467 c 1,2,3
 40 517 40 517 40 584 c 0,4,5
 40 661 40 661 92 717.5 c 128,-1,6
 144 774 144 774 220 774 c 0,7,8
 234 774 234 774 249 772 c 0,9,10
 316 761 316 761 357.5 709 c 128,-1,11
 399 657 399 657 399 590 c 0,12,13
 399 513 399 513 347 457 c 128,-1,14
 295 401 295 401 219 401 c 0,15,16
 205 401 205 401 190 403 c 0,0,1
639 592 m 2,17,-1
 208 22 l 1,18,19
 174 -13 174 -13 149 -13 c 0,20,21
 113 -13 113 -13 87.5 15.5 c 128,-1,22
 62 44 62 44 67 80 c 0,23,24
 71 104 71 104 88 126 c 2,25,-1
 512 690 l 2,26,27
 539 726 539 726 571 726 c 0,28,29
 609 726 609 726 636 697.5 c 128,-1,30
 663 669 663 669 657 631 c 0,31,32
 653 610 653 610 639 592 c 2,17,-1
473 -60 m 0,33,34
 406 -49 406 -49 364 4 c 1,35,36
 323 54 323 54 323 121 c 0,37,38
 323 198 323 198 375 254.5 c 128,-1,39
 427 311 427 311 503 311 c 0,40,41
 518 311 518 311 532 309 c 0,42,43
 599 298 599 298 640.5 246 c 128,-1,44
 682 194 682 194 682 127 c 0,45,46
 682 51 682 51 630 -5.5 c 128,-1,47
 578 -62 578 -62 502 -62 c 0,48,49
 488 -62 488 -62 473 -60 c 0,33,34
225 622 m 0,50,51
 198 626 198 626 193 591 c 1,52,53
 187 558 187 558 214 553 c 0,54,55
 241 549 241 549 246 583 c 0,56,57
 252 617 252 617 225 622 c 0,50,51
508 159 m 0,58,59
 481 163 481 163 476 128 c 1,60,61
 470 95 470 95 497 90 c 0,62,63
 524 86 524 86 529 120 c 0,64,65
 535 154 535 154 508 159 c 0,58,59
EndSplineSet
Validated: 37
EndChar

StartChar: ampersand
Encoding: 38 38 9
Width: 701
GlyphClass: 2
Flags: W
LayerCount: 2
Fore
SplineSet
638 -18 m 1,0,1
 601 -21 601 -21 566 6 c 1,2,3
 537 32 537 32 508 59 c 1,4,5
 410 -34 410 -34 297 -42 c 0,6,7
 183 -50 183 -50 104 6 c 0,8,9
 18 66 18 66 10 179 c 0,10,11
 1 313 1 313 131 411 c 1,12,13
 75 468 75 468 71 537 c 1,14,15
 64 630 64 630 137 689 c 0,16,17
 200 739 200 739 292 745 c 0,18,19
 374 751 374 751 444 713 c 0,20,21
 527 667 527 667 533 580 c 0,22,23
 540 472 540 472 433 391 c 1,24,-1
 503 324 l 1,25,26
 538 370 538 370 548 380 c 0,27,28
 577 407 577 407 613 410 c 0,29,30
 646 412 646 412 671 388.5 c 128,-1,31
 696 365 696 365 699 328 c 0,32,33
 702 283 702 283 636 201 c 1,34,35
 664 174 664 174 692 148 c 1,36,37
 724 112 724 112 726 80 c 0,38,39
 729 44 729 44 702.5 14 c 128,-1,40
 676 -16 676 -16 638 -18 c 1,0,1
303 582 m 0,41,42
 289 581 289 581 279 572 c 128,-1,43
 269 563 269 563 270 554 c 0,44,45
 271 532 271 532 306 501 c 1,46,47
 348 527 348 527 346 552 c 0,48,49
 344 585 344 585 303 582 c 0,41,42
254 299 m 1,50,51
 200 254 200 254 203 207 c 0,52,53
 208 134 208 134 287 140 c 0,54,55
 336 143 336 143 376 181 c 1,56,-1
 254 299 l 1,50,51
EndSplineSet
Validated: 33
EndChar

StartChar: quotesingle
Encoding: 39 39 10
Width: 212
GlyphClass: 2
Flags: W
LayerCount: 2
Fore
SplineSet
76 415 m 0,0,1
 12 432 12 432 12 494 c 0,2,3
 12 506 12 506 16 519 c 2,4,-1
 60 683 l 2,5,6
 77 747 77 747 139 747 c 0,7,8
 151 747 151 747 164 743 c 0,9,10
 228 726 228 726 228 664 c 0,11,12
 228 652 228 652 224 639 c 2,13,-1
 180 475 l 2,14,15
 163 411 163 411 101 411 c 0,16,17
 89 411 89 411 76 415 c 0,0,1
EndSplineSet
Validated: 1
EndChar

StartChar: parenleft
Encoding: 40 40 11
Width: 334
GlyphClass: 2
Flags: W
LayerCount: 2
Fore
SplineSet
51 -172 m 0,0,1
 -22 -153 -22 -153 -22 16 c 0,2,3
 -22 169 -22 169 18 317 c 0,4,5
 43 410 43 410 101 529 c 0,6,7
 174 680 174 680 236 718 c 1,8,9
 261 732 261 732 291 724 c 0,10,11
 319 717 319 717 338.5 694.5 c 128,-1,12
 358 672 358 672 358 642 c 0,13,14
 358 632 358 632 355 620.5 c 128,-1,15
 352 609 352 609 317 555 c 0,16,17
 228 420 228 420 188 271 c 0,18,19
 157 155 157 155 157 30 c 0,20,21
 157 -12 157 -12 160 -61 c 0,22,23
 162 -99 162 -99 160 -109 c 0,24,25
 142 -176 142 -176 76 -176 c 0,26,27
 64 -176 64 -176 51 -172 c 0,0,1
EndSplineSet
Validated: 33
EndChar

StartChar: parenright
Encoding: 41 41 12
Width: 238
GlyphClass: 2
Flags: W
LayerCount: 2
Fore
SplineSet
174 -153 m 0,0,1
 157 -176 157 -176 126 -180 c 0,2,3
 91 -184 91 -184 63 -165 c 0,4,5
 32 -145 32 -145 27 -108 c 0,6,7
 26 -96 26 -96 38 -32 c 0,8,9
 58 67 58 67 58 165 c 0,10,11
 58 222 58 222 51 279 c 0,12,13
 33 431 33 431 -47 598 c 0,14,15
 -64 632 -64 632 -65 642 c 0,16,17
 -70 681 -70 681 -48 709 c 128,-1,18
 -26 737 -26 737 13 741 c 1,19,20
 96 752 96 752 164 556 c 1,21,22
 211 424 211 424 226 300 c 0,23,24
 232 251 232 251 232 174 c 0,25,26
 232 -75 232 -75 174 -153 c 0,0,1
EndSplineSet
Validated: 33
EndChar

StartChar: asterisk
Encoding: 42 42 13
Width: 394
GlyphClass: 2
Flags: W
LayerCount: 2
Fore
SplineSet
248 674 m 1,0,1
 266 688 266 688 284 691 c 0,2,3
 317 696 317 696 344 673 c 0,4,5
 368 652 368 652 373 621 c 0,6,7
 379 583 379 583 342 554 c 1,8,9
 386 539 386 539 392 500 c 0,10,11
 397 469 397 469 381 441 c 0,12,13
 363 410 363 410 329 405 c 0,14,15
 311 402 311 402 290 410 c 1,16,17
 292 399 292 399 292 389 c 0,18,19
 292 357 292 357 268.5 338 c 128,-1,20
 245 319 245 319 212 319 c 0,21,22
 146 319 146 319 140 387 c 1,23,24
 122 372 122 372 103 369 c 0,25,26
 69 363 69 363 43 388 c 0,27,28
 21 409 21 409 16 440 c 0,29,30
 10 478 10 478 47 507 c 1,31,32
 -4 525 -4 525 -4 575 c 0,33,34
 -4 604 -4 604 11 625 c 1,35,36
 27 650 27 650 58 655 c 0,37,38
 76 658 76 658 99 649 c 1,39,40
 96 661 96 661 96 672 c 0,41,42
 96 704 96 704 121 724 c 0,43,44
 143 741 143 741 176 741 c 0,45,46
 242 741 242 741 248 674 c 1,0,1
EndSplineSet
Validated: 33
EndChar

StartChar: plus
Encoding: 43 43 14
Width: 576
GlyphClass: 2
Flags: W
LayerCount: 2
Fore
SplineSet
489 137 m 2,0,-1
 371 156 l 1,1,-1
 352 37 l 2,2,3
 347 4 347 4 325 -15.5 c 128,-1,4
 303 -35 303 -35 271 -35 c 0,5,6
 233 -35 233 -35 208 -12 c 128,-1,7
 183 11 183 11 183 48 c 0,8,9
 183 56 183 56 184 64 c 2,10,-1
 203 182 l 1,11,-1
 84 201 l 2,12,13
 51 206 51 206 31.5 228.5 c 128,-1,14
 12 251 12 251 12 282 c 0,15,16
 12 320 12 320 35 345 c 128,-1,17
 58 370 58 370 95 370 c 0,18,19
 103 370 103 370 111 369 c 2,20,-1
 229 350 l 1,21,-1
 248 469 l 2,22,23
 253 502 253 502 275 521.5 c 128,-1,24
 297 541 297 541 329 541 c 0,25,26
 367 541 367 541 392 518 c 128,-1,27
 417 495 417 495 417 458 c 0,28,29
 417 450 417 450 416 442 c 2,30,-1
 397 324 l 1,31,-1
 516 305 l 2,32,33
 549 300 549 300 568.5 277.5 c 128,-1,34
 588 255 588 255 588 224 c 0,35,36
 588 186 588 186 565 161 c 128,-1,37
 542 136 542 136 505 136 c 0,38,39
 497 136 497 136 489 137 c 2,0,-1
EndSplineSet
Validated: 1
EndChar

StartChar: comma
Encoding: 44 44 15
Width: 222
GlyphClass: 2
Flags: W
LayerCount: 2
Fore
SplineSet
219 46 m 0,0,1
 194 -12 194 -12 169 -71 c 1,2,3
 124 -158 124 -158 70 -162 c 0,4,5
 33 -164 33 -164 3 -139.5 c 128,-1,6
 -27 -115 -27 -115 -29 -77 c 0,7,8
 -31 -44 -31 -44 11 46 c 1,9,10
 33 88 33 88 55 131 c 1,11,12
 77 180 77 180 131 184 c 0,13,14
 168 186 168 186 198.5 161.5 c 128,-1,15
 229 137 229 137 231 99 c 0,16,17
 233 76 233 76 219 46 c 0,0,1
EndSplineSet
Validated: 33
EndChar

StartChar: hyphen
Encoding: 45 45 16
AltUni2: 002010.ffffffff.0
Width: 390
GlyphClass: 2
Flags: W
LayerCount: 2
Fore
SplineSet
275 177 m 2,0,-1
 69 233 l 2,1,2
 9 249 9 249 9 311 c 0,3,4
 9 348 9 348 32 377 c 128,-1,5
 55 406 55 406 91 406 c 0,6,7
 102 406 102 406 114 403 c 2,8,-1
 320 347 l 2,9,10
 380 331 380 331 380 268 c 0,11,12
 380 231 380 231 358 204 c 0,13,14
 334 174 334 174 298 174 c 0,15,16
 287 174 287 174 275 177 c 2,0,-1
EndSplineSet
Validated: 1
EndChar

StartChar: period
Encoding: 46 46 17
Width: 221
GlyphClass: 2
Flags: W
LayerCount: 2
Fore
SplineSet
31 66 m 0,0,1
 31 108 31 108 61 138.5 c 128,-1,2
 91 169 91 169 134 169 c 0,3,4
 176 169 176 169 206.5 139 c 128,-1,5
 237 109 237 109 237 66 c 0,6,7
 237 24 237 24 207 -6.5 c 128,-1,8
 177 -37 177 -37 134 -37 c 0,9,10
 92 -37 92 -37 61.5 -7 c 128,-1,11
 31 23 31 23 31 66 c 0,0,1
EndSplineSet
Validated: 1
EndChar

StartChar: slash
Encoding: 47 47 18
Width: 359
GlyphClass: 2
Flags: W
LayerCount: 2
Fore
SplineSet
410 660 m 2,0,-1
 221 16 l 2,1,2
 209 -24 209 -24 177 -51.5 c 128,-1,3
 145 -79 145 -79 106 -84 c 0,4,5
 63 -89 63 -89 29 -66 c 0,6,7
 -5 -42 -5 -42 -10 0 c 0,8,9
 -13 20 -13 20 -3 52 c 2,10,-1
 187 696 l 2,11,12
 199 736 199 736 231 763.5 c 128,-1,13
 263 791 263 791 302 796 c 0,14,15
 345 801 345 801 379 777 c 0,16,17
 412 754 412 754 417 712 c 0,18,19
 420 692 420 692 410 660 c 2,0,-1
EndSplineSet
Validated: 33
EndChar

StartChar: zero
Encoding: 48 48 19
Width: 601
GlyphClass: 2
Flags: W
LayerCount: 2
Fore
SplineSet
325.677 -115.412 m 0,0,1
 295.92 -119.99 295.92 -119.99 266.389 -119.99 c 0,2,3
 110.282 -119.989 110.282 -119.989 12.6963 15.9756 c 0,4,5
 -59.358 117.699 -59.358 117.699 -82.5186 267.178 c 0,6,7
 -90.9902 320.13 -90.9902 320.13 -90.9902 375.388 c 0,8,9
 -90.9918 525.721 -90.9918 525.721 -28.2861 636.038 c 0,10,11
 17.8081 716.706 17.8081 716.706 92.46 766.689 c 0,12,13
 163.535 814.278 163.535 814.278 248.358 827.418 c 0,14,15
 278.082 831.99 278.082 831.99 307.612 831.99 c 0,16,17
 463.714 831.99 463.714 831.99 561.31 696.018 c 0,18,19
 633.357 594.302 633.357 594.302 656.518 444.822 c 0,20,21
 664.989 391.881 664.989 391.881 664.99 336.612 c 0,22,23
 664.993 186.28 664.993 186.28 602.283 75.957 c 0,24,25
 556.185 -4.71111 556.185 -4.71111 481.54 -54.6885 c 0,26,27
 410.471 -102.275 410.471 -102.275 325.677 -115.412 c 0,0,1
EndSplineSet
Validated: 524321
EndChar

StartChar: one
Encoding: 49 49 20
Width: 355
GlyphClass: 2
Flags: W
LayerCount: 2
Fore
SplineSet
-1.99023 26.3643 m 0,0,1
 -1.99023 38.9103 -1.99023 38.9103 -0.990234 51.3418 c 0,2,3
 -0.990234 55.061 -0.990234 55.061 -0.373047 58.9258 c 2,4,-1
 66.3945 477.15 l 1,5,6
 15.5503 488.967 15.5503 488.967 -11.2199 523.824 c 128,-1,7
 -37.9902 558.68 -37.9902 558.68 -37.9902 613.389 c 0,8,9
 -37.9902 692.407 -37.9902 692.407 21.1484 757.613 c 1,10,11
 87.8731 828.99 87.8731 828.99 172.61 828.99 c 0,12,13
 186.091 828.99 186.091 828.99 199.527 826.406 c 2,14,-1
 337.787 804.522 l 2,15,16
 394.924 795.636 394.924 795.636 425.204 756.334 c 0,17,18
 454.99 717.673 454.99 717.673 454.99 664.61 c 0,19,20
 454.99 653.041 454.99 653.041 453.978 640.493 c 0,21,22
 453.869 637.204 453.869 637.204 453.384 634.139 c 2,23,-1
 364.327 71.7832 l 1,24,25
 350.082 -10.844 350.082 -10.844 286.098 -67.2109 c 0,26,27
 223.713 -121.99 223.713 -121.99 149.389 -121.99 c 0,28,29
 84.6531 -121.989 84.6531 -121.989 42.2939 -82.1221 c 0,30,31
 -1.99023 -41.632 -1.99023 -41.632 -1.99023 26.3643 c 0,0,1
EndSplineSet
Validated: 524289
EndChar

StartChar: two
Encoding: 50 50 21
Width: 543
GlyphClass: 2
Flags: W
LayerCount: 2
Fore
SplineSet
453.168 -95.9062 m 2,0,-1
 120.834 -119.858 l 2,1,2
 58.4716 -124.847 58.4716 -124.847 14.0625 -96.043 c 0,3,4
 -38.7046 -62.0912 -38.7046 -62.0912 -42.8975 9.52539 c 0,5,6
 -46.7634 73.1085 -46.7634 73.1085 1.80078 142.486 c 0,7,8
 5.0509 147.128 5.0509 147.128 9.20801 151.675 c 0,9,10
 66.4817 226.459 66.4817 226.459 122.741 301.148 c 0,11,12
 125.486 304.74 125.486 304.74 129.007 309.381 c 1,13,14
 110.766 304.318 110.766 304.318 91.8887 303.075 c 0,15,16
 21.6753 298.296 21.6753 298.296 -22.0127 340.165 c 0,17,18
 -63.1256 379.228 -63.1256 379.228 -66.9053 439.694 c 0,19,20
 -76.5194 583.949 -76.5194 583.949 32.1699 702.632 c 0,21,22
 143.005 822.182 143.005 822.182 288.492 831.881 c 0,23,24
 414.586 840.892 414.586 840.892 504.938 770.624 c 0,25,26
 596.871 698.868 596.871 698.868 605.886 571.579 c 0,27,28
 614.078 458.1 614.078 458.1 528.216 316.141 c 0,29,30
 515.377 294.956 515.377 294.956 485.186 252.322 c 1,31,-1
 494.432 252.88 l 2,32,33
 556.887 257.614 556.887 257.614 600.92 229.055 c 0,34,35
 653.705 195.088 653.705 195.088 657.901 123.412 c 1,36,37
 664.639 31.9285 664.639 31.9285 589.576 -36.8818 c 0,38,39
 530.645 -91.2817 530.645 -91.2817 453.168 -95.9062 c 2,0,-1
EndSplineSet
Validated: 524321
EndChar

StartChar: three
Encoding: 51 51 22
Width: 553
GlyphClass: 2
Flags: W
LayerCount: 2
Fore
SplineSet
109.571 416.605 m 1,0,1
 106.112 417.227 106.112 417.227 102.375 418.027 c 0,2,3
 2.00977 445.049 2.00977 445.049 2.00977 556.389 c 0,4,5
 2.00977 619.027 2.00977 619.027 40.8359 678.323 c 128,-1,6
 79.7198 737.707 79.7198 737.707 147.458 776.996 c 0,7,8
 238.996 829.99 238.996 829.99 340.611 829.99 c 0,9,10
 383.638 829.99 383.638 829.99 423.359 819.776 c 0,11,12
 528.216 791.078 528.216 791.078 586.92 713.551 c 0,13,14
 638.989 643.375 638.989 643.375 638.99 555.611 c 0,15,16
 638.99 476.611 638.99 476.611 594.587 401.761 c 0,17,18
 593.907 400.612 593.907 400.612 593.17 399.459 c 0,19,20
 579.5 378.062 579.5 378.062 562.677 357.799 c 1,21,22
 592.989 299.837 592.989 299.837 592.99 232.612 c 0,23,24
 592.99 195.701 592.99 195.701 583.234 156.673 c 0,25,26
 548.684 31.2661 548.684 31.2661 435.214 -47.3887 c 0,27,28
 335.086 -116.99 335.086 -116.99 216.388 -116.99 c 0,29,30
 167.388 -116.99 167.388 -116.99 119.677 -104.786 c 0,31,32
 11.226 -75.2072 11.226 -75.2072 -56.4316 8.81836 c 1,33,34
 -118.99 88.1324 -118.99 88.1324 -118.99 179.389 c 0,35,36
 -118.99 209.577 -118.99 209.577 -111.233 239.314 c 0,37,38
 -100.932 278.314 -100.932 278.314 -74.2257 312.967 c 128,-1,39
 -47.5191 347.62 -47.5191 347.62 -9.4502 370.462 c 0,40,41
 43.5737 401.99 43.5737 401.99 100.61 401.99 c 0,42,43
 101.54 401.99 101.54 401.99 104.006 401.966 c 1,44,45
 106.386 408.889 106.386 408.889 109.571 416.605 c 1,0,1
EndSplineSet
Validated: 524289
EndChar

StartChar: four
Encoding: 52 52 23
Width: 563
GlyphClass: 2
Flags: W
LayerCount: 2
Fore
SplineSet
571.812 323.189 m 1,0,1
 588.733 311.007 588.733 311.007 600.643 293.539 c 0,2,3
 624.989 257.659 624.989 257.659 624.99 210.614 c 0,4,5
 624.99 199.771 624.99 199.771 623.619 188.805 c 0,6,7
 622.314 178.357 622.314 178.357 619.723 166.696 c 0,8,9
 612.519 134.997 612.519 134.997 595.953 106.383 c 0,10,11
 573.119 67.2369 573.119 67.2369 535.364 40.124 c 0,12,13
 516.93 26.0467 516.93 26.0467 496.273 16.791 c 1,14,15
 490.537 -4.92617 490.537 -4.92617 478.187 -25.9209 c 0,16,17
 452.128 -67.6141 452.128 -67.6141 401.787 -99.6494 c 0,18,19
 378.221 -114.051 378.221 -114.051 357.659 -122.409 c 0,20,21
 326.636 -135.451 326.636 -135.451 297.562 -135.973 c 0,22,23
 282.514 -137.134 282.514 -137.134 267.023 -134.318 c 0,24,25
 253.337 -131.581 253.337 -131.581 246.719 -130.258 c 0,26,27
 245.684 -130.049 245.684 -130.049 244.748 -129.803 c 0,28,29
 193.687 -116.429 193.687 -116.429 165.909 -83.6025 c 0,30,31
 137.01 -48.1348 137.01 -48.1348 137.01 3.38867 c 0,32,33
 137.01 17.2529 137.01 17.2529 138.17 31.1777 c 0,34,35
 138.37 33.588 138.37 33.588 138.82 36.0586 c 0,36,37
 141.23 49.3167 141.23 49.3167 145.978 66.1045 c 1,38,-1
 -16.4707 109.255 l 2,39,40
 -42.1238 116.25 -42.1238 116.25 -56.2881 123.978 c 0,41,42
 -78.6965 136.425 -78.6965 136.425 -94.1543 155.472 c 0,43,44
 -108.792 173.073 -108.792 173.073 -115.94 196.466 c 0,45,46
 -122.99 219.542 -122.99 219.542 -122.99 242.386 c 0,47,48
 -122.99 253.228 -122.99 253.228 -121.564 264.639 c 0,49,50
 -119.974 275.769 -119.974 275.769 -116.891 286.563 c 0,51,52
 -116.525 287.846 -116.525 287.846 -116.083 289.173 c 0,53,54
 -107.652 314.465 -107.652 314.465 -92.8809 339.087 c 0,55,56
 -77.597 364.557 -77.597 364.557 -52.7109 390.826 c 2,57,-1
 269.081 724.61 l 2,58,59
 310.448 768.466 310.448 768.466 357.083 788.868 c 0,60,61
 400.789 807.99 400.789 807.99 442.612 807.99 c 0,62,63
 456.12 807.99 456.12 807.99 471.584 806.886 c 0,64,65
 472.963 806.787 472.963 806.787 474.298 806.597 c 0,66,67
 490.146 804.332 490.146 804.332 504.344 800.782 c 0,68,69
 534.164 792.433 534.164 792.433 558.287 777.137 c 128,-1,70
 582.374 761.86 582.374 761.86 599.978 740.736 c 0,71,72
 620.149 717.006 620.149 717.006 631.014 686.833 c 0,73,74
 642.063 654.904 642.063 654.904 640.989 617.885 c 0,75,76
 640.939 602.784 640.939 602.784 639.24 586.355 c 0,77,78
 637.292 567.526 637.292 567.526 630.991 545.776 c 2,79,-1
 571.812 323.189 l 1,0,1
EndSplineSet
Validated: 524321
EndChar

StartChar: five
Encoding: 53 53 24
Width: 558
GlyphClass: 2
Flags: W
LayerCount: 2
Fore
SplineSet
271.898 -120.775 m 0,0,1
 256.11 -121.99 256.11 -121.99 238.388 -121.99 c 0,2,3
 148.381 -121.99 148.381 -121.99 69.9131 -87.1152 c 0,4,5
 -36.2968 -39.7827 -36.2968 -39.7827 -46.6836 48.3281 c 0,6,7
 -56.1454 122.102 -56.1454 122.102 -2.51855 192.115 c 0,8,9
 11.4295 209.641 11.4295 209.641 27.0684 223.887 c 1,10,11
 26.1522 224.553 26.1522 224.553 25.2324 225.243 c 0,12,13
 -16.1845 257.6 -16.1845 257.6 -21.7764 305.136 c 0,14,15
 -22.9908 318.479 -22.9908 318.479 -22.9893 348.285 c 2,16,-1
 -23.9873 560.706 l 1,17,18
 -26.2158 655.086 -26.2158 655.086 15.9209 714.658 c 0,19,20
 44.1631 755.002 44.1631 755.002 85.3694 778.362 c 128,-1,21
 126.576 801.721 126.576 801.721 171.677 807.604 c 2,22,-1
 411.988 837.643 l 2,23,24
 477.706 845.375 477.706 845.375 524.102 813.6 c 0,25,26
 570.912 781.539 570.912 781.539 578.76 720.053 c 0,27,28
 579.99 706.523 579.99 706.523 579.99 694.611 c 0,29,30
 579.99 608.442 579.99 608.442 513.432 545.37 c 1,31,32
 529.974 533.868 529.974 533.868 544.805 520.028 c 0,33,34
 619.992 449.265 619.992 449.265 633.658 340.86 c 0,35,36
 637.99 309.05 637.99 309.05 637.99 279.611 c 0,37,38
 637.993 126.64 637.993 126.64 543.601 17.3477 c 0,39,40
 440.745 -100.561 440.745 -100.561 271.898 -120.775 c 0,0,1
EndSplineSet
Validated: 524321
EndChar

StartChar: six
Encoding: 54 54 25
Width: 579
GlyphClass: 2
Flags: W
LayerCount: 2
Fore
SplineSet
437.747 571.398 m 1,0,1
 524.498 553.851 524.498 553.851 587.485 483.304 c 0,2,3
 665.987 394.86 665.987 394.86 665.99 272.611 c 0,4,5
 665.993 139.663 665.993 139.663 575.151 29.1836 c 0,6,7
 476.125 -91.1478 476.125 -91.1478 325.677 -115.414 c 0,8,9
 294.783 -119.99 294.783 -119.99 264.389 -119.99 c 0,10,11
 139.045 -119.989 139.045 -119.989 51.627 -41.4238 c 0,12,13
 -31.7545 33.1793 -31.7545 33.1793 -50.5303 150.261 c 0,14,15
 -53.9902 173.316 -53.9902 173.316 -53.9902 199.389 c 0,16,17
 -53.9917 333.291 -53.9917 333.291 25.2344 513.151 c 0,18,19
 106.19 695.85 106.19 695.85 208.776 789.113 c 1,20,21
 254.302 828.136 254.302 828.136 310.161 837.069 c 0,22,23
 370.637 846.727 370.637 846.727 422.866 809.417 c 1,24,25
 474.455 773.795 474.455 773.795 483.512 716.858 c 0,26,27
 491.904 663.712 491.904 663.712 437.747 571.398 c 1,0,1
EndSplineSet
Validated: 524321
EndChar

StartChar: seven
Encoding: 55 55 26
Width: 551
GlyphClass: 2
Flags: W
LayerCount: 2
Fore
SplineSet
613.594 493.654 m 1,0,-1
 291.339 36.7119 l 2,1,2
 251.807 -20.6135 251.807 -20.6135 221.51 -46.583 c 0,3,4
 161.293 -95.9902 161.293 -95.9902 95.3848 -95.9902 c 0,5,6
 81.4603 -95.9902 81.4603 -95.9902 64.6553 -93.5889 c 0,7,8
 -3.57983 -83.6649 -3.57983 -83.6649 -40.3984 -30.8916 c 0,9,10
 -74.9021 17.6692 -74.9021 17.6692 -65.4209 78.6172 c 0,11,12
 -57.9939 127.644 -57.9939 127.644 -21.1035 175.358 c 2,13,-1
 200.429 471.564 l 1,14,-1
 78.3711 491.45 l 2,15,16
 18.2632 500.284 18.2632 500.284 -13.7861 535.475 c 0,17,18
 -46.9917 571.935 -46.9917 571.935 -46.9902 632.388 c 0,19,20
 -46.9902 712.802 -46.9902 712.802 13.6084 777.109 c 0,21,22
 78.5006 845.99 78.5006 845.99 164.611 845.99 c 0,23,24
 178.556 845.99 178.556 845.99 195.543 843.561 c 2,25,-1
 553.967 787.495 l 2,26,27
 622.348 776.098 622.348 776.098 654.935 718.449 c 0,28,29
 681.489 670.395 681.489 670.395 672.411 615.286 c 0,30,31
 664.876 564.024 664.876 564.024 613.594 493.654 c 1,0,-1
EndSplineSet
Validated: 524321
EndChar

StartChar: eight
Encoding: 56 56 27
Width: 580
GlyphClass: 2
Flags: W
LayerCount: 2
Fore
SplineSet
284.65 -119.871 m 0,0,1
 149.454 -129.927 149.454 -129.927 50.0684 -52.6289 c 0,2,3
 -49.9254 25.1445 -49.9254 25.1445 -58.8994 158.608 c 0,4,5
 -65.7414 262.233 -65.7414 262.233 -7.49023 351.156 c 1,6,7
 -45.283 404.619 -45.283 404.619 -49.9082 476.758 c 0,8,9
 -58.5407 617.318 -58.5407 617.318 50.1367 724.702 c 0,10,11
 148.977 822.274 148.977 822.274 289.354 831.872 c 0,12,13
 409.003 840.899 409.003 840.899 496.186 777.188 c 0,14,15
 591.58 708.73 591.58 708.73 599.881 586.674 c 0,16,17
 605.304 514.797 605.304 514.797 574.704 447.272 c 1,18,19
 644.713 381.261 644.713 381.261 651.888 273.577 c 0,20,21
 663.527 116.958 663.527 116.958 545.284 -1.28418 c 0,22,23
 437.351 -109.218 437.351 -109.218 284.65 -119.871 c 0,0,1
EndSplineSet
Validated: 524321
EndChar

StartChar: nine
Encoding: 57 57 28
Width: 584
GlyphClass: 2
Flags: W
LayerCount: 2
Fore
SplineSet
57.002 213.658 m 1,0,1
 31.062 236.184 31.062 236.184 11.3184 265.52 c 0,2,3
 -40.9888 342.311 -40.9888 342.311 -40.9902 441.388 c 0,4,5
 -40.9902 485.134 -40.9902 485.134 -30.3418 528.908 c 0,6,7
 4.27803 658.737 4.27803 658.737 115.751 746.41 c 0,8,9
 222.69 829.993 222.69 829.993 348.611 829.99 c 0,10,11
 393.407 829.99 393.407 829.99 439.316 818.792 c 1,12,13
 551.198 786.985 551.198 786.985 616.836 701.662 c 1,14,15
 678.989 618.42 678.989 618.42 678.99 509.611 c 0,16,17
 678.99 462.548 678.99 462.548 666.194 412.531 c 0,18,19
 627.686 272.485 627.686 272.485 458.848 110.311 c 0,20,21
 299.246 -41.6423 299.246 -41.6423 161.222 -86.0713 c 0,22,23
 116.449 -100.646 116.449 -100.646 71.7529 -89.8096 c 1,24,25
 29.0594 -77.8027 29.0594 -77.8027 -1.04395 -34.1816 c 0,26,27
 -30.9902 9.20809 -30.9902 9.20809 -30.9902 58.3896 c 0,28,29
 -30.9902 74.9192 -30.9902 74.9192 -28.4189 91.6318 c 0,30,31
 -27.6607 96.5604 -27.6607 96.5604 -25.7168 102.25 c 0,32,33
 -12.9113 147.97 -12.9113 147.97 26.3887 186.45 c 0,34,35
 39.9316 199.712 39.9316 199.712 57.002 213.658 c 1,0,1
EndSplineSet
Validated: 524321
EndChar

StartChar: colon
Encoding: 58 58 29
Width: 274
GlyphClass: 2
Flags: W
LayerCount: 2
Fore
SplineSet
73 382 m 0,0,1
 73 424 73 424 103 454.5 c 128,-1,2
 133 485 133 485 176 485 c 0,3,4
 218 485 218 485 248.5 454.5 c 128,-1,5
 279 424 279 424 279 382 c 0,6,7
 279 339 279 339 248.5 309 c 128,-1,8
 218 279 218 279 176 279 c 0,9,10
 133 279 133 279 103 309 c 128,-1,11
 73 339 73 339 73 382 c 0,0,1
-11 71 m 0,12,13
 -11 114 -11 114 19.5 144 c 128,-1,14
 50 174 50 174 92 174 c 0,15,16
 135 174 135 174 165 144 c 128,-1,17
 195 114 195 114 195 71 c 0,18,19
 195 29 195 29 165 -1.5 c 128,-1,20
 135 -32 135 -32 92 -32 c 0,21,22
 50 -32 50 -32 19.5 -1.5 c 128,-1,23
 -11 29 -11 29 -11 71 c 0,12,13
EndSplineSet
Validated: 1
EndChar

StartChar: semicolon
Encoding: 59 59 30
Width: 229
GlyphClass: 2
Flags: W
LayerCount: 2
Fore
SplineSet
119 287 m 0,0,1
 77 282 77 282 43.5 308.5 c 128,-1,2
 10 335 10 335 5 377 c 0,3,4
 -1 419 -1 419 25.5 452.5 c 128,-1,5
 52 486 52 486 94 492 c 0,6,7
 136 497 136 497 170 470.5 c 128,-1,8
 204 444 204 444 209 402 c 256,9,10
 214 360 214 360 188 326 c 128,-1,11
 162 292 162 292 119 287 c 0,0,1
235 53 m 1,12,13
 214 -6 214 -6 192 -66 c 1,14,15
 152 -155 152 -155 98 -162 c 0,16,17
 61 -166 61 -166 30 -143 c 128,-1,18
 -1 -120 -1 -120 -6 -83 c 0,19,20
 -10 -50 -10 -50 28 42 c 1,21,22
 48 86 48 86 67 130 c 0,23,24
 87 179 87 179 141 186 c 0,25,26
 178 191 178 191 209.5 168 c 128,-1,27
 241 145 241 145 245 107 c 0,28,29
 248 84 248 84 235 53 c 1,12,13
EndSplineSet
Validated: 33
EndChar

StartChar: less
Encoding: 60 60 31
Width: 589
GlyphClass: 2
Flags: W
LayerCount: 2
Fore
SplineSet
558 12 m 0,0,1
 534 9 534 9 496 19 c 2,2,-1
 77 137 l 2,3,4
 12 155 12 155 12 224 c 0,5,6
 12 268 12 268 52 294 c 2,7,-1
 414 535 l 2,8,9
 448 558 448 558 471 562 c 0,10,11
 508 567 508 567 533 538.5 c 128,-1,12
 558 510 558 510 558 471 c 0,13,14
 558 430 558 430 518 405 c 2,15,-1
 261 247 l 1,16,-1
 554 176 l 2,17,18
 608 163 608 163 616 111 c 0,19,20
 618 101 618 101 618 92 c 0,21,22
 618 22 618 22 558 12 c 0,0,1
EndSplineSet
Validated: 33
EndChar

StartChar: equal
Encoding: 61 61 32
Width: 618
GlyphClass: 2
Flags: W
LayerCount: 2
Fore
SplineSet
507 248 m 2,0,-1
 102 312 l 2,1,2
 68 317 68 317 49 339.5 c 128,-1,3
 30 362 30 362 30 393 c 0,4,5
 30 430 30 430 52.5 455.5 c 128,-1,6
 75 481 75 481 112 481 c 0,7,8
 120 481 120 481 128 480 c 2,9,-1
 533 416 l 2,10,11
 567 410 567 410 586 388 c 128,-1,12
 605 366 605 366 605 334 c 0,13,14
 605 297 605 297 582.5 271.5 c 128,-1,15
 560 246 560 246 523 246 c 0,16,17
 515 246 515 246 507 248 c 2,0,-1
472 26 m 2,18,-1
 67 90 l 2,19,20
 33 96 33 96 14 118 c 128,-1,21
 -5 140 -5 140 -5 172 c 0,22,23
 -5 209 -5 209 17.5 234.5 c 128,-1,24
 40 260 40 260 77 260 c 0,25,26
 85 260 85 260 93 258 c 2,27,-1
 498 194 l 2,28,29
 532 189 532 189 551 166.5 c 128,-1,30
 570 144 570 144 570 113 c 0,31,32
 570 76 570 76 547.5 50.5 c 128,-1,33
 525 25 525 25 488 25 c 0,34,35
 480 25 480 25 472 26 c 2,18,-1
EndSplineSet
Validated: 1
EndChar

StartChar: greater
Encoding: 62 62 33
Width: 576
GlyphClass: 2
Flags: W
LayerCount: 2
Fore
SplineSet
543 190 m 2,0,-1
 162 -19 l 2,1,2
 128 -38 128 -38 103 -39 c 1,3,4
 71 -42 71 -42 48.5 -18.5 c 128,-1,5
 26 5 26 5 24 43 c 0,6,7
 20 96 20 96 70 121 c 2,8,-1
 339 256 l 1,9,-1
 54 352 l 2,10,11
 1 370 1 370 -3 422 c 0,12,13
 -6 461 -6 461 13 487 c 128,-1,14
 32 513 32 513 64 515 c 0,15,16
 87 517 87 517 125 502 c 2,17,-1
 532 349 l 2,18,19
 585 329 585 329 589 273 c 0,20,21
 593 218 593 218 543 190 c 2,0,-1
EndSplineSet
Validated: 33
EndChar

StartChar: question
Encoding: 63 63 34
Width: 516
GlyphClass: 2
Flags: W
LayerCount: 2
Fore
SplineSet
296 270 m 1,0,-1
 291 254 l 1,1,2
 273 184 273 184 201 184 c 0,3,4
 187 184 187 184 173 188 c 0,5,6
 100 207 100 207 100 277 c 0,7,8
 100 290 100 290 104 304 c 2,9,-1
 130 400 l 2,10,11
 143 449 143 449 217 449 c 0,12,13
 221 449 221 449 228.5 449 c 128,-1,14
 236 449 236 449 240 449 c 0,15,16
 323 449 323 449 323 503 c 0,17,18
 323 526 323 526 304 542.5 c 128,-1,19
 285 559 285 559 261 559 c 256,20,21
 237 559 237 559 192.5 529 c 128,-1,22
 148 499 148 499 119 499 c 0,23,24
 108 499 108 499 97 502 c 0,25,26
 35 519 35 519 35 587 c 0,27,28
 35 602 35 602 39 618 c 0,29,30
 57 684 57 684 124 718 c 0,31,32
 180 747 180 747 254 747 c 0,33,34
 294 747 294 747 327 738 c 0,35,36
 415 714 415 714 471 652 c 0,37,38
 529 587 529 587 529 503 c 0,39,40
 529 471 529 471 520 439 c 0,41,42
 477 277 477 277 296 270 c 1,0,-1
41 80 m 0,43,44
 41 122 41 122 71.5 152.5 c 128,-1,45
 102 183 102 183 144 183 c 0,46,47
 187 183 187 183 217 152.5 c 128,-1,48
 247 122 247 122 247 80 c 0,49,50
 247 37 247 37 217 7 c 128,-1,51
 187 -23 187 -23 144 -23 c 0,52,53
 102 -23 102 -23 71.5 7 c 128,-1,54
 41 37 41 37 41 80 c 0,43,44
EndSplineSet
Validated: 1
EndChar

StartChar: at
Encoding: 64 64 35
Width: 801
GlyphClass: 2
Flags: W
LayerCount: 2
Fore
SplineSet
562 243 m 1,0,1
 583 243 583 243 609 264 c 0,2,3
 646 295 646 295 657 354 c 0,4,5
 661 373 661 373 661 391 c 0,6,7
 661 484 661 484 575 549 c 0,8,9
 495 609 495 609 399 609 c 0,10,11
 310 609 310 609 239.5 551.5 c 128,-1,12
 169 494 169 494 152 404 c 0,13,14
 147 380 147 380 147 355 c 0,15,16
 147 266 147 266 204.5 195.5 c 128,-1,17
 262 125 262 125 352 108 c 0,18,19
 401 98 401 98 451 98 c 0,20,21
 525 98 525 98 567 120 c 0,22,23
 620 147 620 147 639 144 c 0,24,25
 689 134 689 134 689 87 c 0,26,27
 689 79 689 79 688 71 c 0,28,29
 682 42 682 42 641 7 c 1,30,31
 559 -43 559 -43 448 -43 c 0,32,33
 392 -43 392 -43 325 -30 c 0,34,35
 185 -3 185 -3 96 108 c 1,36,37
 7 216 7 216 7 356 c 0,38,39
 7 394 7 394 14 431 c 0,40,41
 41 571 41 571 152 660 c 1,42,43
 260 749 260 749 400 749 c 0,44,45
 552 749 552 749 673 645 c 0,46,47
 800 536 800 536 800 385 c 0,48,49
 800 356 800 356 795 327 c 0,50,51
 771 206 771 206 662 147 c 1,52,53
 584 106 584 106 495 106 c 0,54,55
 476 106 476 106 465 108 c 0,56,57
 408 119 408 119 391 156 c 1,58,59
 364 139 364 139 323 139 c 0,60,61
 308 139 308 139 292 142 c 0,62,63
 229 154 229 154 191 211 c 1,64,65
 157 264 157 264 157 331 c 0,66,67
 157 424 157 424 222 498 c 0,68,69
 291 575 291 575 383 575 c 0,70,71
 471 575 471 575 519 519 c 1,72,73
 538 541 538 541 571 541 c 0,74,75
 583 541 583 541 595 538 c 0,76,77
 620 533 620 533 637 519 c 0,78,79
 660 500 660 500 655 473 c 0,80,81
 652 456 652 456 643 437 c 2,82,-1
 569 266 l 2,83,84
 564 254 564 254 562 243 c 1,0,1
396 422 m 0,85,86
 363 428 363 428 336.5 399 c 128,-1,87
 310 370 310 370 310 337 c 0,88,89
 310 285 310 285 358 285 c 0,90,91
 390 285 390 285 413 310.5 c 128,-1,92
 436 336 436 336 436 369 c 0,93,94
 436 414 436 414 396 422 c 0,85,86
EndSplineSet
Validated: 37
EndChar

StartChar: A
Encoding: 65 65 36
Width: 597
GlyphClass: 2
Flags: W
LayerCount: 2
Fore
SplineSet
524 -51 m 0,0,1
 465 -46 465 -46 442 4 c 0,2,3
 436 17 436 17 416 105 c 1,4,-1
 175 126 l 1,5,6
 141 44 141 44 132 32 c 0,7,8
 101 -14 101 -14 43 -9 c 0,9,10
 3 -5 3 -5 -24 24.5 c 128,-1,11
 -51 54 -51 54 -47 95 c 0,12,13
 -46 113 -46 113 -35 135 c 2,14,-1
 212 660 l 2,15,16
 232 701 232 701 268.5 726 c 128,-1,17
 305 751 305 751 351 747 c 0,18,19
 445 739 445 739 472 637 c 2,20,-1
 620 78 l 2,21,22
 627 51 627 51 626 32 c 0,23,24
 622 -8 622 -8 592 -31 c 128,-1,25
 562 -54 562 -54 524 -51 c 0,0,1
326 498 m 1,26,27
 305 435 305 435 251 308 c 1,28,-1
 372 298 l 1,29,-1
 326 498 l 1,26,27
EndSplineSet
Validated: 33
EndChar

StartChar: B
Encoding: 66 66 37
Width: 612
GlyphClass: 2
Flags: W
LayerCount: 2
Fore
SplineSet
455 408 m 1,0,1
 506 408 506 408 550.5 363 c 128,-1,2
 595 318 595 318 603 253 c 0,3,4
 605 233 605 233 605 214 c 0,5,6
 605 116 605 116 543 55 c 128,-1,7
 481 -6 481 -6 377 -19 c 2,8,-1
 173 -44 l 2,9,10
 128 -49 128 -49 95 -25.5 c 128,-1,11
 62 -2 62 -2 56 43 c 2,12,-1
 -12 600 l 2,13,14
 -18 646 -18 646 8 676.5 c 128,-1,15
 34 707 34 707 79 712 c 2,16,-1
 269 736 l 1,17,18
 285 737 285 737 300 737 c 0,19,20
 379 737 379 737 437 690 c 128,-1,21
 495 643 495 643 505 562 c 0,22,23
 507 547 507 547 507 532 c 0,24,25
 507 457 507 457 455 408 c 1,0,1
249 550 m 2,26,-1
 196 543 l 1,27,-1
 209 444 l 1,28,-1
 261 450 l 2,29,30
 317 457 317 457 310 511 c 0,31,32
 305 557 305 557 249 550 c 2,26,-1
311 273 m 2,33,-1
 231 263 l 1,34,-1
 245 148 l 1,35,-1
 337 160 l 2,36,37
 406 168 406 168 398 230 c 0,38,39
 393 275 393 275 333 275 c 0,40,41
 323 275 323 275 311 273 c 2,33,-1
EndSplineSet
Validated: 33
EndChar

StartChar: C
Encoding: 67 67 38
Width: 596
GlyphClass: 2
Flags: W
LayerCount: 2
Fore
SplineSet
299 -41 m 0,0,1
 158 -19 158 -19 73 87 c 0,2,3
 -10 190 -10 190 -10 332 c 0,4,5
 -10 368 -10 368 -4 404 c 0,6,7
 19 553 19 553 119.5 646.5 c 128,-1,8
 220 740 220 740 360 740 c 0,9,10
 390 740 390 740 422 735 c 0,11,12
 496 723 496 723 559 685 c 0,13,14
 639 637 639 637 639 576 c 0,15,16
 639 539 639 539 613.5 511.5 c 128,-1,17
 588 484 588 484 551 484 c 0,18,19
 525 484 525 484 472 515 c 0,20,21
 434 537 434 537 391 543 c 0,22,23
 378 545 378 545 364 545 c 0,24,25
 299 545 299 545 255 497 c 128,-1,26
 211 449 211 449 199 369 c 0,27,28
 195 346 195 346 195 324 c 0,29,30
 195 255 195 255 229 209 c 0,31,32
 265 160 265 160 329 150 c 0,33,34
 344 148 344 148 358 148 c 0,35,36
 385 148 385 148 423.5 158 c 128,-1,37
 462 168 462 168 478 168 c 0,38,39
 520 168 520 168 547.5 134.5 c 128,-1,40
 575 101 575 101 568 61 c 0,41,42
 559 4 559 4 493 -24 c 0,43,44
 440 -46 440 -46 364 -46 c 0,45,46
 329 -46 329 -46 299 -41 c 0,0,1
EndSplineSet
Validated: 33
EndChar

StartChar: D
Encoding: 68 68 39
Width: 680
GlyphClass: 2
Flags: W
LayerCount: 2
Fore
SplineSet
365 -27 m 2,0,-1
 193 -57 l 2,1,2
 184 -59 184 -59 173 -59 c 0,3,4
 88 -59 88 -59 74 23 c 2,5,-1
 -24 575 l 2,6,7
 -25 585 -25 585 -25 595 c 0,8,9
 -25 632 -25 632 -2 659 c 128,-1,10
 21 686 21 686 59 693 c 2,11,-1
 223 722 l 2,12,13
 266 729 266 729 307 729 c 0,14,15
 448 729 448 729 541.5 642 c 128,-1,16
 635 555 635 555 662 402 c 0,17,18
 669 361 669 361 669 321 c 0,19,20
 669 186 669 186 587.5 92 c 128,-1,21
 506 -2 506 -2 365 -27 c 2,0,-1
253 536 m 2,22,-1
 188 525 l 1,23,-1
 255 145 l 1,24,-1
 330 158 l 2,25,26
 463 181 463 181 463 321 c 0,27,28
 463 346 463 346 458 373 c 0,29,30
 428 540 428 540 294 540 c 0,31,32
 275 540 275 540 253 536 c 2,22,-1
EndSplineSet
Validated: 1
EndChar

StartChar: E
Encoding: 69 69 40
Width: 485
GlyphClass: 2
Flags: W
LayerCount: 2
Fore
SplineSet
305 -43 m 2,0,-1
 52 6 l 2,1,2
 15 13 15 13 -8.5 39.5 c 128,-1,3
 -32 66 -32 66 -32 103 c 0,4,5
 -32 113 -32 113 -29 124 c 2,6,-1
 76 664 l 2,7,8
 94 756 94 756 174 756 c 0,9,10
 186 756 186 756 198 754 c 2,11,-1
 441 707 l 2,12,13
 480 699 480 699 500 673.5 c 128,-1,14
 520 648 520 648 520 615 c 0,15,16
 520 576 520 576 493 548 c 128,-1,17
 466 520 466 520 427 520 c 0,18,19
 416 520 416 520 406 522 c 2,20,-1
 257 551 l 1,21,-1
 239 457 l 1,22,-1
 375 430 l 2,23,24
 414 422 414 422 435 396.5 c 128,-1,25
 456 371 456 371 456 338 c 0,26,27
 456 298 456 298 428.5 270.5 c 128,-1,28
 401 243 401 243 361 243 c 0,29,30
 351 243 351 243 340 245 c 2,31,-1
 203 272 l 1,32,-1
 184 172 l 1,33,-1
 341 141 l 2,34,35
 379 134 379 134 399 108.5 c 128,-1,36
 419 83 419 83 419 50 c 0,37,38
 419 11 419 11 392.5 -17 c 128,-1,39
 366 -45 366 -45 326 -45 c 0,40,41
 316 -45 316 -45 305 -43 c 2,0,-1
EndSplineSet
Validated: 1
EndChar

StartChar: F
Encoding: 70 70 41
Width: 463
GlyphClass: 2
Flags: W
LayerCount: 2
Fore
SplineSet
396 537 m 2,0,-1
 237 550 l 1,1,-1
 229 455 l 1,2,-1
 358 444 l 2,3,4
 403 440 403 440 428 408 c 0,5,6
 450 380 450 380 447 342 c 0,7,8
 444 305 444 305 417 280 c 0,9,10
 387 252 387 252 342 256 c 2,11,-1
 212 268 l 1,12,-1
 196 75 l 2,13,14
 192 28 192 28 161 3 c 128,-1,15
 130 -22 130 -22 87 -19 c 0,16,17
 44 -15 44 -15 18 15.5 c 128,-1,18
 -8 46 -8 46 -4 93 c 2,19,-1
 45 653 l 2,20,21
 49 694 49 694 79.5 722 c 128,-1,22
 110 750 110 750 157 746 c 2,23,-1
 412 724 l 2,24,25
 455 720 455 720 477 689.5 c 128,-1,26
 499 659 499 659 495 622 c 0,27,28
 492 586 492 586 467 561 c 0,29,30
 439 533 439 533 396 537 c 2,0,-1
EndSplineSet
Validated: 33
EndChar

StartChar: G
Encoding: 71 71 42
Width: 738
GlyphClass: 2
Flags: W
LayerCount: 2
Fore
SplineSet
521 0 m 0,0,1
 447 -33 447 -33 370 -33 c 0,2,3
 260 -33 260 -33 167 32 c 128,-1,4
 74 97 74 97 24 209 c 0,5,6
 -15 297 -15 297 -15 387 c 0,7,8
 -15 495 -15 495 40 581 c 0,9,10
 97 672 97 672 201 718 c 0,11,12
 294 760 294 760 387 760 c 0,13,14
 511 760 511 760 543 689 c 0,15,16
 552 667 552 667 552 645 c 0,17,18
 552 589 552 589 502 566 c 1,19,20
 471 553 471 553 403 562.5 c 128,-1,21
 335 572 335 572 278 546 c 0,22,23
 187 506 187 506 187 402 c 0,24,25
 187 349 187 349 212 293 c 0,26,27
 272 157 272 157 380 157 c 0,28,29
 438 157 438 157 485 197 c 1,30,31
 536 238 536 238 536 295 c 0,32,33
 536 311 536 311 531 329 c 1,34,-1
 462 298 l 2,35,36
 442 289 442 289 422 289 c 0,37,38
 362 289 362 289 337 346 c 0,39,40
 328 366 328 366 328 386 c 0,41,42
 328 444 328 444 386 470 c 2,43,-1
 541 539 l 2,44,45
 571 552 571 552 597 552 c 0,46,47
 659 552 659 552 694 475 c 1,48,49
 730 392 730 392 730 310 c 0,50,51
 730 210 730 210 678 129 c 1,52,53
 623 46 623 46 521 0 c 0,0,1
EndSplineSet
Validated: 33
EndChar

StartChar: H
Encoding: 72 72 43
Width: 722
GlyphClass: 2
Flags: W
LayerCount: 2
Fore
SplineSet
629 0 m 0,0,1
 586 -5 586 -5 554.5 19.5 c 128,-1,2
 523 44 523 44 518 90 c 2,3,-1
 494 282 l 1,4,-1
 232 250 l 1,5,-1
 256 58 l 2,6,7
 257 50 257 50 257 42 c 0,8,9
 257 1 257 1 232.5 -25.5 c 128,-1,10
 208 -52 208 -52 169 -56 c 1,11,12
 126 -62 126 -62 94.5 -37.5 c 128,-1,13
 63 -13 63 -13 57 34 c 2,14,-1
 -12 597 l 2,15,16
 -13 606 -13 606 -13 614 c 0,17,18
 -13 654 -13 654 11 680.5 c 128,-1,19
 35 707 35 707 75 712 c 0,20,21
 118 717 118 717 149.5 692.5 c 128,-1,22
 181 668 181 668 186 622 c 2,23,-1
 209 436 l 1,24,-1
 471 468 l 1,25,-1
 448 654 l 2,26,27
 447 662 447 662 447 670 c 0,28,29
 447 711 447 711 471.5 737.5 c 128,-1,30
 496 764 496 764 535 768 c 1,31,32
 578 774 578 774 609.5 749.5 c 128,-1,33
 641 725 641 725 647 678 c 2,34,-1
 716 115 l 2,35,36
 717 106 717 106 717 98 c 0,37,38
 717 58 717 58 693 31.5 c 128,-1,39
 669 5 669 5 629 0 c 0,0,1
EndSplineSet
Validated: 33
EndChar

StartChar: I
Encoding: 73 73 44
Width: 247
GlyphClass: 2
Flags: W
LayerCount: 2
Fore
SplineSet
-25 71 m 0,0,1
 -25 81 -25 81 -23 91 c 2,2,-1
 66 652 l 2,3,4
 72 693 72 693 98.5 716.5 c 128,-1,5
 125 740 125 740 162 740 c 0,6,7
 206 740 206 740 235.5 712.5 c 128,-1,8
 265 685 265 685 265 641 c 0,9,10
 265 631 265 631 263 621 c 2,11,-1
 174 60 l 2,12,13
 168 19 168 19 141.5 -4.5 c 128,-1,14
 115 -28 115 -28 78 -28 c 0,15,16
 34 -28 34 -28 4.5 -0.5 c 128,-1,17
 -25 27 -25 27 -25 71 c 0,0,1
EndSplineSet
Validated: 1
EndChar

StartChar: J
Encoding: 74 74 45
Width: 421
GlyphClass: 2
Flags: W
LayerCount: 2
Fore
SplineSet
238 -32 m 0,0,1
 213 -37 213 -37 185 -37 c 0,2,3
 119 -37 119 -37 69 -11 c 0,4,5
 7 21 7 21 7 81 c 0,6,7
 7 118 7 118 30 143 c 128,-1,8
 53 168 53 168 89 168 c 0,9,10
 107 168 107 168 146 158 c 1,11,12
 180 148 180 148 197 151 c 0,13,14
 223 156 223 156 223 182 c 0,15,16
 223 186 223 186 218 215 c 2,17,-1
 143 638 l 2,18,19
 141 650 141 650 141 661 c 0,20,21
 141 704 141 704 170.5 731.5 c 128,-1,22
 200 759 200 759 244 759 c 0,23,24
 280 759 280 759 306.5 736.5 c 128,-1,25
 333 714 333 714 340 673 c 2,26,-1
 416 240 l 2,27,28
 422 208 422 208 422 179 c 0,29,30
 422 84 422 84 363 27 c 0,31,32
 314 -19 314 -19 238 -32 c 0,0,1
EndSplineSet
Validated: 33
EndChar

StartChar: K
Encoding: 75 75 46
Width: 607
GlyphClass: 2
Flags: W
LayerCount: 2
Fore
SplineSet
452 -63 m 0,0,1
 410 -54 410 -54 370 9 c 2,2,-1
 203 279 l 1,3,-1
 167 92 l 2,4,5
 160 57 160 57 133.5 35 c 128,-1,6
 107 13 107 13 71 13 c 0,7,8
 29 13 29 13 -1.5 40 c 128,-1,9
 -32 67 -32 67 -32 109 c 0,10,11
 -32 119 -32 119 -30 130 c 2,12,-1
 81 697 l 1,13,14
 87 733 87 733 113.5 755 c 128,-1,15
 140 777 140 777 176 777 c 0,16,17
 219 777 219 777 249 750 c 128,-1,18
 279 723 279 723 279 681 c 0,19,20
 279 670 279 670 277 659 c 2,21,-1
 248 509 l 1,22,-1
 488 682 l 2,23,24
 519 705 519 705 551 705 c 0,25,26
 591 705 591 705 620.5 676.5 c 128,-1,27
 650 648 650 648 650 608 c 0,28,29
 650 598 650 598 648 589 c 0,30,31
 640 547 640 547 574 504 c 2,32,-1
 374 371 l 1,33,-1
 541 111 l 2,34,35
 573 61 573 61 573 28 c 0,36,37
 573 19 573 19 571 10 c 0,38,39
 557 -65 557 -65 477 -65 c 0,40,41
 465 -65 465 -65 452 -63 c 0,0,1
EndSplineSet
Validated: 1
EndChar

StartChar: L
Encoding: 76 76 47
Width: 414
GlyphClass: 2
Flags: W
LayerCount: 2
Fore
SplineSet
339 -35 m 2,0,-1
 90 -13 l 2,1,2
 43 -9 43 -9 18 23 c 128,-1,3
 -7 55 -7 55 -3 103 c 2,4,-1
 45 659 l 2,5,6
 49 705 49 705 80 730.5 c 128,-1,7
 111 756 111 756 154 752 c 0,8,9
 197 749 197 749 223 718.5 c 128,-1,10
 249 688 249 688 245 641 c 2,11,-1
 203 166 l 1,12,-1
 355 153 l 2,13,14
 398 149 398 149 421 122.5 c 128,-1,15
 444 96 444 96 444 61 c 0,16,17
 444 20 444 20 417 -8 c 0,18,19
 387 -39 387 -39 339 -35 c 2,0,-1
EndSplineSet
Validated: 33
EndChar

StartChar: M
Encoding: 77 77 48
Width: 935
GlyphClass: 2
Flags: W
LayerCount: 2
Fore
SplineSet
450 319 m 1,0,1
 432 414 432 414 399 659 c 0,2,3
 398 666 398 666 398 674 c 0,4,5
 398 709 398 709 418.5 742 c 128,-1,6
 439 775 439 775 476 791 c 0,7,8
 500 802 500 802 527 802 c 0,9,10
 594 802 594 802 628 751 c 1,11,12
 713 632 713 632 799 512 c 0,13,14
 902 369 902 369 949 261 c 0,15,16
 959 240 959 240 959 219 c 0,17,18
 959 159 959 159 900 133 c 0,19,20
 873 121 873 121 851 121 c 0,21,22
 803 121 803 121 769 174 c 2,23,-1
 602 440 l 1,24,25
 623 330 623 330 655 107 c 0,26,27
 656 98 656 98 656 89 c 0,28,29
 656 24 656 24 591 -5 c 0,30,31
 566 -16 566 -16 542 -16 c 0,32,33
 497 -16 497 -16 465 22 c 2,34,-1
 246 283 l 1,35,36
 280 184 280 184 338 -18 c 0,37,38
 344 -40 344 -40 344 -58 c 0,39,40
 344 -115 344 -115 281 -143 c 0,41,42
 261 -152 261 -152 239 -152 c 0,43,44
 179 -152 179 -152 153 -94 c 0,45,46
 105 14 105 14 67 186 c 0,47,48
 35 330 35 330 3 474 c 0,49,50
 0 485 0 485 0 498 c 0,51,52
 0 532 0 532 20 564.5 c 128,-1,53
 40 597 40 597 76 613 c 0,54,55
 101 624 101 624 128 624 c 0,56,57
 189 624 189 624 226 581 c 2,58,-1
 450 319 l 1,0,1
EndSplineSet
Validated: 1
EndChar

StartChar: N
Encoding: 78 78 49
Width: 709
GlyphClass: 2
Flags: W
LayerCount: 2
Fore
SplineSet
485 337 m 1,0,1
 465 417 465 417 435 654 c 0,2,3
 434 663 434 663 434 672 c 0,4,5
 434 711 434 711 458.5 737 c 128,-1,6
 483 763 483 763 522 768 c 0,7,8
 565 773 565 773 596.5 749 c 128,-1,9
 628 725 628 725 634 678 c 2,10,-1
 703 114 l 2,11,12
 704 106 704 106 704 98 c 0,13,14
 704 58 704 58 680 31.5 c 128,-1,15
 656 5 656 5 616 0 c 0,16,17
 596 -3 596 -3 570.5 6.5 c 128,-1,18
 545 16 545 16 529 32 c 2,19,-1
 200 371 l 1,20,21
 220 291 220 291 250 58 c 0,22,23
 251 49 251 49 251 40 c 0,24,25
 251 1 251 1 226.5 -25 c 128,-1,26
 202 -51 202 -51 163 -56 c 0,27,28
 120 -61 120 -61 88.5 -37 c 128,-1,29
 57 -13 57 -13 51 34 c 2,30,-1
 -18 598 l 2,31,32
 -19 606 -19 606 -19 614 c 0,33,34
 -19 654 -19 654 5 680.5 c 128,-1,35
 29 707 29 707 69 712 c 0,36,37
 89 715 89 715 115 705.5 c 128,-1,38
 141 696 141 696 156 680 c 2,39,-1
 485 337 l 1,0,1
EndSplineSet
Validated: 33
EndChar

StartChar: O
Encoding: 79 79 50
Width: 733
GlyphClass: 2
Flags: W
LayerCount: 2
Fore
SplineSet
300 -32 m 0,0,1
 158 -10 158 -10 73 96 c 0,2,3
 -9 199 -9 199 -9 342 c 0,4,5
 -9 377 -9 377 -3 414 c 0,6,7
 20 562 20 562 120.5 655.5 c 128,-1,8
 221 749 221 749 360 749 c 0,9,10
 391 749 391 749 422 744 c 0,11,12
 563 722 563 722 647 615.5 c 128,-1,13
 731 509 731 509 731 368 c 0,14,15
 731 333 731 333 725 298 c 0,16,17
 702 151 702 151 602 57 c 128,-1,18
 502 -37 502 -37 362 -37 c 0,19,20
 331 -37 331 -37 300 -32 c 0,0,1
393 558 m 0,21,22
 380 561 380 561 367 561 c 0,23,24
 301 561 301 561 257 511 c 128,-1,25
 213 461 213 461 200 381 c 0,26,27
 196 356 196 356 196 331 c 0,28,29
 196 260 196 260 230 212 c 128,-1,30
 264 164 264 164 329 154 c 0,31,32
 343 151 343 151 356 151 c 0,33,34
 422 151 422 151 467 202 c 0,35,36
 509 250 509 250 522 331 c 0,37,38
 526 355 526 355 526 379 c 0,39,40
 526 450 526 450 493 498 c 1,41,42
 457 548 457 548 393 558 c 0,21,22
EndSplineSet
Validated: 1
EndChar

StartChar: P
Encoding: 80 80 51
Width: 549
GlyphClass: 2
Flags: W
LayerCount: 2
Fore
SplineSet
331 214 m 2,0,-1
 246 199 l 1,1,-1
 270 62 l 2,2,3
 272 51 272 51 272 40 c 0,4,5
 272 -4 272 -4 242.5 -31 c 128,-1,6
 213 -58 213 -58 169 -58 c 0,7,8
 133 -58 133 -58 106.5 -35.5 c 128,-1,9
 80 -13 80 -13 73 28 c 2,10,-1
 -25 581 l 2,11,12
 -27 592 -27 592 -27 603 c 0,13,14
 -27 685 -27 685 59 700 c 2,15,-1
 233 731 l 2,16,17
 263 736 263 736 292 736 c 0,18,19
 393 736 393 736 465.5 678 c 128,-1,20
 538 620 538 620 556 520 c 0,21,22
 560 494 560 494 560 470 c 0,23,24
 560 371 560 371 495.5 301.5 c 128,-1,25
 431 232 431 232 331 214 c 2,0,-1
262 551 m 2,26,-1
 186 538 l 1,27,-1
 214 378 l 1,28,-1
 290 392 l 2,29,30
 354 403 354 403 354 467 c 0,31,32
 354 503 354 503 335 527 c 0,33,34
 313 553 313 553 278 553 c 0,35,36
 270 553 270 553 262 551 c 2,26,-1
EndSplineSet
Validated: 1
EndChar

StartChar: Q
Encoding: 81 81 52
Width: 737
GlyphClass: 2
Flags: W
LayerCount: 2
Fore
SplineSet
467 -22 m 1,0,1
 420 -36 420 -36 370 -36 c 0,2,3
 330 -36 330 -36 290 -28 c 0,4,5
 153 -1 153 -1 72 103 c 0,6,7
 -6 204 -6 204 -6 341 c 0,8,9
 -6 385 -6 385 2 428 c 0,10,11
 30 572 30 572 130 661.5 c 128,-1,12
 230 751 230 751 365 751 c 0,13,14
 402 751 402 751 440 744 c 0,15,16
 575 718 575 718 656 611 c 1,17,18
 735 509 735 509 735 372 c 0,19,20
 735 330 735 330 727 288 c 0,21,22
 702 161 702 161 626 77 c 1,23,24
 646 51 646 51 667 25 c 1,25,26
 688 -7 688 -7 688 -36 c 0,27,28
 688 -73 688 -73 660 -97.5 c 128,-1,29
 632 -122 632 -122 594 -122 c 256,30,31
 556 -122 556 -122 521 -87 c 0,32,33
 514 -81 514 -81 467 -22 c 1,0,1
335 155 m 1,34,35
 315 185 315 185 321 216 c 0,36,37
 327 250 327 250 352 272.5 c 128,-1,38
 377 295 377 295 412 295 c 0,39,40
 421 295 421 295 431 293 c 0,41,42
 460 287 460 287 498 244 c 1,43,44
 530 309 530 309 530 384 c 0,45,46
 530 452 530 452 499 498 c 0,47,48
 465 547 465 547 404 559 c 0,49,50
 388 562 388 562 372 562 c 0,51,52
 309 562 309 562 264.5 514.5 c 128,-1,53
 220 467 220 467 205 389 c 0,54,55
 199 358 199 358 199 329 c 0,56,57
 199 259 199 259 232 214 c 0,58,59
 267 166 267 166 335 155 c 1,34,35
EndSplineSet
Validated: 33
EndChar

StartChar: R
Encoding: 82 82 53
Width: 587
GlyphClass: 2
Flags: W
LayerCount: 2
Fore
SplineSet
202 239 m 1,0,1
 205 187 205 187 196 80 c 1,2,3
 194 33 194 33 162.5 7.5 c 128,-1,4
 131 -18 131 -18 87 -14 c 0,5,6
 44 -10 44 -10 18 20.5 c 128,-1,7
 -8 51 -8 51 -3 97 c 2,8,-1
 46 657 l 2,9,10
 50 704 50 704 79.5 729.5 c 128,-1,11
 109 755 109 755 156 751 c 2,12,-1
 331 736 l 2,13,14
 450 725 450 725 515 667 c 0,15,16
 584 605 584 605 584 495 c 0,17,18
 584 479 584 479 583 462 c 0,19,20
 576 384 576 384 524 334 c 0,21,22
 477 288 477 288 403 273 c 1,23,-1
 530 111 l 2,24,25
 554 80 554 80 551 48 c 0,26,27
 548 8 548 8 517 -20.5 c 128,-1,28
 486 -49 486 -49 443 -45 c 0,29,30
 395 -41 395 -41 369 -3 c 2,31,-1
 202 239 l 1,0,1
315 548 m 2,32,-1
 237 555 l 1,33,-1
 226 429 l 1,34,-1
 304 422 l 2,35,36
 372 416 372 416 377 480 c 1,37,38
 383 542 383 542 315 548 c 2,32,-1
EndSplineSet
Validated: 33
EndChar

StartChar: S
Encoding: 83 83 54
Width: 551
GlyphClass: 2
Flags: W
LayerCount: 2
Fore
SplineSet
262 -37 m 0,0,1
 173 -37 173 -37 96 -8 c 0,2,3
 -6 30 -6 30 -6 100 c 0,4,5
 -6 139 -6 139 19.5 167.5 c 128,-1,6
 45 196 45 196 86 196 c 0,7,8
 115 196 115 196 169.5 176.5 c 128,-1,9
 224 157 224 157 254 157 c 0,10,11
 331 157 331 157 331 218 c 0,12,13
 331 248 331 248 244 273 c 0,14,15
 127 306 127 306 84 334 c 0,16,17
 -3 390 -3 390 -3 497 c 0,18,19
 -3 611 -3 611 80 682 c 0,20,21
 158 749 158 749 270 749 c 0,22,23
 337 749 337 749 405 721 c 1,24,25
 491 684 491 684 491 624 c 0,26,27
 491 585 491 585 466 555 c 128,-1,28
 441 525 441 525 399 525 c 0,29,30
 376 525 376 525 333 540 c 128,-1,31
 290 555 290 555 266 555 c 0,32,33
 209 555 209 555 209 515 c 0,34,35
 209 494 209 494 296 469 c 0,36,37
 406 438 406 438 456 401 c 0,38,39
 543 337 543 337 543 220 c 0,40,41
 543 104 543 104 458 31 c 0,42,43
 378 -37 378 -37 262 -37 c 0,0,1
EndSplineSet
Validated: 1
EndChar

StartChar: T
Encoding: 84 84 55
Width: 448
GlyphClass: 2
Flags: W
LayerCount: 2
Fore
SplineSet
399 570 m 2,0,-1
 315 560 l 1,1,-1
 374 86 l 2,2,3
 375 78 375 78 375 70 c 0,4,5
 375 30 375 30 350.5 3.5 c 128,-1,6
 326 -23 326 -23 287 -28 c 0,7,8
 244 -33 244 -33 212.5 -9 c 128,-1,9
 181 15 181 15 175 62 c 2,10,-1
 117 535 l 1,11,-1
 33 525 l 2,12,13
 -12 520 -12 520 -41 547 c 0,14,15
 -66 570 -66 570 -70 607 c 0,16,17
 -75 644 -75 644 -53 675.5 c 128,-1,18
 -31 707 -31 707 11 712 c 2,19,-1
 376 757 l 2,20,21
 418 762 418 762 448 736 c 0,22,23
 475 712 475 712 480 675 c 0,24,25
 484 638 484 638 466 609 c 1,26,27
 444 576 444 576 399 570 c 2,0,-1
EndSplineSet
Validated: 33
EndChar

StartChar: U
Encoding: 85 85 56
Width: 689
GlyphClass: 2
Flags: W
LayerCount: 2
Fore
SplineSet
282 -32 m 0,0,1
 161 -13 161 -13 82 75.5 c 128,-1,2
 3 164 3 164 3 283 c 0,3,4
 3 309 3 309 7 335 c 2,5,-1
 63 688 l 2,6,7
 69 729 69 729 96 752 c 128,-1,8
 123 775 123 775 160 775 c 0,9,10
 203 775 203 775 232.5 748 c 128,-1,11
 262 721 262 721 262 677 c 0,12,13
 262 667 262 667 260 657 c 2,14,-1
 206 312 l 2,15,16
 204 297 204 297 204 283 c 0,17,18
 204 227 204 227 239.5 189.5 c 128,-1,19
 275 152 275 152 331 152 c 0,20,21
 380 152 380 152 415.5 186 c 128,-1,22
 451 220 451 220 460 272 c 2,23,-1
 514 616 l 2,24,25
 521 658 521 658 547.5 681 c 128,-1,26
 574 704 574 704 611 704 c 0,27,28
 655 704 655 704 684 676.5 c 128,-1,29
 713 649 713 649 713 605 c 0,30,31
 713 595 713 595 712 585 c 2,32,-1
 656 232 l 2,33,34
 637 113 637 113 545.5 38.5 c 128,-1,35
 454 -36 454 -36 335 -36 c 0,36,37
 309 -36 309 -36 282 -32 c 0,0,1
EndSplineSet
Validated: 1
EndChar

StartChar: V
Encoding: 86 86 57
Width: 541
GlyphClass: 2
Flags: W
LayerCount: 2
Fore
SplineSet
565 651 m 2,0,-1
 446 65 l 2,1,2
 430 -13 430 -13 363 -25 c 0,3,4
 352 -27 352 -27 342 -27 c 0,5,6
 290 -27 290 -27 255 31 c 2,7,-1
 -58 541 l 2,8,9
 -76 571 -76 571 -76 602 c 0,10,11
 -76 642 -76 642 -45 671 c 128,-1,12
 -14 700 -14 700 26 700 c 0,13,14
 75 700 75 700 110 651 c 1,15,-1
 301 325 l 1,16,-1
 370 697 l 1,17,18
 393 777 393 777 466 777 c 0,19,20
 502 777 502 777 530.5 756 c 128,-1,21
 559 735 559 735 566 698 c 0,22,23
 570 674 570 674 565 651 c 2,0,-1
EndSplineSet
Validated: 33
EndChar

StartChar: W
Encoding: 87 87 58
Width: 927
GlyphClass: 2
Flags: W
LayerCount: 2
Fore
SplineSet
649 267 m 1,0,1
 683 367 683 367 776 594 c 1,2,3
 804 667 804 667 871 667 c 0,4,5
 883 667 883 667 896 664 c 0,6,7
 932 657 932 657 953 631 c 128,-1,8
 974 605 974 605 974 573 c 0,9,10
 974 565 974 565 973 557 c 0,11,12
 969 537 969 537 961 519 c 2,13,-1
 732 7 l 2,14,15
 698 -68 698 -68 620 -68 c 0,16,17
 606 -68 606 -68 592 -65 c 0,18,19
 549 -57 549 -57 521 -25 c 128,-1,20
 493 7 493 7 489 47 c 2,21,-1
 455 382 l 1,22,23
 417 295 417 295 306 83 c 1,24,25
 272 15 272 15 194 15 c 0,26,27
 181 15 181 15 168 17 c 0,28,29
 120 27 120 27 92 62 c 0,30,31
 67 94 67 94 66 136 c 2,32,-1
 45 697 l 2,33,34
 44 717 44 717 48 736 c 0,35,36
 54 767 54 767 79.5 788 c 128,-1,37
 105 809 105 809 140 809 c 0,38,39
 150 809 150 809 160 807 c 0,40,41
 244 791 244 791 245 697 c 2,42,-1
 247 346 l 1,43,44
 293 448 293 448 413 680 c 0,45,46
 442 738 442 738 506 738 c 0,47,48
 549 738 549 738 579 710.5 c 128,-1,49
 609 683 609 683 613 641 c 2,50,-1
 649 267 l 1,0,1
EndSplineSet
Validated: 33
EndChar

StartChar: X
Encoding: 88 88 59
Width: 623
GlyphClass: 2
Flags: W
LayerCount: 2
Fore
SplineSet
497 -49 m 0,0,1
 447 -45 447 -45 419 1 c 2,2,-1
 293 213 l 1,3,-1
 133 26 l 2,4,5
 98 -14 98 -14 47 -10 c 0,6,7
 5 -6 5 -6 -22 22.5 c 128,-1,8
 -49 51 -49 51 -45 94 c 0,9,10
 -42 130 -42 130 -18 157 c 2,11,-1
 191 391 l 1,12,-1
 58 609 l 2,13,14
 40 639 40 639 42 669 c 0,15,16
 46 713 46 713 77.5 737.5 c 128,-1,17
 109 762 109 762 151 758 c 0,18,19
 203 753 203 753 232 703 c 2,20,-1
 323 548 l 1,21,-1
 439 685 l 2,22,23
 476 730 476 730 528 725 c 0,24,25
 570 721 570 721 597 691.5 c 128,-1,26
 624 662 624 662 620 619 c 0,27,28
 617 588 617 588 594 562 c 2,29,-1
 426 371 l 1,30,-1
 590 104 l 2,31,32
 609 73 609 73 606 37 c 0,33,34
 603 -6 603 -6 571.5 -29.5 c 128,-1,35
 540 -53 540 -53 497 -49 c 0,0,1
EndSplineSet
Validated: 33
EndChar

StartChar: Y
Encoding: 89 89 60
Width: 466
GlyphClass: 2
Flags: W
LayerCount: 2
Fore
SplineSet
438 694 m 2,0,-1
 375 382 l 1,1,-1
 480 145 l 2,2,3
 490 124 490 124 490 101 c 0,4,5
 490 42 490 42 429 15 c 0,6,7
 405 4 405 4 383 4 c 0,8,9
 324 4 324 4 297 64 c 2,10,-1
 192 300 l 1,11,-1
 -82 462 l 2,12,13
 -132 492 -132 492 -132 550 c 0,14,15
 -132 612 -132 612 -74 638 c 0,16,17
 -53 648 -53 648 -31 648 c 0,18,19
 -4 648 -4 648 18 634 c 2,20,-1
 203 521 l 1,21,-1
 243 735 l 2,22,23
 249 769 249 769 278 791.5 c 128,-1,24
 307 814 307 814 342 814 c 0,25,26
 404 814 404 814 430 756 c 0,27,28
 444 725 444 725 438 694 c 2,0,-1
EndSplineSet
Validated: 33
EndChar

StartChar: Z
Encoding: 90 90 61
Width: 590
GlyphClass: 2
Flags: W
LayerCount: 2
Fore
SplineSet
544 3 m 2,0,-1
 154 -45 l 2,1,2
 145 -47 145 -47 136 -47 c 0,3,4
 94 -47 94 -47 66.5 -24 c 128,-1,5
 39 -1 39 -1 34 38 c 0,6,7
 29 75 29 75 49 113 c 2,8,-1
 291 556 l 1,9,-1
 78 530 l 2,10,11
 39 525 39 525 10 544 c 0,12,13
 -22 565 -22 565 -27 606 c 0,14,15
 -32 645 -32 645 -7 675.5 c 128,-1,16
 18 706 18 706 56 710 c 2,17,-1
 419 755 l 2,18,19
 429 756 429 756 437 756 c 0,20,21
 481 756 481 756 508 731.5 c 128,-1,22
 535 707 535 707 539 672 c 0,23,24
 544 631 544 631 522 591 c 2,25,-1
 282 154 l 1,26,-1
 522 183 l 2,27,28
 563 188 563 188 592 169 c 0,29,30
 624 147 624 147 629 105 c 0,31,32
 634 66 634 66 607.5 36.5 c 128,-1,33
 581 7 581 7 544 3 c 2,0,-1
EndSplineSet
Validated: 33
EndChar

StartChar: bracketleft
Encoding: 91 91 62
Width: 331
GlyphClass: 2
Flags: W
LayerCount: 2
Fore
SplineSet
144 -183 m 2,0,-1
 45 -167 l 2,1,2
 7 -161 7 -161 -15.5 -136 c 128,-1,3
 -38 -111 -38 -111 -38 -74 c 0,4,5
 -38 -65 -38 -65 -37 -56 c 2,6,-1
 78 669 l 2,7,8
 84 707 84 707 109.5 729 c 128,-1,9
 135 751 135 751 171 751 c 0,10,11
 181 751 181 751 190 750 c 2,12,-1
 289 734 l 2,13,14
 355 723 355 723 355 658 c 0,15,16
 355 650 355 650 353 641 c 0,17,18
 342 571 342 571 278 571 c 0,19,20
 271 571 271 571 263 572 c 2,21,-1
 241 575 l 1,22,-1
 148 -17 l 1,23,-1
 169 -21 l 1,24,25
 235 -31 235 -31 235 -96 c 0,26,27
 235 -105 235 -105 234 -114 c 0,28,29
 222 -184 222 -184 158 -184 c 0,30,31
 151 -184 151 -184 144 -183 c 2,0,-1
EndSplineSet
Validated: 1
EndChar

StartChar: backslash
Encoding: 92 92 63
Width: 444
GlyphClass: 2
Flags: W
LayerCount: 2
Fore
SplineSet
387 -9 m 0,0,1
 346 -9 346 -9 319 30 c 1,2,-1
 -51 590 l 2,3,4
 -65 611 -65 611 -68 626 c 0,5,6
 -69 633 -69 633 -69 640 c 0,7,8
 -69 675 -69 675 -42.5 698 c 128,-1,9
 -16 721 -16 721 19 721 c 0,10,11
 62 721 62 721 88 682 c 2,12,-1
 458 121 l 2,13,14
 473 98 473 98 475 86 c 0,15,16
 476 79 476 79 476 72 c 0,17,18
 476 37 476 37 449 14 c 128,-1,19
 422 -9 422 -9 387 -9 c 0,0,1
EndSplineSet
Validated: 1
EndChar

StartChar: bracketright
Encoding: 93 93 64
Width: 292
GlyphClass: 2
Flags: W
LayerCount: 2
Fore
SplineSet
161 -179 m 2,0,-1
 61 -179 l 2,1,2
 28 -179 28 -179 5.5 -158 c 128,-1,3
 -17 -137 -17 -137 -17 -97 c 256,4,5
 -17 -57 -17 -57 5.5 -36 c 128,-1,6
 28 -15 28 -15 61 -15 c 2,7,-1
 83 -15 l 1,8,-1
 83 585 l 1,9,-1
 61 585 l 2,10,11
 28 585 28 585 5.5 606 c 128,-1,12
 -17 627 -17 627 -17 667 c 256,13,14
 -17 707 -17 707 5.5 728 c 128,-1,15
 28 749 28 749 61 749 c 2,16,-1
 161 749 l 2,17,18
 204 749 204 749 231.5 722 c 128,-1,19
 259 695 259 695 259 652 c 2,20,-1
 259 -82 l 2,21,22
 259 -125 259 -125 231.5 -152 c 128,-1,23
 204 -179 204 -179 161 -179 c 2,0,-1
EndSplineSet
Validated: 1
EndChar

StartChar: asciicircum
Encoding: 94 94 65
Width: 549
GlyphClass: 2
Flags: W
LayerCount: 2
Fore
SplineSet
476 290 m 0,0,1
 428 290 428 290 404 324 c 1,2,-1
 300 515 l 1,3,-1
 196 324 l 1,4,5
 172 290 172 290 124 290 c 0,6,7
 94 290 94 290 73 305 c 0,8,9
 48 322 48 322 48 355 c 0,10,11
 48 378 48 378 64 407 c 2,12,-1
 225 700 l 2,13,14
 249 743 249 743 300 743 c 256,15,16
 351 743 351 743 375 700 c 2,17,-1
 536 407 l 2,18,19
 552 378 552 378 552 355 c 0,20,21
 552 322 552 322 527 305 c 0,22,23
 506 290 506 290 476 290 c 0,0,1
EndSplineSet
Validated: 1
EndChar

StartChar: underscore
Encoding: 95 95 66
Width: 517
GlyphClass: 2
Flags: W
LayerCount: 2
Fore
SplineSet
500 -150 m 2,0,-1
 0 -150 l 2,1,2
 -21 -150 -21 -150 -36 -138 c 0,3,4
 -54 -124 -54 -124 -54 -100 c 256,5,6
 -54 -76 -54 -76 -36 -62 c 0,7,8
 -21 -50 -21 -50 0 -50 c 2,9,-1
 500 -50 l 2,10,11
 521 -50 521 -50 537.5 -63 c 128,-1,12
 554 -76 554 -76 554 -100 c 256,13,14
 554 -124 554 -124 537.5 -137 c 128,-1,15
 521 -150 521 -150 500 -150 c 2,0,-1
EndSplineSet
Validated: 1
EndChar

StartChar: grave
Encoding: 96 96 67
Width: 242
GlyphClass: 2
Flags: W
LayerCount: 2
Fore
SplineSet
181 573 m 2,0,-1
 171 573 l 2,1,2
 162 573 162 573 132 585 c 2,3,-1
 20 629 l 2,4,5
 -37 651 -37 651 -37 711 c 0,6,7
 -37 741 -37 741 -14.5 769.5 c 128,-1,8
 8 798 8 798 42 798 c 0,9,10
 60 798 60 798 89 786 c 2,11,-1
 217 733 l 1,12,13
 259 713 259 713 259 671 c 0,14,15
 259 637 259 637 239 607 c 0,16,17
 216 573 216 573 181 573 c 2,0,-1
EndSplineSet
Validated: 1
EndChar

StartChar: a
Encoding: 97 97 68
Width: 584
GlyphClass: 2
Flags: W
LayerCount: 2
Fore
SplineSet
526 19 m 0,0,1
 513 16 513 16 500 16 c 0,2,3
 466 16 466 16 441 42 c 1,4,5
 398 -17 398 -17 327 -33 c 0,6,7
 298 -40 298 -40 269 -40 c 0,8,9
 175 -40 175 -40 101.5 26.5 c 128,-1,10
 28 93 28 93 2 202 c 0,11,12
 -7 242 -7 242 -7 282 c 0,13,14
 -7 383 -7 383 47 459.5 c 128,-1,15
 101 536 101 536 190 557 c 0,16,17
 215 563 215 563 239 563 c 0,18,19
 286 563 286 563 326 542 c 1,20,21
 344 586 344 586 392 598 c 0,22,23
 408 601 408 601 422 601 c 0,24,25
 488 601 488 601 511 503 c 2,26,-1
 591 156 l 2,27,28
 598 124 598 124 598 103 c 0,29,30
 598 35 598 35 526 19 c 0,0,1
187 286 m 0,31,32
 187 266 187 266 191 245 c 0,33,34
 201 202 201 202 227 174 c 128,-1,35
 253 146 253 146 287 146 c 0,36,37
 326 146 326 146 347 177 c 1,38,39
 367 204 367 204 367 245 c 0,40,41
 367 264 367 264 362 285 c 0,42,43
 352 329 352 329 326 357.5 c 128,-1,44
 300 386 300 386 267 386 c 0,45,46
 228 386 228 386 207.5 356.5 c 128,-1,47
 187 327 187 327 187 286 c 0,31,32
EndSplineSet
Validated: 1
EndChar

StartChar: b
Encoding: 98 98 69
Width: 564
GlyphClass: 2
Flags: W
LayerCount: 2
Fore
SplineSet
223 -31 m 0,0,1
 151 -14 151 -14 111 41 c 1,2,3
 86 18 86 18 51 18 c 0,4,5
 39 18 39 18 26 21 c 0,6,7
 -9 29 -9 29 -29 55 c 128,-1,8
 -49 81 -49 81 -49 117 c 0,9,10
 -49 131 -49 131 -45 145 c 2,11,-1
 93 745 l 2,12,13
 102 783 102 783 128 806 c 128,-1,14
 154 829 154 829 188 829 c 0,15,16
 200 829 200 829 211 826 c 0,17,18
 246 818 246 818 266 791.5 c 128,-1,19
 286 765 286 765 286 730 c 0,20,21
 286 716 286 716 282 702 c 2,22,-1
 249 557 l 1,23,24
 305 572 305 572 364 559 c 1,25,26
 460 536 460 536 511 456 c 0,27,28
 555 386 555 386 555 288 c 0,29,30
 555 243 555 243 545 199 c 0,31,32
 522 101 522 101 451 34 c 0,33,34
 375 -37 375 -37 279 -37 c 0,35,36
 251 -37 251 -37 223 -31 c 0,0,1
300 387 m 0,37,38
 290 389 290 389 281 389 c 0,39,40
 248 389 248 389 223 362.5 c 128,-1,41
 198 336 198 336 188 292 c 0,42,43
 183 270 183 270 183 249 c 0,44,45
 183 208 183 208 201 181 c 0,46,47
 223 149 223 149 261 149 c 0,48,49
 306 149 306 149 336 197 c 0,50,51
 362 239 362 239 362 288 c 0,52,53
 362 372 362 372 300 387 c 0,37,38
EndSplineSet
Validated: 33
EndChar

StartChar: c
Encoding: 99 99 70
Width: 485
GlyphClass: 2
Flags: W
LayerCount: 2
Fore
SplineSet
294 -34 m 0,0,1
 169 -41 169 -41 84 45 c 0,2,3
 2 128 2 128 -5 252 c 0,4,5
 -11 374 -11 374 63 467 c 0,6,7
 140 564 140 564 262 571 c 0,8,9
 327 574 327 574 389 550 c 0,10,11
 466 520 466 520 469 465 c 0,12,13
 471 433 471 433 453 404 c 0,14,15
 431 369 431 369 394 367 c 0,16,17
 374 366 374 366 336.5 378 c 128,-1,18
 299 390 299 390 279 389 c 0,19,20
 234 387 234 387 210 351 c 128,-1,21
 186 315 186 315 189 262 c 0,22,23
 192 213 192 213 220.5 179 c 128,-1,24
 249 145 249 145 291 148 c 0,25,26
 310 149 310 149 344.5 165.5 c 128,-1,27
 379 182 379 182 397 183 c 0,28,29
 432 185 432 185 459 160.5 c 128,-1,30
 486 136 486 136 488 100 c 0,31,32
 491 42 491 42 415 2 c 1,33,34
 355 -31 355 -31 294 -34 c 0,0,1
EndSplineSet
Validated: 33
EndChar

StartChar: d
Encoding: 100 100 71
Width: 575
GlyphClass: 2
Flags: W
LayerCount: 2
Fore
SplineSet
425 -46 m 0,0,1
 372 -41 372 -41 349 0 c 1,2,3
 294 -40 294 -40 221 -34 c 0,4,5
 112 -24 112 -24 46 65 c 0,6,7
 -16 147 -16 147 -16 256 c 0,8,9
 -16 377 -16 377 52 469 c 0,10,11
 127 571 127 571 245 571 c 0,12,13
 319 571 319 571 378 533 c 1,14,-1
 391 681 l 2,15,16
 395 726 395 726 424.5 753.5 c 128,-1,17
 454 781 454 781 497 777 c 0,18,19
 539 774 539 774 563.5 741.5 c 128,-1,20
 588 709 588 709 584 664 c 2,21,-1
 530 51 l 2,22,23
 526 6 526 6 496.5 -21.5 c 128,-1,24
 467 -49 467 -49 425 -46 c 0,0,1
277 387 m 0,25,26
 238 390 238 390 211 356.5 c 128,-1,27
 184 323 184 323 179 273 c 0,28,29
 175 224 175 224 196 188 c 1,30,31
 217 149 217 149 256 146 c 0,32,33
 296 142 296 142 323 176 c 128,-1,34
 350 210 350 210 354 263 c 1,35,36
 359 313 359 313 338 348 c 128,-1,37
 317 383 317 383 277 387 c 0,25,26
EndSplineSet
Validated: 33
EndChar

StartChar: e
Encoding: 101 101 72
Width: 582
GlyphClass: 2
Flags: W
LayerCount: 2
Fore
SplineSet
477 261 m 2,0,-1
 218 171 l 1,1,2
 244 145 244 145 285 145 c 0,3,4
 308 145 308 145 333 154 c 0,5,6
 367 166 367 166 407 210 c 128,-1,7
 447 254 447 254 468 262 c 0,8,9
 480 266 480 266 492 266 c 0,10,11
 527 266 527 266 553.5 241 c 128,-1,12
 580 216 580 216 580 182 c 0,13,14
 580 127 580 127 512 65 c 1,15,16
 451 8 451 8 378 -17 c 0,17,18
 326 -35 326 -35 274 -35 c 0,19,20
 181 -35 181 -35 107.5 21 c 128,-1,21
 34 77 34 77 1 173 c 0,22,23
 -17 224 -17 224 -17 279 c 0,24,25
 -17 371 -17 371 30 444 c 0,26,27
 81 522 81 522 169 552 c 0,28,29
 213 567 213 567 258 567 c 0,30,31
 350 567 350 567 429 508 c 0,32,33
 504 453 504 453 531 373 c 0,34,35
 538 353 538 353 538 335 c 0,36,37
 538 282 538 282 477 261 c 2,0,-1
225 392 m 0,38,39
 167 372 167 372 166 308 c 1,40,-1
 323 362 l 1,41,42
 296 397 296 397 256 397 c 0,43,44
 241 397 241 397 225 392 c 0,38,39
EndSplineSet
Validated: 5
EndChar

StartChar: f
Encoding: 102 102 73
Width: 370
GlyphClass: 2
Flags: W
LayerCount: 2
Fore
SplineSet
263 374 m 2,0,-1
 243 375 l 1,1,-1
 221 69 l 2,2,3
 218 24 218 24 189 -4 c 128,-1,4
 160 -32 160 -32 117 -29 c 256,5,6
 74 -26 74 -26 49.5 5.5 c 128,-1,7
 25 37 25 37 28 82 c 2,8,-1
 49 389 l 1,9,-1
 42 389 l 1,10,11
 3 392 3 392 -19.5 417.5 c 128,-1,12
 -42 443 -42 443 -39 483 c 0,13,14
 -37 520 -37 520 -10 543.5 c 128,-1,15
 17 567 17 567 54 565 c 1,16,-1
 61 564 l 1,17,-1
 65 613 l 1,18,19
 71 700 71 700 123 747.5 c 128,-1,20
 175 795 175 795 254 789 c 0,21,22
 378 781 378 781 372 691 c 0,23,24
 366 605 366 605 282 611 c 0,25,26
 259 612 259 612 257 585 c 2,27,-1
 255 551 l 1,28,-1
 275 549 l 1,29,30
 373 542 373 542 367 455 c 0,31,32
 363 410 363 410 333.5 390.5 c 128,-1,33
 304 371 304 371 263 374 c 2,0,-1
EndSplineSet
Validated: 33
EndChar

StartChar: g
Encoding: 103 103 74
Width: 566
GlyphClass: 2
Flags: W
LayerCount: 2
Fore
SplineSet
396 19 m 1,0,1
 361 -23 361 -23 288 -40 c 0,2,3
 258 -46 258 -46 230 -46 c 0,4,5
 114 -46 114 -46 38 62 c 0,6,7
 -30 159 -30 159 -30 279 c 0,8,9
 -30 378 -30 378 19 452 c 0,10,11
 72 532 72 532 166 554 c 0,12,13
 188 559 188 559 211 559 c 0,14,15
 260 559 260 559 298 539 c 1,16,17
 315 582 315 582 366 594 c 0,18,19
 378 597 378 597 389 597 c 0,20,21
 424 597 424 597 450 574 c 128,-1,22
 476 551 476 551 484 514 c 2,23,-1
 578 108 l 2,24,25
 588 67 588 67 588 28 c 0,26,27
 588 -74 588 -74 523.5 -143 c 128,-1,28
 459 -212 459 -212 348 -237 c 0,29,30
 316 -245 316 -245 267 -245 c 0,31,32
 198 -245 198 -245 147 -228 c 0,33,34
 71 -204 71 -204 71 -149 c 0,35,36
 71 -121 71 -121 88.5 -93.5 c 128,-1,37
 106 -66 106 -66 133 -60 c 0,38,39
 146 -57 146 -57 161 -57 c 0,40,41
 177 -57 177 -57 214.5 -62.5 c 128,-1,42
 252 -68 252 -68 274 -68 c 0,43,44
 298 -68 298 -68 319 -63 c 0,45,46
 395 -46 395 -46 396 19 c 1,0,1
163 283 m 0,47,48
 163 264 163 264 168 245 c 0,49,50
 191 143 191 143 262 143 c 0,51,52
 301 143 301 143 324 173 c 0,53,54
 344 199 344 199 344 240 c 0,55,56
 344 259 344 259 339 279 c 0,57,58
 329 325 329 325 303 354 c 128,-1,59
 277 383 277 383 243 383 c 0,60,61
 204 383 204 383 183 351 c 1,62,63
 163 323 163 323 163 283 c 0,47,48
EndSplineSet
Validated: 5
EndChar

StartChar: h
Encoding: 104 104 75
Width: 539
GlyphClass: 2
Flags: W
LayerCount: 2
Fore
SplineSet
248 555 m 1,0,1
 293 570 293 570 359 555 c 0,2,3
 438 537 438 537 485.5 482 c 128,-1,4
 533 427 533 427 533 350 c 0,5,6
 533 322 533 322 526 292 c 2,7,-1
 464 23 l 2,8,9
 455 -15 455 -15 429 -37.5 c 128,-1,10
 403 -60 403 -60 369 -60 c 0,11,12
 358 -60 358 -60 346 -58 c 0,13,14
 311 -50 311 -50 291.5 -23.5 c 128,-1,15
 272 3 272 3 272 38 c 0,16,17
 272 52 272 52 275 67 c 2,18,-1
 331 311 l 2,19,20
 334 324 334 324 334 335 c 0,21,22
 334 365 334 365 313.5 383 c 128,-1,23
 293 401 293 401 263 401 c 0,24,25
 213 401 213 401 199 342 c 2,26,-1
 142 97 l 2,27,28
 134 60 134 60 108 37 c 128,-1,29
 82 14 82 14 47 14 c 0,30,31
 36 14 36 14 24 17 c 0,32,33
 -10 25 -10 25 -30 51 c 128,-1,34
 -50 77 -50 77 -50 112 c 0,35,36
 -50 126 -50 126 -47 141 c 2,37,-1
 92 741 l 2,38,39
 101 779 101 779 127 801.5 c 128,-1,40
 153 824 153 824 187 824 c 0,41,42
 198 824 198 824 210 822 c 0,43,44
 245 814 245 814 264.5 787.5 c 128,-1,45
 284 761 284 761 284 726 c 0,46,47
 284 712 284 712 281 697 c 2,48,-1
 248 555 l 1,0,1
EndSplineSet
Validated: 33
EndChar

StartChar: i
Encoding: 105 105 76
Width: 234
GlyphClass: 2
Flags: W
LayerCount: 2
Fore
SplineSet
101 567 m 1,0,1
 58 564 58 564 25 595 c 128,-1,2
 -8 626 -8 626 -11 669 c 0,3,4
 -13 710 -13 710 17.5 743 c 128,-1,5
 48 776 48 776 90 778 c 0,6,7
 132 781 132 781 165.5 751.5 c 128,-1,8
 199 722 199 722 201 680 c 0,9,10
 203 636 203 636 174 602.5 c 128,-1,11
 145 569 145 569 101 567 c 1,0,1
132 -30 m 0,12,13
 89 -33 89 -33 60.5 -4.5 c 128,-1,14
 32 24 32 24 30 69 c 2,15,-1
 10 453 l 2,16,17
 7 498 7 498 32.5 529 c 128,-1,18
 58 560 58 560 101 563 c 0,19,20
 144 565 144 565 172.5 536.5 c 128,-1,21
 201 508 201 508 203 463 c 2,22,-1
 224 79 l 2,23,24
 226 34 226 34 200.5 3 c 128,-1,25
 175 -28 175 -28 132 -30 c 0,12,13
EndSplineSet
Validated: 33
EndChar

StartChar: j
Encoding: 106 106 77
Width: 238
GlyphClass: 2
Flags: W
LayerCount: 2
Fore
SplineSet
137 566 m 0,0,1
 94 570 94 570 65.5 605 c 128,-1,2
 37 640 37 640 41 683 c 0,3,4
 44 724 44 724 78.5 752.5 c 128,-1,5
 113 781 113 781 156 777 c 0,6,7
 198 773 198 773 227 739.5 c 128,-1,8
 256 706 256 706 252 664 c 0,9,10
 248 620 248 620 214.5 591 c 128,-1,11
 181 562 181 562 137 566 c 0,0,1
66 -241 m 0,12,13
 24 -237 24 -237 -0.5 -205 c 128,-1,14
 -25 -173 -25 -173 -21 -128 c 2,15,-1
 31 466 l 2,16,17
 35 511 35 511 64.5 538.5 c 128,-1,18
 94 566 94 566 137 562 c 256,19,20
 180 558 180 558 204 526 c 128,-1,21
 228 494 228 494 224 449 c 2,22,-1
 172 -145 l 2,23,24
 168 -190 168 -190 138.5 -217.5 c 128,-1,25
 109 -245 109 -245 66 -241 c 0,12,13
EndSplineSet
Validated: 33
EndChar

StartChar: k
Encoding: 107 107 78
Width: 601
GlyphClass: 2
Flags: W
LayerCount: 2
Fore
SplineSet
270 177 m 1,0,1
 289 139 289 139 313 71 c 0,2,3
 321 51 321 51 321 30 c 0,4,5
 321 -37 321 -37 255 -60 c 0,6,7
 239 -66 239 -66 223 -66 c 0,8,9
 154 -66 154 -66 129 8 c 2,10,-1
 -71 590 l 2,11,12
 -78 610 -78 610 -78 630 c 0,13,14
 -78 699 -78 699 -14 721 c 0,15,16
 2 727 2 727 19 727 c 0,17,18
 87 727 87 727 112 653 c 2,19,-1
 202 391 l 1,20,-1
 275 535 l 2,21,22
 309 602 309 602 367 602 c 0,23,24
 404 602 404 602 430.5 574 c 128,-1,25
 457 546 457 546 457 509 c 0,26,27
 457 484 457 484 441 457 c 2,28,-1
 370 329 l 1,29,-1
 573 209 l 2,30,31
 621 181 621 181 621 126 c 0,32,33
 621 60 621 60 559 38 c 0,34,35
 545 34 545 34 531 34 c 0,36,37
 500 34 500 34 458 60 c 2,38,-1
 270 177 l 1,0,1
EndSplineSet
Validated: 1
EndChar

StartChar: l
Encoding: 108 108 79
Width: 231
GlyphClass: 2
Flags: W
LayerCount: 2
Fore
SplineSet
82 -30 m 256,0,1
 39 -27 39 -27 14.5 4.5 c 128,-1,2
 -10 36 -10 36 -7 82 c 2,3,-1
 36 696 l 2,4,5
 39 741 39 741 68 769 c 128,-1,6
 97 797 97 797 140 794 c 256,7,8
 183 791 183 791 207.5 759.5 c 128,-1,9
 232 728 232 728 229 682 c 2,10,-1
 186 68 l 2,11,12
 183 23 183 23 154 -5 c 128,-1,13
 125 -33 125 -33 82 -30 c 256,0,1
EndSplineSet
Validated: 33
EndChar

StartChar: m
Encoding: 109 109 80
Width: 876
GlyphClass: 2
Flags: W
LayerCount: 2
Fore
SplineSet
798 47 m 0,0,1
 787 44 787 44 775 44 c 0,2,3
 741 44 741 44 715 67 c 128,-1,4
 689 90 689 90 680 128 c 2,5,-1
 624 372 l 2,6,7
 610 433 610 433 564 433 c 0,8,9
 537 433 537 433 521 415.5 c 128,-1,10
 505 398 505 398 505 371 c 0,11,12
 505 359 505 359 508 345 c 2,13,-1
 564 101 l 2,14,15
 568 86 568 86 568 72 c 0,16,17
 568 37 568 37 548 11 c 128,-1,18
 528 -15 528 -15 493 -23 c 0,19,20
 482 -26 482 -26 470 -26 c 0,21,22
 436 -26 436 -26 410 -3 c 128,-1,23
 384 20 384 20 375 57 c 2,24,-1
 319 302 l 2,25,26
 305 362 305 362 259 362 c 0,27,28
 199 362 199 362 199 304 c 0,29,30
 199 291 199 291 203 275 c 2,31,-1
 259 30 l 2,32,33
 263 16 263 16 263 2 c 0,34,35
 263 -33 263 -33 243 -59.5 c 128,-1,36
 223 -86 223 -86 189 -94 c 0,37,38
 177 -96 177 -96 165 -96 c 0,39,40
 131 -96 131 -96 105 -73.5 c 128,-1,41
 79 -51 79 -51 70 -13 c 2,42,-1
 -16 361 l 2,43,44
 -19 375 -19 375 -19 389 c 0,45,46
 -19 425 -19 425 0.5 451 c 128,-1,47
 20 477 20 477 55 485 c 0,48,49
 68 488 68 488 80 488 c 0,50,51
 114 488 114 488 137 467 c 1,52,53
 198 542 198 542 298 542 c 0,54,55
 357 542 357 542 408 510 c 1,56,57
 462 585 462 585 542 604 c 0,58,59
 574 611 574 611 605 611 c 0,60,61
 680 611 680 611 734 567 c 128,-1,62
 788 523 788 523 807 440 c 2,63,-1
 869 171 l 2,64,65
 873 157 873 157 873 143 c 0,66,67
 873 107 873 107 853 81 c 128,-1,68
 833 55 833 55 798 47 c 0,0,1
EndSplineSet
Validated: 1
EndChar

StartChar: n
Encoding: 110 110 81
Width: 571
GlyphClass: 2
Flags: W
LayerCount: 2
Fore
SplineSet
371 -60 m 0,0,1
 337 -52 337 -52 317 -26 c 128,-1,2
 297 0 297 0 297 35 c 0,3,4
 297 49 297 49 300 64 c 2,5,-1
 357 308 l 2,6,7
 360 321 360 321 360 333 c 0,8,9
 360 363 360 363 339 380.5 c 128,-1,10
 318 398 318 398 288 398 c 0,11,12
 238 398 238 398 224 339 c 2,13,-1
 168 94 l 2,14,15
 159 57 159 57 133 34 c 128,-1,16
 107 11 107 11 73 11 c 0,17,18
 61 11 61 11 50 14 c 0,19,20
 15 22 15 22 -4.5 48 c 128,-1,21
 -24 74 -24 74 -24 109 c 0,22,23
 -24 124 -24 124 -21 138 c 2,24,-1
 65 512 l 2,25,26
 74 550 74 550 100 572.5 c 128,-1,27
 126 595 126 595 160 595 c 0,28,29
 224 595 224 595 248 544 c 1,30,31
 281 560 281 560 323 560 c 0,32,33
 351 560 351 560 384 552 c 0,34,35
 463 534 463 534 510.5 479 c 128,-1,36
 558 424 558 424 558 347 c 0,37,38
 558 319 558 319 552 289 c 2,39,-1
 489 20 l 2,40,41
 481 -18 481 -18 455 -40.5 c 128,-1,42
 429 -63 429 -63 394 -63 c 0,43,44
 383 -63 383 -63 371 -60 c 0,0,1
EndSplineSet
Validated: 1
EndChar

StartChar: o
Encoding: 111 111 82
Width: 574
GlyphClass: 2
Flags: W
LayerCount: 2
Fore
SplineSet
294 -37 m 0,0,1
 169 -43 169 -43 84 43 c 0,2,3
 2 126 2 126 -5 250 c 0,4,5
 -11 372 -11 372 63 465 c 0,6,7
 140 562 140 562 262 569 c 1,8,9
 385 575 385 575 471 486 c 1,10,11
 554 402 554 402 561 280 c 1,12,13
 567 155 567 155 495 65 c 0,14,15
 419 -30 419 -30 294 -37 c 0,0,1
272 387 m 256,16,17
 231 385 231 385 208.5 348.5 c 128,-1,18
 186 312 186 312 189 260 c 0,19,20
 192 210 192 210 218 176.5 c 128,-1,21
 244 143 244 143 284 145 c 0,22,23
 325 147 325 147 347.5 183 c 128,-1,24
 370 219 370 219 367 270 c 256,25,26
 364 321 364 321 338.5 355 c 128,-1,27
 313 389 313 389 272 387 c 256,16,17
EndSplineSet
Validated: 33
EndChar

StartChar: p
Encoding: 112 112 83
Width: 589
GlyphClass: 2
Flags: W
LayerCount: 2
Fore
SplineSet
299 -38 m 0,0,1
 244 -33 244 -33 195 -1 c 1,2,-1
 184 -129 l 2,3,4
 180 -174 180 -174 150.5 -201.5 c 128,-1,5
 121 -229 121 -229 78 -225 c 0,6,7
 36 -222 36 -222 11.5 -189.5 c 128,-1,8
 -13 -157 -13 -157 -9 -112 c 2,9,-1
 43 481 l 2,10,11
 47 526 47 526 76.5 553.5 c 128,-1,12
 106 581 106 581 149 578 c 1,13,14
 201 573 201 573 224 532 c 1,15,16
 279 572 279 572 357 565 c 0,17,18
 470 555 470 555 533 463 c 0,19,20
 588 382 588 382 588 269 c 0,21,22
 588 142 588 142 510 50 c 0,23,24
 425 -49 425 -49 299 -38 c 0,0,1
318 386 m 0,25,26
 277 390 277 390 250.5 359 c 128,-1,27
 224 328 224 328 220 277 c 0,28,29
 215 225 215 225 235.5 187 c 128,-1,30
 256 149 256 149 296 145 c 0,31,32
 335 142 335 142 362 175 c 128,-1,33
 389 208 389 208 394 257 c 1,34,35
 398 307 398 307 377 345 c 128,-1,36
 356 383 356 383 318 386 c 0,25,26
EndSplineSet
Validated: 33
EndChar

StartChar: q
Encoding: 113 113 84
Width: 604
GlyphClass: 2
Flags: W
LayerCount: 2
Fore
SplineSet
583 -161 m 0,0,1
 567 -166 567 -166 551 -166 c 0,2,3
 482 -166 482 -166 457 -93 c 2,4,-1
 415 28 l 1,5,6
 347 -46 347 -46 244 -46 c 0,7,8
 155 -46 155 -46 80 16 c 0,9,10
 9 74 9 74 -21 162 c 0,11,12
 -43 225 -43 225 -43 290 c 0,13,14
 -43 375 -43 375 -5 439 c 0,15,16
 38 510 38 510 121 539 c 0,17,18
 156 551 156 551 193 551 c 0,19,20
 229 551 229 551 259 539 c 1,21,22
 271 584 271 584 321 601 c 0,23,24
 337 607 337 607 353 607 c 0,25,26
 421 607 421 607 447 534 c 2,27,-1
 641 -30 l 2,28,29
 648 -50 648 -50 648 -70 c 0,30,31
 648 -139 648 -139 583 -161 c 0,0,1
203 375 m 0,32,33
 151 357 151 357 151 286 c 0,34,35
 151 259 151 259 161 231 c 0,36,37
 174 192 174 192 201 167 c 128,-1,38
 228 142 228 142 259 142 c 0,39,40
 271 142 271 142 282 146 c 0,41,42
 335 164 335 164 335 233 c 0,43,44
 335 262 335 262 324 293 c 0,45,46
 295 379 295 379 229 379 c 0,47,48
 216 379 216 379 203 375 c 0,32,33
EndSplineSet
Validated: 1
EndChar

StartChar: r
Encoding: 114 114 85
Width: 382
GlyphClass: 2
Flags: W
LayerCount: 2
Fore
SplineSet
214 525 m 1,0,1
 246 560 246 560 307 556 c 0,2,3
 345 553 345 553 370 526 c 1,4,5
 397 495 397 495 394 448 c 0,6,7
 391 404 391 404 345 382 c 1,8,9
 302 367 302 367 259 352 c 1,10,11
 213 332 213 332 210 294 c 2,12,-1
 195 74 l 2,13,14
 191 29 191 29 162 1 c 128,-1,15
 133 -27 133 -27 90 -24 c 0,16,17
 48 -21 48 -21 23 10.5 c 128,-1,18
 -2 42 -2 42 1 87 c 2,19,-1
 28 478 l 2,20,21
 32 524 32 524 66 549 c 0,22,23
 96 571 96 571 134 568 c 0,24,25
 193 564 193 564 214 525 c 1,0,1
EndSplineSet
Validated: 33
EndChar

StartChar: s
Encoding: 115 115 86
Width: 466
GlyphClass: 2
Flags: W
LayerCount: 2
Fore
SplineSet
279 -30 m 0,0,1
 248 -37 248 -37 209 -37 c 0,2,3
 145 -37 145 -37 95 -16 c 1,4,5
 27 11 27 11 27 67 c 0,6,7
 27 96 27 96 42 121 c 0,8,9
 60 151 60 151 93 158 c 0,10,11
 106 161 106 161 119 161 c 0,12,13
 139 161 139 161 173.5 151 c 128,-1,14
 208 141 208 141 227 141 c 0,15,16
 238 141 238 141 249 144 c 0,17,18
 281 151 281 151 277 167 c 0,19,20
 275 175 275 175 207 184 c 0,21,22
 122 194 122 194 76 216 c 0,23,24
 1 251 1 251 -16 326 c 0,25,26
 -22 349 -22 349 -22 371 c 0,27,28
 -22 461 -22 461 55 518 c 0,29,30
 125 570 125 570 218 570 c 0,31,32
 281 570 281 570 326 548 c 0,33,34
 386 520 386 520 386 464 c 0,35,36
 386 429 386 429 363 403 c 128,-1,37
 340 377 340 377 307 377 c 0,38,39
 292 377 292 377 257 384.5 c 128,-1,40
 222 392 222 392 205 392 c 0,41,42
 182 392 182 392 171 384 c 0,43,44
 164 379 164 379 166 370 c 256,45,46
 168 361 168 361 237 353 c 0,47,48
 322 342 322 342 368 321 c 0,49,50
 443 285 443 285 460 211 c 0,51,52
 465 190 465 190 465 169 c 0,53,54
 465 98 465 98 414.5 44 c 128,-1,55
 364 -10 364 -10 279 -30 c 0,0,1
EndSplineSet
Validated: 33
EndChar

StartChar: t
Encoding: 116 116 87
Width: 372
GlyphClass: 2
Flags: W
LayerCount: 2
Fore
SplineSet
266 356 m 2,0,-1
 251 360 l 1,1,-1
 182 61 l 2,2,3
 173 23 173 23 147 0.5 c 128,-1,4
 121 -22 121 -22 86 -22 c 0,5,6
 75 -22 75 -22 63 -20 c 0,7,8
 29 -12 29 -12 9 14.5 c 128,-1,9
 -11 41 -11 41 -11 76 c 0,10,11
 -11 90 -11 90 -8 104 c 2,12,-1
 62 404 l 1,13,-1
 55 405 l 1,14,15
 -14 421 -14 421 -14 487 c 0,16,17
 -14 499 -14 499 -11 511 c 0,18,19
 -4 542 -4 542 19.5 560.5 c 128,-1,20
 43 579 43 579 73 579 c 0,21,22
 84 579 84 579 94 577 c 2,23,-1
 101 575 l 1,24,-1
 115 635 l 2,25,26
 124 672 124 672 149.5 695 c 128,-1,27
 175 718 175 718 210 718 c 0,28,29
 221 718 221 718 233 715 c 0,30,31
 268 707 268 707 287.5 681 c 128,-1,32
 307 655 307 655 307 619 c 0,33,34
 307 605 307 605 304 591 c 2,35,-1
 290 531 l 1,36,-1
 306 528 l 1,37,38
 380 511 380 511 380 445 c 0,39,40
 380 434 380 434 378 421 c 1,41,42
 362 353 362 353 293 353 c 0,43,44
 280 353 280 353 266 356 c 2,0,-1
EndSplineSet
Validated: 1
EndChar

StartChar: u
Encoding: 117 117 88
Width: 564
GlyphClass: 2
Flags: W
LayerCount: 2
Fore
SplineSet
294 -37 m 0,0,1
 172 -43 172 -43 98.5 16.5 c 128,-1,2
 25 76 25 76 20 184 c 2,3,-1
 6 444 l 2,4,5
 4 489 4 489 29.5 520.5 c 128,-1,6
 55 552 55 552 98 554 c 0,7,8
 140 556 140 556 169 527.5 c 128,-1,9
 198 499 198 499 200 454 c 2,10,-1
 213 198 l 2,11,12
 215 166 215 166 235.5 149 c 128,-1,13
 256 132 256 132 285 133 c 1,14,15
 313 135 313 135 332 154 c 128,-1,16
 351 173 351 173 349 205 c 2,17,-1
 336 461 l 2,18,19
 333 506 333 506 358.5 537.5 c 128,-1,20
 384 569 384 569 427 571 c 256,21,22
 470 573 470 573 498.5 545 c 128,-1,23
 527 517 527 517 529 471 c 2,24,-1
 543 212 l 2,25,26
 549 103 549 103 482.5 36.5 c 128,-1,27
 416 -30 416 -30 294 -37 c 0,0,1
EndSplineSet
Validated: 33
EndChar

StartChar: v
Encoding: 118 118 89
Width: 494
GlyphClass: 2
Flags: W
LayerCount: 2
Fore
SplineSet
234 271 m 1,0,1
 258 340 258 340 320 488 c 1,2,3
 346 554 346 554 413 548 c 0,4,5
 453 545 453 545 479 519 c 0,6,7
 509 489 509 489 505 445 c 0,8,9
 503 421 503 421 490 395 c 2,10,-1
 313 37 l 2,11,12
 277 -36 277 -36 205 -30 c 0,13,14
 134 -24 134 -24 111 55 c 2,15,-1
 -1 438 l 2,16,17
 -9 466 -9 466 -7 490 c 0,18,19
 -4 534 -4 534 30 558 c 0,20,21
 61 579 61 579 100 576 c 0,22,23
 166 570 166 570 182 500 c 2,24,-1
 234 271 l 1,0,1
EndSplineSet
Validated: 33
EndChar

StartChar: w
Encoding: 119 119 90
Width: 734
GlyphClass: 2
Flags: W
LayerCount: 2
Fore
SplineSet
537 330 m 1,0,1
 529 401 529 401 523 547 c 1,2,3
 518 625 518 625 585 648 c 0,4,5
 604 654 604 654 621 654 c 0,6,7
 686 654 686 654 708 589 c 0,8,9
 714 572 714 572 714 526 c 2,10,-1
 710 157 l 1,11,12
 710 62 710 62 635 37 c 0,13,14
 616 30 616 30 597 30 c 0,15,16
 545 30 545 30 507 82 c 2,17,-1
 401 223 l 1,18,19
 407 163 407 163 410 48 c 1,20,21
 414 -39 414 -39 336 -66 c 0,22,23
 317 -73 317 -73 299 -73 c 0,24,25
 246 -73 246 -73 203 -17 c 1,26,-1
 -25 269 l 2,27,28
 -56 308 -56 308 -65 336 c 1,29,30
 -70 348 -70 348 -70 361 c 0,31,32
 -70 397 -70 397 -38.5 424 c 128,-1,33
 -7 451 -7 451 30 451 c 0,34,35
 77 451 77 451 110 405 c 2,36,-1
 238 228 l 1,37,38
 231 297 231 297 227 439 c 1,39,40
 222 523 222 523 292 547 c 0,41,42
 310 553 310 553 327 553 c 0,43,44
 373 553 373 553 410 502 c 2,45,-1
 537 330 l 1,0,1
EndSplineSet
Validated: 33
EndChar

StartChar: x
Encoding: 120 120 91
Width: 527
GlyphClass: 2
Flags: W
LayerCount: 2
Fore
SplineSet
408 -43 m 0,0,1
 362 -40 362 -40 332 4 c 2,2,-1
 241 133 l 1,3,-1
 133 18 l 2,4,5
 96 -21 96 -21 51 -18 c 0,6,7
 9 -15 9 -15 -16 13.5 c 128,-1,8
 -41 42 -41 42 -38 84 c 0,9,10
 -35 128 -35 128 47 210 c 1,11,12
 91 248 91 248 134 287 c 1,13,14
 99 329 99 329 64 370 c 1,15,16
 9 444 9 444 12 485 c 0,17,18
 14 524 14 524 48 550 c 1,19,20
 79 576 79 576 117 573 c 0,21,22
 160 570 160 570 187 531 c 2,23,-1
 261 424 l 1,24,-1
 349 519 l 2,25,26
 382 555 382 555 424 552 c 0,27,28
 462 549 462 549 490.5 519 c 128,-1,29
 519 489 519 489 516 450 c 1,30,31
 514 409 514 409 449 343 c 1,32,33
 408 307 408 307 368 271 c 1,34,35
 405 226 405 226 443 182 c 1,36,37
 513 90 513 90 510 45 c 0,38,39
 507 3 507 3 478.5 -21.5 c 128,-1,40
 450 -46 450 -46 408 -43 c 0,0,1
EndSplineSet
Validated: 33
EndChar

StartChar: y
Encoding: 121 121 92
Width: 437
GlyphClass: 2
Flags: W
LayerCount: 2
Fore
SplineSet
432 481 m 2,0,-1
 332 -158 l 2,1,2
 320 -235 320 -235 260 -249 c 0,3,4
 245 -253 245 -253 231 -253 c 0,5,6
 198 -253 198 -253 173.5 -234.5 c 128,-1,7
 149 -216 149 -216 143 -187 c 0,8,9
 140 -176 140 -176 140 -159 c 0,10,11
 140 -119 140 -119 153 -46 c 0,12,13
 160 -12 160 -12 166 22 c 1,14,-1
 -72 365 l 2,15,16
 -93 395 -93 395 -93 425 c 0,17,18
 -93 457 -93 457 -69 483 c 0,19,20
 -48 507 -48 507 -20 513 c 0,21,22
 -7 516 -7 516 5 516 c 0,23,24
 57 516 57 516 88 469 c 2,25,-1
 209 283 l 1,26,-1
 242 505 l 2,27,28
 248 543 248 543 274.5 568.5 c 128,-1,29
 301 594 301 594 338 594 c 0,30,31
 369 594 369 594 394 578 c 0,32,33
 423 559 423 559 430 528 c 0,34,35
 436 504 436 504 432 481 c 2,0,-1
EndSplineSet
Validated: 33
EndChar

StartChar: z
Encoding: 122 122 93
Width: 524
GlyphClass: 2
Flags: W
LayerCount: 2
Fore
SplineSet
335 -55 m 2,0,-1
 9 21 l 2,1,2
 -58 36 -58 36 -58 94 c 0,3,4
 -58 132 -58 132 -27 160 c 2,5,-1
 228 387 l 1,6,-1
 113 413 l 2,7,8
 82 421 82 421 62 443.5 c 128,-1,9
 42 466 42 466 42 497 c 0,10,11
 42 508 42 508 45 519 c 0,12,13
 61 588 61 588 130 588 c 0,14,15
 141 588 141 588 152 585 c 2,16,-1
 471 511 l 2,17,18
 528 498 528 498 528 446 c 0,19,20
 528 437 528 437 526 427 c 0,21,22
 519 398 519 398 493 375 c 2,23,-1
 237 149 l 1,24,-1
 375 117 l 2,25,26
 406 110 406 110 425.5 87.5 c 128,-1,27
 445 65 445 65 445 33 c 0,28,29
 445 22 445 22 443 11 c 0,30,31
 427 -57 427 -57 358 -57 c 0,32,33
 347 -57 347 -57 335 -55 c 2,0,-1
EndSplineSet
Validated: 1
EndChar

StartChar: braceleft
Encoding: 123 123 94
Width: 347
GlyphClass: 2
Flags: W
LayerCount: 2
Fore
SplineSet
189 286 m 1,0,1
 238 262 238 262 242 187 c 2,2,-1
 252 -1 l 2,3,4
 254 -34 254 -34 273 -33 c 2,5,-1
 298 -32 l 2,6,7
 328 -31 328 -31 349 -48.5 c 128,-1,8
 370 -66 370 -66 371 -98 c 0,9,10
 373 -131 373 -131 354 -150.5 c 128,-1,11
 335 -170 335 -170 305 -172 c 2,12,-1
 243 -175 l 2,13,14
 85 -183 85 -183 77 -28 c 2,15,-1
 67 166 l 2,16,17
 65 199 65 199 40 208 c 1,18,19
 17 213 17 213 -7 219 c 1,20,21
 -32 231 -32 231 -35 275 c 0,22,23
 -36 304 -36 304 -20 325 c 0,24,25
 0 350 0 350 34 352 c 0,26,27
 57 353 57 353 55 394 c 2,28,-1
 45 588 l 2,29,30
 37 743 37 743 195 752 c 1,31,-1
 257 755 l 2,32,33
 287 756 287 756 307.5 738.5 c 128,-1,34
 328 721 328 721 330 689 c 0,35,36
 332 656 332 656 313 636.5 c 128,-1,37
 294 617 294 617 264 615 c 2,38,-1
 239 614 l 2,39,40
 220 613 220 613 222 580 c 2,41,-1
 232 391 l 2,42,43
 235 319 235 319 189 286 c 1,0,1
EndSplineSet
Validated: 33
EndChar

StartChar: bar
Encoding: 124 124 95
Width: 235
GlyphClass: 2
Flags: W
LayerCount: 2
Fore
SplineSet
60 -333 m 0,0,1
 22 -329 22 -329 0.5 -303.5 c 128,-1,2
 -21 -278 -21 -278 -17 -241 c 2,3,-1
 70 756 l 2,4,5
 73 793 73 793 98.5 814.5 c 128,-1,6
 124 836 124 836 162 833 c 0,7,8
 200 829 200 829 221.5 803.5 c 128,-1,9
 243 778 243 778 239 741 c 2,10,-1
 152 -256 l 2,11,12
 149 -293 149 -293 123.5 -314.5 c 128,-1,13
 98 -336 98 -336 60 -333 c 0,0,1
EndSplineSet
Validated: 33
EndChar

StartChar: braceright
Encoding: 125 125 96
Width: 374
GlyphClass: 2
Flags: W
LayerCount: 2
Fore
SplineSet
145 275 m 1,0,1
 92 285 92 285 67 356 c 2,2,-1
 6 534 l 2,3,4
 -5 566 -5 566 -23 559 c 2,5,-1
 -47 551 l 2,6,7
 -60 547 -60 547 -73 547 c 0,8,9
 -119 547 -119 547 -136 595 c 0,10,11
 -140 608 -140 608 -140 621 c 0,12,13
 -140 667 -140 667 -92 684 c 2,14,-1
 -34 704 l 2,15,16
 3 717 3 717 35 717 c 0,17,18
 129 717 129 717 166 608 c 2,19,-1
 230 424 l 2,20,21
 241 391 241 391 256 391 c 0,22,23
 260 391 260 391 271.5 394.5 c 128,-1,24
 283 398 283 398 291 398 c 0,25,26
 321 398 321 398 341.5 375 c 128,-1,27
 362 352 362 352 362 322 c 0,28,29
 362 272 362 272 312 255 c 0,30,31
 298 250 298 250 298 236 c 0,32,33
 298 226 298 226 304 209 c 2,34,-1
 367 25 l 2,35,36
 379 -11 379 -11 379 -41 c 0,37,38
 379 -135 379 -135 268 -174 c 2,39,-1
 210 -194 l 2,40,41
 197 -198 197 -198 184 -198 c 0,42,43
 137 -198 137 -198 121 -150 c 0,44,45
 116 -137 116 -137 116 -124 c 0,46,47
 116 -78 116 -78 164 -61 c 2,48,-1
 188 -53 l 2,49,50
 200 -49 200 -49 200 -38 c 0,51,52
 200 -30 200 -30 195 -16 c 2,53,-1
 134 163 l 2,54,55
 124 190 124 190 124 213 c 0,56,57
 124 248 124 248 145 275 c 1,0,1
EndSplineSet
Validated: 33
EndChar

StartChar: asciitilde
Encoding: 126 126 97
Width: 592
GlyphClass: 2
Flags: W
LayerCount: 2
Fore
SplineSet
398 127 m 0,0,1
 354 130 354 130 282 169 c 128,-1,2
 210 208 210 208 192 209 c 0,3,4
 173 211 173 211 139.5 182.5 c 128,-1,5
 106 154 106 154 77 156 c 0,6,7
 41 159 41 159 25 186 c 0,8,9
 12 207 12 207 14 235 c 0,10,11
 18 295 18 295 68 338 c 0,12,13
 123 385 123 385 202 379 c 0,14,15
 246 376 246 376 318 337 c 128,-1,16
 390 298 390 298 408 297 c 0,17,18
 427 295 427 295 460.5 323.5 c 128,-1,19
 494 352 494 352 523 350 c 0,20,21
 559 347 559 347 575 320 c 0,22,23
 588 299 588 299 586 271 c 0,24,25
 582 211 582 211 532 168 c 0,26,27
 477 121 477 121 398 127 c 0,0,1
EndSplineSet
Validated: 33
EndChar

StartChar: exclamdown
Encoding: 161 161 98
Width: 338
GlyphClass: 2
Flags: W
LayerCount: 2
Fore
SplineSet
129 459 m 0,0,1
 129 501 129 501 159 531.5 c 128,-1,2
 189 562 189 562 232 562 c 256,3,4
 275 562 275 562 305 531.5 c 128,-1,5
 335 501 335 501 335 459 c 0,6,7
 335 416 335 416 305 386 c 128,-1,8
 275 356 275 356 232 356 c 0,9,10
 190 356 190 356 159.5 386 c 128,-1,11
 129 416 129 416 129 459 c 0,0,1
2 -118 m 0,12,13
 2 -106 2 -106 5 -94 c 2,14,-1
 92 281 l 2,15,16
 108 352 108 352 182 352 c 0,17,18
 223 352 223 352 253 326 c 128,-1,19
 283 300 283 300 283 259 c 0,20,21
 283 248 283 248 281 237 c 2,22,-1
 194 -138 l 2,23,24
 186 -172 186 -172 160.5 -191 c 128,-1,25
 135 -210 135 -210 103 -210 c 0,26,27
 62 -210 62 -210 32 -184 c 128,-1,28
 2 -158 2 -158 2 -118 c 0,12,13
EndSplineSet
Validated: 1
EndChar

StartChar: cent
Encoding: 162 162 99
Width: 511
GlyphClass: 2
Flags: W
LayerCount: 2
Fore
SplineSet
411 7 m 1,0,1
 419 -17 419 -17 419 -33 c 0,2,3
 419 -66 419 -66 385 -78 c 0,4,5
 374 -81 374 -81 365 -81 c 0,6,7
 331 -81 331 -81 312 -26 c 1,8,-1
 311 -21 l 1,9,10
 293 -23 293 -23 276 -23 c 0,11,12
 184 -23 184 -23 112.5 35.5 c 128,-1,13
 41 94 41 94 7 190 c 0,14,15
 -11 243 -11 243 -11 298 c 0,16,17
 -11 456 -11 456 119 537 c 1,18,-1
 116 544 l 1,19,20
 107 571 107 571 107 586 c 0,21,22
 107 617 107 617 142 629 c 0,23,24
 154 633 154 633 164 633 c 0,25,26
 195 633 195 633 214 578 c 1,27,28
 245 584 245 584 277 584 c 0,29,30
 411 584 411 584 411 486 c 0,31,32
 411 422 411 422 361 405 c 0,33,34
 348 400 348 400 333 400 c 1,35,36
 322 399 322 399 303 400 c 128,-1,37
 284 401 284 401 275 400 c 1,38,-1
 350 183 l 1,39,40
 373 204 373 204 413 230 c 1,41,42
 427 235 427 235 441 235 c 0,43,44
 477 235 477 235 503 209.5 c 128,-1,45
 529 184 529 184 529 149 c 0,46,47
 529 107 529 107 490 66 c 0,48,49
 458 31 458 31 411 7 c 1,0,1
187 337 m 1,50,51
 175 298 175 298 192 249 c 0,52,53
 207 205 207 205 241 181 c 1,54,-1
 187 337 l 1,50,51
EndSplineSet
Validated: 33
EndChar

StartChar: sterling
Encoding: 163 163 100
Width: 629
GlyphClass: 2
Flags: W
LayerCount: 2
Fore
SplineSet
79 464 m 1,0,1
 68 513 68 513 70 547 c 0,2,3
 77 647 77 647 167 702 c 1,4,5
 249 754 249 754 362 746 c 0,6,7
 474 738 474 738 551 679 c 0,8,9
 632 616 632 616 625 529 c 0,10,11
 622 484 622 484 591 458 c 128,-1,12
 560 432 560 432 516 436 c 1,13,14
 474 438 474 438 436.5 493.5 c 128,-1,15
 399 549 399 549 354 552 c 0,16,17
 322 554 322 554 302 541 c 128,-1,18
 282 528 282 528 280 505 c 0,19,20
 278 481 278 481 294 450 c 1,21,-1
 431 440 l 2,22,23
 472 438 472 438 498 410.5 c 128,-1,24
 524 383 524 383 521 340 c 256,25,26
 518 297 518 297 488.5 273.5 c 128,-1,27
 459 250 459 250 418 253 c 2,28,-1
 313 260 l 1,29,30
 304 210 304 210 276 165 c 1,31,-1
 509 148 l 2,32,33
 550 145 550 145 576 117.5 c 128,-1,34
 602 90 602 90 599 48 c 0,35,36
 596 5 596 5 566.5 -18.5 c 128,-1,37
 537 -42 537 -42 495 -39 c 2,38,-1
 104 -12 l 2,39,40
 58 -9 58 -9 32 21.5 c 128,-1,41
 6 52 6 52 9 98 c 0,42,43
 10 119 10 119 54 172 c 128,-1,44
 98 225 98 225 107 275 c 1,45,-1
 81 276 l 1,46,47
 40 279 40 279 14 306.5 c 128,-1,48
 -12 334 -12 334 -9 377 c 0,49,50
 -6 416 -6 416 18.5 439 c 128,-1,51
 43 462 43 462 79 464 c 1,0,1
EndSplineSet
Validated: 33
EndChar

StartChar: currency
Encoding: 164 164 101
Width: 646
GlyphClass: 2
Flags: W
LayerCount: 2
Fore
SplineSet
655 192 m 1,0,1
 646 161 646 161 613 149 c 0,2,3
 603 146 603 146 592 146 c 0,4,5
 574 146 574 146 549 158 c 1,6,7
 529 169 529 169 509 180 c 1,8,9
 474 135 474 135 414.5 109 c 128,-1,10
 355 83 355 83 296 83 c 0,11,12
 269 83 269 83 245 89 c 1,13,14
 233 64 233 64 222 38 c 1,15,16
 205 9 205 9 181 1 c 0,17,18
 170 -3 170 -3 158 -3 c 0,19,20
 108 -3 108 -3 89 51 c 0,21,22
 83 70 83 70 94 91 c 1,23,-1
 96 96 l 1,24,-1
 123 150 l 1,25,26
 68 192 68 192 42 267 c 0,27,28
 25 316 25 316 25 361 c 0,29,30
 25 388 25 388 32 411 c 1,31,32
 9 422 9 422 -14 433 c 1,33,34
 -44 449 -44 449 -54 466 c 1,35,36
 -59 482 -59 482 -59 497 c 0,37,38
 -59 548 -59 548 -13 565 c 0,39,40
 -3 568 -3 568 7 568 c 0,41,42
 26 568 26 568 51 556 c 0,43,44
 71 546 71 546 92 535 c 1,45,46
 137 590 137 590 211 615 c 0,47,48
 256 631 256 631 305 631 c 0,49,50
 332 631 332 631 355 626 c 1,51,52
 366 651 366 651 378 676 c 1,53,54
 395 705 395 705 419 713 c 0,55,56
 430 717 430 717 442 717 c 0,57,58
 492 717 492 717 511 663 c 0,59,60
 517 644 517 644 506 623 c 1,61,-1
 504 618 l 1,62,-1
 478 565 l 1,63,64
 530 526 530 526 558 445 c 0,65,66
 574 401 574 401 574 357 c 0,67,68
 574 328 574 328 567 303 c 1,69,-1
 626 275 l 2,70,71
 648 264 648 264 655 245 c 0,72,73
 664 219 664 219 655 192 c 1,0,1
265 460 m 0,74,75
 196 436 196 436 196 364 c 0,76,77
 196 343 196 343 203 323 c 0,78,79
 229 248 229 248 301 248 c 0,80,81
 318 248 318 248 335 254 c 0,82,83
 404 278 404 278 404 350 c 0,84,85
 404 370 404 370 398 390 c 1,86,87
 371 466 371 466 299 466 c 0,88,89
 282 466 282 466 265 460 c 0,74,75
EndSplineSet
Validated: 33
EndChar

StartChar: yen
Encoding: 165 165 102
Width: 590
GlyphClass: 2
Flags: W
LayerCount: 2
Fore
SplineSet
511 643 m 2,0,-1
 446 488 l 1,1,-1
 478 495 l 2,2,3
 486 497 486 497 495 497 c 0,4,5
 525 497 525 497 545 479 c 128,-1,6
 565 461 565 461 565 432 c 0,7,8
 565 407 565 407 548 388.5 c 128,-1,9
 531 370 531 370 508 365 c 2,10,-1
 394 339 l 1,11,-1
 398 321 l 1,12,-1
 512 347 l 2,13,14
 520 349 520 349 529 349 c 0,15,16
 559 349 559 349 579.5 330.5 c 128,-1,17
 600 312 600 312 600 284 c 0,18,19
 600 259 600 259 582.5 240.5 c 128,-1,20
 565 222 565 222 542 217 c 2,21,-1
 428 190 l 1,22,-1
 449 97 l 2,23,24
 452 84 452 84 452 71 c 0,25,26
 452 -3 452 -3 374 -21 c 0,27,28
 359 -24 359 -24 346 -24 c 0,29,30
 272 -24 272 -24 255 52 c 2,31,-1
 233 145 l 1,32,-1
 119 119 l 2,33,34
 110 117 110 117 101 117 c 0,35,36
 72 117 72 117 51.5 135.5 c 128,-1,37
 31 154 31 154 31 183 c 0,38,39
 31 207 31 207 49 227 c 0,40,41
 65 244 65 244 89 250 c 2,42,-1
 203 276 l 1,43,-1
 199 294 l 1,44,-1
 85 267 l 2,45,46
 76 265 76 265 67 265 c 0,47,48
 38 265 38 265 17.5 283.5 c 128,-1,49
 -3 302 -3 302 -3 331 c 0,50,51
 -3 356 -3 356 14 374 c 128,-1,52
 31 392 31 392 55 398 c 2,53,-1
 86 405 l 1,54,55
 45 438 45 438 4 471 c 1,56,57
 -63 529 -63 529 -72 570 c 0,58,59
 -75 581 -75 581 -75 593 c 0,60,61
 -75 634 -75 634 -46.5 661.5 c 128,-1,62
 -18 689 -18 689 23 689 c 256,63,64
 64 689 64 689 90 666 c 2,65,-1
 249 519 l 1,66,-1
 328 721 l 2,67,68
 339 748 339 748 366 765 c 128,-1,69
 393 782 393 782 423 782 c 0,70,71
 456 782 456 782 482.5 760.5 c 128,-1,72
 509 739 509 739 516 706 c 0,73,74
 524 673 524 673 511 643 c 2,0,-1
EndSplineSet
Validated: 33
EndChar

StartChar: brokenbar
Encoding: 166 166 103
Width: 236
GlyphClass: 2
Flags: W
LayerCount: 2
Fore
SplineSet
87 298 m 0,0,1
 55 298 55 298 33 317.5 c 128,-1,2
 11 337 11 337 6 370 c 2,3,-1
 -30 597 l 2,4,5
 -31 605 -31 605 -31 613 c 0,6,7
 -31 650 -31 650 -6 673 c 128,-1,8
 19 696 19 696 57 696 c 0,9,10
 89 696 89 696 111 676.5 c 128,-1,11
 133 657 133 657 138 624 c 2,12,-1
 174 397 l 2,13,14
 175 389 175 389 175 381 c 0,15,16
 175 344 175 344 149.5 321 c 128,-1,17
 124 298 124 298 87 298 c 0,0,1
165 -196 m 0,18,19
 133 -196 133 -196 111 -176.5 c 128,-1,20
 89 -157 89 -157 84 -124 c 2,21,-1
 48 103 l 2,22,23
 47 111 47 111 47 119 c 0,24,25
 47 156 47 156 72.5 179 c 128,-1,26
 98 202 98 202 135 202 c 0,27,28
 167 202 167 202 189 182.5 c 128,-1,29
 211 163 211 163 216 130 c 2,30,-1
 252 -97 l 2,31,32
 253 -105 253 -105 253 -113 c 0,33,34
 253 -150 253 -150 228 -173 c 128,-1,35
 203 -196 203 -196 165 -196 c 0,18,19
EndSplineSet
Validated: 1
EndChar

StartChar: section
Encoding: 167 167 104
Width: 588
GlyphClass: 2
Flags: W
LayerCount: 2
Fore
SplineSet
520 114 m 1,0,1
 563 75 563 75 575 25 c 0,2,3
 580 0 580 0 580 -23 c 0,4,5
 580 -101 580 -101 524 -159 c 0,6,7
 472 -213 472 -213 392 -232 c 0,8,9
 355 -240 355 -240 313 -240 c 0,10,11
 231 -240 231 -240 169 -211 c 0,12,13
 99 -178 99 -178 86 -122 c 0,14,15
 84 -110 84 -110 84 -99 c 0,16,17
 84 -60 84 -60 113.5 -29.5 c 128,-1,18
 143 1 143 1 182 1 c 0,19,20
 209 1 209 1 251 -29.5 c 128,-1,21
 293 -60 293 -60 318 -60 c 0,22,23
 338 -60 338 -60 357.5 -47 c 128,-1,24
 377 -34 377 -34 373 -17 c 0,25,26
 366 13 366 13 280 25 c 0,27,28
 159 41 159 41 116 59 c 0,29,30
 23 98 23 98 1 193 c 0,31,32
 -6 224 -6 224 -6 251 c 0,33,34
 -6 316 -6 316 39 381 c 1,35,36
 -8 418 -8 418 -20 473 c 0,37,38
 -26 498 -26 498 -26 523 c 0,39,40
 -26 602 -26 602 31 660 c 0,41,42
 84 715 84 715 169 735 c 0,43,44
 210 744 210 744 259 744 c 0,45,46
 339 744 339 744 398 716 c 0,47,48
 475 679 475 679 475 607 c 0,49,50
 475 575 475 575 455.5 547.5 c 128,-1,51
 436 520 436 520 405 513 c 0,52,53
 395 511 395 511 385 511 c 0,54,55
 357 511 357 511 311.5 537 c 128,-1,56
 266 563 266 563 243 563 c 0,57,58
 221 563 221 563 204.5 550 c 128,-1,59
 188 537 188 537 188 517 c 0,60,61
 188 490 188 490 233 481 c 1,62,63
 299 470 299 470 364 460 c 1,64,65
 448 445 448 445 495 418 c 0,66,67
 557 381 557 381 572 315 c 0,68,69
 579 285 579 285 579 258 c 0,70,71
 579 186 579 186 520 114 c 1,0,1
308 286 m 2,72,-1
 205 301 l 1,73,74
 187 276 187 276 192 255 c 0,75,76
 199 227 199 227 237 220 c 2,77,-1
 359 199 l 1,78,79
 382 224 382 224 376 249 c 0,80,81
 370 277 370 277 308 286 c 2,72,-1
EndSplineSet
Validated: 33
EndChar

StartChar: dieresis
Encoding: 168 168 105
Width: 297
GlyphClass: 2
Flags: W
LayerCount: 2
Fore
SplineSet
226 584 m 256,0,1
 186 582 186 582 156 608.5 c 128,-1,2
 126 635 126 635 124 676 c 0,3,4
 122 716 122 716 148.5 746 c 128,-1,5
 175 776 175 776 216 778 c 0,6,7
 256 780 256 780 286 753 c 128,-1,8
 316 726 316 726 318 686 c 256,9,10
 320 646 320 646 293 616 c 128,-1,11
 266 586 266 586 226 584 c 256,0,1
6 572 m 0,12,13
 -34 570 -34 570 -64 597 c 128,-1,14
 -94 624 -94 624 -96 664 c 256,15,16
 -98 704 -98 704 -71 734 c 128,-1,17
 -44 764 -44 764 -4 766 c 256,18,19
 36 768 36 768 66 741.5 c 128,-1,20
 96 715 96 715 98 674 c 0,21,22
 100 634 100 634 73.5 604 c 128,-1,23
 47 574 47 574 6 572 c 0,12,13
EndSplineSet
Validated: 33
EndChar

StartChar: copyright
Encoding: 169 169 106
Width: 793
GlyphClass: 2
Flags: W
LayerCount: 2
Fore
SplineSet
373 -36 m 0,0,1
 210 -25 210 -25 103.5 98 c 128,-1,2
 -3 221 -3 221 8 383 c 0,3,4
 19 546 19 546 142 652.5 c 128,-1,5
 265 759 265 759 427 748 c 0,6,7
 590 737 590 737 696.5 614 c 128,-1,8
 803 491 803 491 792 329 c 0,9,10
 781 166 781 166 658 59.5 c 128,-1,11
 535 -47 535 -47 373 -36 c 0,0,1
418 608 m 0,12,13
 313 616 313 616 234 547.5 c 128,-1,14
 155 479 155 479 148 374 c 0,15,16
 140 269 140 269 208.5 190 c 128,-1,17
 277 111 277 111 382 104 c 0,18,19
 487 96 487 96 566 164.5 c 128,-1,20
 645 233 645 233 652 338 c 0,21,22
 660 443 660 443 591.5 522 c 128,-1,23
 523 601 523 601 418 608 c 0,12,13
387 125 m 0,24,25
 286 132 286 132 228 204 c 0,26,27
 173 272 173 272 180 371 c 0,28,29
 186 470 186 470 252 531.5 c 128,-1,30
 318 593 318 593 419 586 c 0,31,32
 500 581 500 581 557 528 c 0,33,34
 610 479 610 479 607 429 c 0,35,36
 604 393 604 393 589 375.5 c 128,-1,37
 574 358 574 358 538 354 c 1,38,39
 505 357 505 357 489 373 c 0,40,41
 477 385 477 385 465 418 c 1,42,43
 450 444 450 444 409 447 c 0,44,45
 344 451 344 451 337 360 c 0,46,47
 331 270 331 270 397 265 c 0,48,49
 438 262 438 262 455 286 c 1,50,51
 472 317 472 317 486 327 c 0,52,53
 504 341 504 341 537 338 c 1,54,55
 573 329 573 329 585 310 c 128,-1,56
 597 291 597 291 594 255 c 0,57,58
 591 205 591 205 531 164 c 0,59,60
 467 120 467 120 387 125 c 0,24,25
EndSplineSet
Validated: 33
EndChar

StartChar: ordfeminine
Encoding: 170 170 107
Width: 388
GlyphClass: 2
Flags: W
LayerCount: 2
Fore
SplineSet
312 373 m 0,0,1
 275 371 275 371 255 393 c 1,2,3
 222 368 222 368 185 366 c 0,4,5
 103 362 103 362 48 413 c 128,-1,6
 -7 464 -7 464 -12 547 c 0,7,8
 -16 627 -16 627 33 685.5 c 128,-1,9
 82 744 82 744 158 748 c 0,10,11
 203 751 203 751 238 730 c 1,12,13
 256 753 256 753 292 755 c 0,14,15
 361 759 361 759 365 680 c 2,16,-1
 377 445 l 2,17,18
 381 376 381 376 312 373 c 0,0,1
178 621 m 0,19,20
 157 620 157 620 145 601.5 c 128,-1,21
 133 583 133 583 134 555 c 0,22,23
 137 492 137 492 184 494 c 0,24,25
 228 496 228 496 225 559 c 0,26,27
 222 623 222 623 178 621 c 0,19,20
EndSplineSet
Validated: 33
EndChar

StartChar: guillemotleft
Encoding: 171 171 108
Width: 524
GlyphClass: 2
Flags: W
LayerCount: 2
Fore
SplineSet
473 103 m 0,0,1
 458 98 458 98 443 98 c 0,2,3
 415 98 415 98 394 114 c 1,4,5
 351 144 351 144 309 173 c 1,6,7
 230 233 230 233 216 274 c 0,8,9
 212 285 212 285 212 300 c 0,10,11
 212 322 212 322 220 350 c 2,12,-1
 268 512 l 1,13,14
 282 545 282 545 318 557 c 0,15,16
 333 562 333 562 348 562 c 0,17,18
 384 562 384 562 405.5 537.5 c 128,-1,19
 427 513 427 513 427 477 c 0,20,21
 427 445 427 445 413 394 c 0,22,23
 404 363 404 363 394 331 c 1,24,25
 427 308 427 308 459 285 c 1,26,27
 515 242 515 242 525 214 c 0,28,29
 530 198 530 198 530 183 c 0,30,31
 530 123 530 123 473 103 c 0,0,1
280 36 m 0,32,33
 265 31 265 31 250 31 c 0,34,35
 222 31 222 31 201 48 c 1,36,37
 158 77 158 77 116 107 c 1,38,39
 37 167 37 167 23 207 c 0,40,41
 19 219 19 219 19 234 c 0,42,43
 19 255 19 255 27 283 c 2,44,-1
 75 446 l 1,45,46
 89 478 89 478 126 491 c 0,47,48
 140 496 140 496 155 496 c 0,49,50
 191 496 191 496 213 471.5 c 128,-1,51
 235 447 235 447 235 411 c 0,52,53
 235 379 235 379 220 328 c 0,54,55
 211 296 211 296 201 264 c 1,56,57
 234 241 234 241 266 218 c 0,58,59
 322 176 322 176 332 147 c 0,60,61
 337 132 337 132 337 116 c 0,62,63
 337 56 337 56 280 36 c 0,32,33
EndSplineSet
Validated: 5
EndChar

StartChar: logicalnot
Encoding: 172 172 109
Width: 614
GlyphClass: 2
Flags: W
LayerCount: 2
Fore
SplineSet
515 64 m 256,0,1
 477 62 477 62 452.5 84.5 c 128,-1,2
 428 107 428 107 426 144 c 2,3,-1
 418 286 l 1,4,-1
 94 269 l 2,5,6
 56 267 56 267 31 289.5 c 128,-1,7
 6 312 6 312 4 350 c 0,8,9
 2 387 2 387 24.5 412 c 128,-1,10
 47 437 47 437 85 439 c 2,11,-1
 494 460 l 2,12,13
 532 462 532 462 557 439.5 c 128,-1,14
 582 417 582 417 584 380 c 2,15,-1
 596 153 l 2,16,17
 598 116 598 116 575.5 91 c 128,-1,18
 553 66 553 66 515 64 c 256,0,1
EndSplineSet
Validated: 33
EndChar

StartChar: minus
Encoding: 173 173 110
AltUni2: 002212.ffffffff.0
Width: 589
GlyphClass: 2
Flags: W
LayerCount: 2
Fore
SplineSet
489 137 m 2,0,-1
 84 201 l 2,1,2
 51 206 51 206 31.5 228.5 c 128,-1,3
 12 251 12 251 12 282 c 0,4,5
 12 320 12 320 35 345 c 128,-1,6
 58 370 58 370 95 370 c 0,7,8
 103 370 103 370 111 369 c 2,9,-1
 516 305 l 2,10,11
 549 300 549 300 568.5 277.5 c 128,-1,12
 588 255 588 255 588 224 c 0,13,14
 588 186 588 186 565 161 c 128,-1,15
 542 136 542 136 505 136 c 0,16,17
 497 136 497 136 489 137 c 2,0,-1
EndSplineSet
Validated: 1
EndChar

StartChar: registered
Encoding: 174 174 111
Width: 793
GlyphClass: 2
Flags: W
LayerCount: 2
Fore
SplineSet
528 -16 m 0,0,1
 466 -37 466 -37 400 -37 c 0,2,3
 276 -37 276 -37 173 35.5 c 128,-1,4
 70 108 70 108 28 228 c 0,5,6
 7 290 7 290 7 356 c 0,7,8
 7 480 7 480 79.5 583 c 128,-1,9
 152 686 152 686 272 728 c 0,10,11
 334 749 334 749 400 749 c 0,12,13
 524 749 524 749 626 678 c 1,14,15
 730 604 730 604 772 484 c 0,16,17
 793 422 793 422 793 356 c 0,18,19
 793 232 793 232 722 130 c 1,20,21
 648 26 648 26 528 -16 c 0,0,1
318 595 m 0,22,23
 240 568 240 568 193.5 502 c 128,-1,24
 147 436 147 436 147 356 c 0,25,26
 147 314 147 314 161 274 c 0,27,28
 188 196 188 196 254 149.5 c 128,-1,29
 320 103 320 103 400 103 c 0,30,31
 442 103 442 103 482 117 c 0,32,33
 560 144 560 144 606.5 210 c 128,-1,34
 653 276 653 276 653 356 c 0,35,36
 653 398 653 398 639 438 c 0,37,38
 612 516 612 516 546 562.5 c 128,-1,39
 480 609 480 609 400 609 c 0,40,41
 358 609 358 609 318 595 c 0,22,23
396 266 m 1,42,-1
 420 196 l 2,43,44
 426 179 426 179 426 165 c 0,45,46
 426 121 426 121 378 104 c 0,47,48
 362 98 362 98 348 98 c 0,49,50
 306 98 306 98 288 150 c 2,51,-1
 187 442 l 2,52,53
 182 457 182 457 182 469 c 0,54,55
 182 512 182 512 233 529 c 2,56,-1
 339 566 l 2,57,58
 387 582 387 582 425 582 c 0,59,60
 518 582 518 582 550 488 c 0,61,62
 560 458 560 458 560 432 c 0,63,64
 560 373 560 373 512 339 c 1,65,66
 536 321 536 321 560 303 c 1,67,68
 601 269 601 269 609 247 c 0,69,70
 613 236 613 236 613 226 c 0,71,72
 613 185 613 185 560 167 c 0,73,74
 547 162 547 162 535 162 c 0,75,76
 508 162 508 162 468 200 c 2,77,-1
 396 266 l 1,42,-1
385 452 m 2,78,-1
 338 436 l 1,79,-1
 350 399 l 1,80,-1
 398 415 l 2,81,82
 421 423 421 423 421 432 c 0,83,84
 421 435 421 435 418 443 c 0,85,86
 413 457 413 457 404 457 c 0,87,88
 398 457 398 457 385 452 c 2,78,-1
EndSplineSet
Validated: 5
EndChar

StartChar: macron
Encoding: 175 175 112
AltUni2: 0002c9.ffffffff.0
Width: 274
GlyphClass: 2
Flags: W
LayerCount: 2
Fore
SplineSet
208 590 m 2,0,-1
 23 580 l 2,1,2
 -16 578 -16 578 -43 599 c 128,-1,3
 -70 620 -70 620 -72 660 c 256,4,5
 -74 700 -74 700 -49 724 c 128,-1,6
 -24 748 -24 748 14 750 c 2,7,-1
 199 760 l 2,8,9
 237 762 237 762 264.5 741 c 128,-1,10
 292 720 292 720 294 680 c 256,11,12
 296 640 296 640 271.5 616 c 128,-1,13
 247 592 247 592 208 590 c 2,0,-1
EndSplineSet
Validated: 33
EndChar

StartChar: degree
Encoding: 176 176 113
Width: 367
GlyphClass: 2
Flags: W
LayerCount: 2
Fore
SplineSet
184 378 m 0,0,1
 107 384 107 384 57.5 443 c 128,-1,2
 8 502 8 502 15 579 c 0,3,4
 21 656 21 656 80 705.5 c 128,-1,5
 139 755 139 755 216 748 c 0,6,7
 293 742 293 742 342.5 683 c 128,-1,8
 392 624 392 624 385 547 c 0,9,10
 379 470 379 470 320 420.5 c 128,-1,11
 261 371 261 371 184 378 c 0,0,1
205 621 m 256,12,13
 182 623 182 623 163 607 c 128,-1,14
 144 591 144 591 142 568 c 256,15,16
 140 545 140 545 156 526 c 128,-1,17
 172 507 172 507 195 505 c 256,18,19
 218 503 218 503 237 519 c 128,-1,20
 256 535 256 535 258 558 c 256,21,22
 260 581 260 581 244 600 c 128,-1,23
 228 619 228 619 205 621 c 256,12,13
EndSplineSet
Validated: 33
EndChar

StartChar: plusminus
Encoding: 177 177 114
Width: 605
GlyphClass: 2
Flags: W
LayerCount: 2
Fore
SplineSet
505 249 m 2,0,-1
 385 249 l 1,1,-1
 385 210 l 2,2,3
 385 173 385 173 361.5 149 c 128,-1,4
 338 125 338 125 300 125 c 256,5,6
 262 125 262 125 238.5 149 c 128,-1,7
 215 173 215 173 215 210 c 2,8,-1
 215 249 l 1,9,-1
 95 249 l 2,10,11
 57 249 57 249 33.5 273 c 128,-1,12
 10 297 10 297 10 334 c 256,13,14
 10 371 10 371 33.5 395 c 128,-1,15
 57 419 57 419 95 419 c 2,16,-1
 215 419 l 1,17,-1
 215 458 l 2,18,19
 215 495 215 495 238.5 519 c 128,-1,20
 262 543 262 543 300 543 c 256,21,22
 338 543 338 543 361.5 519 c 128,-1,23
 385 495 385 495 385 458 c 2,24,-1
 385 419 l 1,25,-1
 505 419 l 2,26,27
 543 419 543 419 566.5 395 c 128,-1,28
 590 371 590 371 590 334 c 256,29,30
 590 297 590 297 566.5 273 c 128,-1,31
 543 249 543 249 505 249 c 2,0,-1
505 -25 m 2,32,-1
 95 -25 l 2,33,34
 57 -25 57 -25 33.5 -1 c 128,-1,35
 10 23 10 23 10 60 c 256,36,37
 10 97 10 97 33.5 121 c 128,-1,38
 57 145 57 145 95 145 c 2,39,-1
 505 145 l 2,40,41
 543 145 543 145 566.5 121 c 128,-1,42
 590 97 590 97 590 60 c 256,43,44
 590 23 590 23 566.5 -1 c 128,-1,45
 543 -25 543 -25 505 -25 c 2,32,-1
EndSplineSet
Validated: 5
EndChar

StartChar: twosuperior
Encoding: 178 178 115
Width: 391
GlyphClass: 2
Flags: W
LayerCount: 2
Fore
SplineSet
265 427 m 1,0,-1
 310 432 l 1,1,2
 379 441 379 441 388 365 c 0,3,4
 397 290 397 290 329 282 c 2,5,-1
 106 254 l 2,6,7
 79 251 79 251 57 263 c 0,8,9
 31 277 31 277 27 309 c 0,10,11
 24 332 24 332 43 358 c 0,12,13
 86 417 86 417 130 476 c 1,14,15
 195 570 195 570 192 596 c 0,16,17
 191 610 191 610 170 608 c 0,18,19
 149 605 149 605 142 580 c 0,20,21
 131 540 131 540 128 536 c 0,22,23
 113 510 113 510 79 506 c 0,24,25
 44 502 44 502 23 522.5 c 128,-1,26
 2 543 2 543 -2 578 c 0,27,28
 -10 646 -10 646 53 700 c 1,29,30
 112 749 112 749 182 749 c 0,31,32
 250 749 250 749 297 709 c 128,-1,33
 344 669 344 669 344 602 c 0,34,35
 344 534 344 534 265 427 c 1,0,-1
EndSplineSet
Validated: 33
EndChar

StartChar: threesuperior
Encoding: 179 179 116
Width: 370
GlyphClass: 2
Flags: W
LayerCount: 2
Fore
SplineSet
119 269 m 0,0,1
 68 283 68 283 26 322 c 0,2,3
 -24 368 -24 368 -24 420 c 0,4,5
 -24 434 -24 434 -21 448 c 1,6,7
 -8 493 -8 493 49 493 c 0,8,9
 59 493 59 493 69 491 c 0,10,11
 98 483 98 483 113.5 447.5 c 128,-1,12
 129 412 129 412 155 405 c 0,13,14
 164 402 164 402 171 402 c 0,15,16
 194 402 194 402 197 415 c 0,17,18
 202 432 202 432 180 444.5 c 128,-1,19
 158 457 158 457 136 468 c 1,20,21
 111 485 111 485 111 512 c 0,22,23
 111 522 111 522 114 534 c 0,24,25
 127 581 127 581 181 581 c 0,26,27
 184 581 184 581 188.5 581 c 128,-1,28
 193 581 193 581 196 581 c 0,29,30
 222 581 222 581 225 594 c 0,31,32
 229 608 229 608 200 608 c 0,33,34
 189 608 189 608 163.5 594.5 c 128,-1,35
 138 581 138 581 119 581 c 0,36,37
 109 581 109 581 99 583 c 0,38,39
 50 596 50 596 50 648 c 0,40,41
 50 698 50 698 102 725 c 0,42,43
 144 747 144 747 198 747 c 0,44,45
 225 747 225 747 245 742 c 0,46,47
 297 728 297 728 334 692 c 1,48,49
 374 651 374 651 374 601 c 0,50,51
 374 531 374 531 313 494 c 1,52,53
 347 452 347 452 347 403 c 0,54,55
 347 386 347 386 343 370 c 0,56,57
 313 261 313 261 184 261 c 0,58,59
 151 261 151 261 119 269 c 0,0,1
EndSplineSet
Validated: 33
EndChar

StartChar: acute
Encoding: 180 180 117
Width: 245
GlyphClass: 2
Flags: W
LayerCount: 2
Fore
SplineSet
187 610 m 2,0,-1
 68 592 l 2,1,2
 36 587 36 587 17 592 c 0,3,4
 -39 605 -39 605 -39 680 c 0,5,6
 -39 742 -39 742 18 756 c 1,7,-1
 28 758 l 1,8,-1
 155 779 l 2,9,10
 186 784 186 784 204 780 c 0,11,12
 232 773 232 773 247.5 747.5 c 128,-1,13
 263 722 263 722 263 694 c 0,14,15
 263 661 263 661 242 638 c 128,-1,16
 221 615 221 615 187 610 c 2,0,-1
EndSplineSet
Validated: 33
EndChar

StartChar: mu
Encoding: 181 181 118
AltUni2: 0003bc.ffffffff.0
Width: 604
GlyphClass: 2
Flags: W
LayerCount: 2
Fore
SplineSet
166 10 m 1,0,1
 163 -32 163 -32 145 -115 c 1,2,3
 138 -153 138 -153 111.5 -175.5 c 128,-1,4
 85 -198 85 -198 50 -198 c 0,5,6
 38 -198 38 -198 27 -196 c 0,7,8
 -8 -188 -8 -188 -28 -161.5 c 128,-1,9
 -48 -135 -48 -135 -48 -100 c 0,10,11
 -48 -86 -48 -86 -44 -71 c 2,12,-1
 90 509 l 2,13,14
 98 547 98 547 124 569.5 c 128,-1,15
 150 592 150 592 185 592 c 0,16,17
 196 592 196 592 208 590 c 0,18,19
 243 582 243 582 262.5 555.5 c 128,-1,20
 282 529 282 529 282 494 c 0,21,22
 282 480 282 480 279 466 c 2,23,-1
 221 215 l 2,24,25
 219 206 219 206 219 197 c 0,26,27
 219 168 219 168 240 150 c 128,-1,28
 261 132 261 132 290 132 c 0,29,30
 341 132 341 132 353 185 c 2,31,-1
 411 435 l 2,32,33
 420 473 420 473 446 495.5 c 128,-1,34
 472 518 472 518 506 518 c 0,35,36
 518 518 518 518 529 516 c 0,37,38
 564 508 564 508 584 481.5 c 128,-1,39
 604 455 604 455 604 420 c 0,40,41
 604 406 604 406 600 391 c 2,42,-1
 514 17 l 2,43,44
 505 -20 505 -20 479 -43 c 128,-1,45
 453 -66 453 -66 419 -66 c 0,46,47
 389 -66 389 -66 363 -50 c 128,-1,48
 337 -34 337 -34 326 -6 c 1,49,50
 300 -34 300 -34 255 -34 c 0,51,52
 207 -34 207 -34 166 10 c 1,0,1
EndSplineSet
Validated: 1
EndChar

StartChar: paragraph
Encoding: 182 182 119
Width: 637
GlyphClass: 2
Flags: W
LayerCount: 2
Fore
SplineSet
540 -225 m 256,0,1
 502 -227 502 -227 477.5 -204.5 c 128,-1,2
 453 -182 453 -182 451 -144 c 2,3,-1
 412 604 l 1,4,-1
 365 601 l 1,5,-1
 404 -147 l 2,6,7
 406 -184 406 -184 383.5 -209 c 128,-1,8
 361 -234 361 -234 323 -236 c 256,9,10
 285 -238 285 -238 260.5 -215.5 c 128,-1,11
 236 -193 236 -193 234 -156 c 2,12,-1
 208 334 l 1,13,14
 104 334 104 334 42 381.5 c 128,-1,15
 -20 429 -20 429 -24 518 c 0,16,17
 -35 720 -35 720 236 735 c 1,18,-1
 489 748 l 2,19,20
 527 750 527 750 552 727.5 c 128,-1,21
 577 705 577 705 579 667 c 2,22,-1
 621 -135 l 2,23,24
 623 -173 623 -173 600.5 -198 c 128,-1,25
 578 -223 578 -223 540 -225 c 256,0,1
EndSplineSet
Validated: 33
EndChar

StartChar: periodcentered
Encoding: 183 183 120
AltUni2: 002219.ffffffff.0
Width: 252
GlyphClass: 2
Flags: W
LayerCount: 2
Fore
SplineSet
168 184 m 0,0,1
 151 178 151 178 134 178 c 0,2,3
 102 178 102 178 74.5 197 c 128,-1,4
 47 216 47 216 37 247 c 0,5,6
 31 264 31 264 31 281 c 0,7,8
 31 313 31 313 50 340.5 c 128,-1,9
 69 368 69 368 100 378 c 0,10,11
 117 384 117 384 133 384 c 0,12,13
 166 384 166 384 193.5 365 c 128,-1,14
 221 346 221 346 231 315 c 0,15,16
 237 298 237 298 237 280 c 0,17,18
 237 248 237 248 218 221 c 128,-1,19
 199 194 199 194 168 184 c 0,0,1
EndSplineSet
Validated: 1
EndChar

StartChar: cedilla
Encoding: 184 184 121
Width: 255
GlyphClass: 2
Flags: W
LayerCount: 2
Fore
SplineSet
178 -17 m 1,0,1
 252 -19 252 -19 270 -95 c 0,2,3
 273 -109 273 -109 273 -123 c 0,4,5
 273 -169 273 -169 236 -204 c 0,6,7
 206 -232 206 -232 164 -242 c 0,8,9
 145 -246 145 -246 124 -246 c 0,10,11
 88 -246 88 -246 64 -233 c 0,12,13
 34 -216 34 -216 34 -182 c 0,14,15
 34 -143 34 -143 72 -134 c 1,16,17
 89 -135 89 -135 122 -133 c 0,18,19
 129 -132 129 -132 128 -128 c 0,20,21
 127 -125 127 -125 117 -128 c 1,22,23
 101 -129 101 -129 94 -129 c 0,24,25
 58 -129 58 -129 50 -94 c 0,26,27
 46 -76 46 -76 85 15 c 1,28,-1
 205 43 l 1,29,-1
 178 -17 l 1,0,1
EndSplineSet
Validated: 33
EndChar

StartChar: onesuperior
Encoding: 185 185 122
Width: 242
GlyphClass: 2
Flags: W
LayerCount: 2
Fore
SplineSet
156 263 m 0,0,1
 124 261 124 261 102 277 c 0,2,3
 77 295 77 295 75 327 c 2,4,-1
 57 588 l 1,5,-1
 48 588 l 1,6,7
 -21 583 -21 583 -26 660 c 0,8,9
 -28 691 -28 691 -11 714 c 128,-1,10
 6 737 6 737 37 739 c 2,11,-1
 130 746 l 2,12,13
 161 748 161 748 181 730 c 128,-1,14
 201 712 201 712 203 684 c 2,15,-1
 227 337 l 2,16,17
 229 308 229 308 209 287 c 128,-1,18
 189 266 189 266 156 263 c 0,0,1
EndSplineSet
Validated: 33
EndChar

StartChar: ordmasculine
Encoding: 186 186 123
Width: 360
GlyphClass: 2
Flags: W
LayerCount: 2
Fore
SplineSet
164 367 m 0,0,1
 80 374 80 374 31 434.5 c 128,-1,2
 -18 495 -18 495 -11 574 c 0,3,4
 -5 651 -5 651 55 703 c 128,-1,5
 115 755 115 755 198 748 c 256,6,7
 281 741 281 741 330 679.5 c 128,-1,8
 379 618 379 618 372 540 c 0,9,10
 365 461 365 461 308 411 c 0,11,12
 248 359 248 359 164 367 c 0,0,1
187 621 m 0,13,14
 166 623 166 623 151.5 606 c 128,-1,15
 137 589 137 589 134 561 c 0,16,17
 132 534 132 534 143.5 515 c 128,-1,18
 155 496 155 496 175 494 c 0,19,20
 195 493 195 493 209.5 509.5 c 128,-1,21
 224 526 224 526 227 553 c 0,22,23
 232 617 232 617 187 621 c 0,13,14
EndSplineSet
Validated: 33
EndChar

StartChar: guillemotright
Encoding: 187 187 124
Width: 494
GlyphClass: 2
Flags: W
LayerCount: 2
Fore
SplineSet
454 190 m 2,0,-1
 346 59 l 1,1,2
 321 34 321 34 282 37 c 0,3,4
 246 40 246 40 224.5 65 c 128,-1,5
 203 90 203 90 205 123 c 0,6,7
 207 151 207 151 224 174 c 2,8,-1
 301 277 l 1,9,10
 280 311 280 311 259 344 c 1,11,12
 225 404 225 404 227 434 c 0,13,14
 229 470 229 470 254.5 494 c 128,-1,15
 280 518 280 518 318 516 c 0,16,17
 365 513 365 513 386 475 c 1,18,19
 413 431 413 431 441 387 c 1,20,21
 490 301 490 301 487 258 c 0,22,23
 485 228 485 228 454 190 c 2,0,-1
250 204 m 2,24,-1
 143 73 l 1,25,26
 117 49 117 49 79 51 c 1,27,28
 42 54 42 54 20.5 79 c 128,-1,29
 -1 104 -1 104 1 137 c 0,30,31
 3 165 3 165 20 188 c 2,32,-1
 97 291 l 1,33,34
 76 325 76 325 55 359 c 1,35,36
 21 418 21 418 23 448 c 0,37,38
 26 484 26 484 51.5 508.5 c 128,-1,39
 77 533 77 533 114 530 c 0,40,41
 161 527 161 527 182 489 c 1,42,43
 210 445 210 445 238 401 c 1,44,45
 287 315 287 315 284 273 c 0,46,47
 281 243 281 243 250 204 c 2,24,-1
EndSplineSet
Validated: 37
EndChar

StartChar: onequarter
Encoding: 188 188 125
Width: 803
GlyphClass: 2
Flags: W
LayerCount: 2
Fore
SplineSet
767 147 m 1,0,1
 811 132 811 132 811 84 c 0,2,3
 811 47 811 47 788 24 c 128,-1,4
 765 1 765 1 729 7 c 1,5,-1
 719 9 l 1,6,-1
 748 29 l 1,7,-1
 741 -15 l 2,8,9
 732 -73 732 -73 673 -73 c 0,10,11
 639 -73 639 -73 616 -57 c 0,12,13
 589 -38 589 -38 589 -6 c 0,14,15
 589 1 589 1 591 9 c 2,16,-1
 594 28 l 1,17,-1
 457 50 l 2,18,19
 425 55 425 55 412 81 c 0,20,21
 401 101 401 101 405 125 c 0,22,23
 408 147 408 147 424 166 c 2,24,-1
 605 384 l 2,25,26
 634 418 634 418 678 418 c 0,27,28
 725 418 725 418 758.5 392 c 128,-1,29
 792 366 792 366 792 319 c 0,30,31
 792 309 792 309 791 299 c 2,32,-1
 767 147 l 1,0,1
653 600 m 2,33,-1
 222 30 l 1,34,35
 187 -5 187 -5 162 -5 c 0,36,37
 127 -5 127 -5 101 24 c 128,-1,38
 75 53 75 53 81 88 c 0,39,40
 85 112 85 112 101 135 c 1,41,-1
 526 699 l 2,42,43
 552 734 552 734 585 734 c 0,44,45
 623 734 623 734 649.5 706 c 128,-1,46
 676 678 676 678 670 640 c 0,47,48
 667 619 667 619 653 600 c 2,33,-1
89 383 m 2,49,-1
 130 642 l 1,50,-1
 121 643 l 1,51,52
 64 652 64 652 64 712 c 0,53,54
 64 749 64 749 86 774 c 128,-1,55
 108 799 108 799 145 793 c 2,56,-1
 237 779 l 2,57,58
 267 774 267 774 282.5 752 c 128,-1,59
 298 730 298 730 293 702 c 2,60,-1
 239 359 l 2,61,62
 235 333 235 333 215 317.5 c 128,-1,63
 195 302 195 302 168 302 c 0,64,65
 132 302 132 302 109 324 c 1,66,67
 83 347 83 347 89 383 c 2,49,-1
622 208 m 1,68,-1
 637 299 l 1,69,-1
 657 270 l 2,70,71
 658 267 658 267 659 263 c 1,72,73
 655 255 655 255 644 238 c 0,74,75
 635 225 635 225 622 208 c 1,68,-1
622 208 m 1,76,77
 610 191 610 191 598 176 c 1,78,-1
 617 173 l 1,79,-1
 622 208 l 1,76,77
EndSplineSet
Validated: 37
EndChar

StartChar: onehalf
Encoding: 189 189 126
Width: 852
GlyphClass: 2
Flags: W
LayerCount: 2
Fore
SplineSet
767 177 m 1,0,-1
 810 184 l 2,1,2
 845 190 845 190 871 162 c 0,3,4
 894 136 894 136 894 100 c 0,5,6
 894 44 894 44 839 35 c 2,7,-1
 615 -1 l 2,8,9
 608 -2 608 -2 601 -2 c 0,10,11
 542 -2 542 -2 534 52 c 0,12,13
 530 75 530 75 548 102 c 0,14,15
 589 163 589 163 631 223 c 1,16,17
 693 319 693 319 689 345 c 0,18,19
 687 358 687 358 666 355 c 256,20,21
 645 352 645 352 639 327 c 0,22,23
 629 286 629 286 627 282 c 0,24,25
 609 250 609 250 566 250 c 0,26,27
 533 250 533 250 513.5 275 c 128,-1,28
 494 300 494 300 494 333 c 0,29,30
 494 383 494 383 533 429 c 0,31,32
 578 483 578 483 648 494 c 0,33,34
 665 496 665 496 682 496 c 0,35,36
 749 496 749 496 793 458 c 0,37,38
 840 417 840 417 840 351 c 256,39,40
 840 285 840 285 767 177 c 1,0,-1
572 693 m 0,41,42
 573 677 573 677 567 657 c 2,43,-1
 333 -18 l 1,44,45
 319 -46 319 -46 312 -54 c 0,46,47
 298 -69 298 -69 274 -73 c 0,48,49
 245 -77 245 -77 215.5 -58 c 128,-1,50
 186 -39 186 -39 181 -7 c 0,51,52
 177 18 177 18 186 44 c 2,53,-1
 415 712 l 2,54,55
 434 768 434 768 488 768 c 0,56,57
 521 768 521 768 545 746.5 c 128,-1,58
 569 725 569 725 572 693 c 0,41,42
169 218 m 0,59,60
 107 218 107 218 97 276 c 2,61,-1
 56 535 l 1,62,-1
 48 533 l 2,63,64
 41 532 41 532 34 532 c 0,65,66
 2 532 2 532 -17 558 c 0,67,68
 -34 581 -34 581 -34 613 c 0,69,70
 -34 674 -34 674 24 683 c 2,71,-1
 116 698 l 2,72,73
 122 699 122 699 129 699 c 0,74,75
 184 699 184 699 193 642 c 2,76,-1
 248 300 l 2,77,78
 253 265 253 265 228.5 241.5 c 128,-1,79
 204 218 204 218 169 218 c 0,59,60
EndSplineSet
Validated: 33
EndChar

StartChar: threequarters
Encoding: 190 190 127
Width: 816
GlyphClass: 2
Flags: W
LayerCount: 2
Fore
SplineSet
755 110 m 1,0,1
 793 92 793 92 793 50 c 0,2,3
 793 39 793 39 790 28 c 0,4,5
 775 -28 775 -28 723 -28 c 0,6,7
 714 -28 714 -28 704 -26 c 2,8,-1
 694 -23 l 1,9,-1
 724 -5 l 1,10,-1
 713 -49 l 1,11,12
 699 -100 699 -100 649 -100 c 0,13,14
 636 -100 636 -100 622 -96 c 0,15,16
 563 -80 563 -80 563 -31 c 0,17,18
 563 -21 563 -21 566 -10 c 2,19,-1
 571 10 l 1,20,-1
 438 46 l 2,21,22
 391 58 391 58 391 106 c 0,23,24
 391 139 391 139 416 164 c 2,25,-1
 620 362 l 2,26,27
 647 389 647 389 683 389 c 0,28,29
 729 389 729 389 764 362 c 128,-1,30
 799 335 799 335 799 290 c 0,31,32
 799 275 799 275 795 258 c 2,33,-1
 755 110 l 1,0,1
751 556 m 2,34,-1
 262 34 l 1,35,36
 227 5 227 5 206 5 c 0,37,38
 197 5 197 5 187 8 c 0,39,40
 162 15 162 15 144 38 c 128,-1,41
 126 61 126 61 126 88 c 0,42,43
 126 121 126 121 153 150 c 2,44,-1
 634 668 l 2,45,46
 662 697 662 697 689 697 c 0,47,48
 700 697 700 697 712 694 c 0,49,50
 739 686 739 686 757 663.5 c 128,-1,51
 775 641 775 641 775 614 c 0,52,53
 775 604 775 604 772 594 c 0,54,55
 767 573 767 573 751 556 c 2,34,-1
163 328 m 0,56,57
 112 342 112 342 69 381 c 0,58,59
 19 427 19 427 19 479 c 0,60,61
 19 493 19 493 23 507 c 0,62,63
 35 552 35 552 93 552 c 0,64,65
 103 552 103 552 112 550 c 0,66,67
 142 542 142 542 157 506.5 c 128,-1,68
 172 471 172 471 199 464 c 0,69,70
 208 461 208 461 215 461 c 0,71,72
 238 461 238 461 241 474 c 0,73,74
 246 491 246 491 224 503 c 128,-1,75
 202 515 202 515 180 527 c 1,76,77
 155 544 155 544 155 571 c 0,78,79
 155 581 155 581 158 593 c 0,80,81
 171 640 171 640 225 640 c 0,82,83
 228 640 228 640 232 640 c 0,84,85
 237 639 237 639 239 639 c 0,86,87
 266 639 266 639 269 653 c 0,88,89
 273 667 273 667 244 667 c 0,90,91
 232 667 232 667 207 653 c 128,-1,92
 182 639 182 639 163 639 c 0,93,94
 153 639 153 639 143 642 c 0,95,96
 94 655 94 655 94 707 c 0,97,98
 94 757 94 757 146 784 c 0,99,100
 188 806 188 806 242 806 c 0,101,102
 269 806 269 806 289 801 c 0,103,104
 341 787 341 787 378 750 c 0,105,106
 418 710 418 710 418 660 c 0,107,108
 418 590 418 590 357 552 c 1,109,110
 391 511 391 511 391 462 c 0,111,112
 391 445 391 445 386 429 c 0,113,114
 357 320 357 320 228 320 c 0,115,116
 195 320 195 320 163 328 c 0,56,57
618 185 m 1,117,-1
 642 274 l 1,118,-1
 660 244 l 1,119,120
 663 245 663 245 663 243 c 0,121,122
 663 235 663 235 618 185 c 1,117,-1
618 185 m 1,123,124
 604 170 604 170 591 156 c 1,125,-1
 609 151 l 1,126,-1
 618 185 l 1,123,124
EndSplineSet
Validated: 37
EndChar

StartChar: questiondown
Encoding: 191 191 128
Width: 510
GlyphClass: 2
Flags: W
LayerCount: 2
Fore
SplineSet
196 359 m 0,0,1
 154 359 154 359 123.5 389 c 128,-1,2
 93 419 93 419 93 462 c 256,3,4
 93 505 93 505 123.5 535 c 128,-1,5
 154 565 154 565 196 565 c 0,6,7
 239 565 239 565 269 534.5 c 128,-1,8
 299 504 299 504 299 462 c 0,9,10
 299 419 299 419 269 389 c 128,-1,11
 239 359 239 359 196 359 c 0,0,1
344 -205 m 0,12,13
 308 -213 308 -213 273 -213 c 0,14,15
 186 -213 186 -213 122 -168 c 0,16,17
 53 -119 53 -119 33 -32 c 0,18,19
 26 -2 26 -2 26 26 c 0,20,21
 26 150 26 150 152 223 c 1,22,-1
 148 239 l 2,23,24
 146 251 146 251 146 262 c 0,25,26
 146 295 146 295 166.5 320 c 128,-1,27
 187 345 187 345 222 353 c 0,28,29
 235 356 235 356 248 356 c 0,30,31
 320 356 320 356 337 283 c 2,32,-1
 360 185 l 2,33,34
 362 177 362 177 362 168 c 0,35,36
 362 131 362 131 297 97 c 128,-1,37
 232 63 232 63 232 30 c 0,38,39
 232 23 232 23 234 15 c 0,40,41
 243 -23 243 -23 288 -23 c 0,42,43
 295 -23 295 -23 302 -22 c 0,44,45
 334 -14 334 -14 365.5 44 c 128,-1,46
 397 102 397 102 436 111 c 0,47,48
 447 113 447 113 457 113 c 0,49,50
 488 113 488 113 511 91.5 c 128,-1,51
 534 70 534 70 542 36 c 0,52,53
 546 19 546 19 546 2 c 0,54,55
 546 -72 546 -72 476 -135 c 0,56,57
 416 -189 416 -189 344 -205 c 0,12,13
EndSplineSet
Validated: 1
EndChar

StartChar: Agrave
Encoding: 192 192 129
Width: 556
GlyphClass: 2
Flags: W
LayerCount: 2
Fore
SplineSet
404 -91 m 0,0,1
 333 -67 333 -67 333 27 c 0,2,3
 333 37 333 37 333 56 c 0,4,5
 334 76 334 76 334 86 c 1,6,-1
 104 160 l 1,7,8
 55 92 55 92 52 89 c 0,9,10
 19 53 19 53 -20 53 c 0,11,12
 -37 53 -37 53 -55 59 c 0,13,14
 -85 68 -85 68 -104.5 93.5 c 128,-1,15
 -124 119 -124 119 -124 151 c 0,16,17
 -124 184 -124 184 -99 216 c 2,18,-1
 261 672 l 2,19,20
 308 732 308 732 376 732 c 0,21,22
 396 732 396 732 415 726 c 0,23,24
 505 697 505 697 509 591 c 2,25,-1
 527 13 l 2,26,27
 528 -15 528 -15 522 -33 c 0,28,29
 502 -96 502 -96 435 -96 c 0,30,31
 419 -96 419 -96 404 -91 c 0,0,1
335 489 m 1,32,33
 300 432 300 432 219 321 c 1,34,-1
 334 283 l 1,35,-1
 335 489 l 1,32,33
446 706 m 2,36,-1
 436 708 l 2,37,38
 427 710 427 710 400 729 c 2,39,-1
 301 797 l 2,40,41
 262 824 262 824 262 867 c 0,42,43
 262 878 262 878 264 890 c 0,44,45
 270 915 270 915 293.5 936.5 c 128,-1,46
 317 958 317 958 346 958 c 0,47,48
 370 958 370 958 404 934 c 2,49,-1
 517 854 l 1,50,51
 545 831 545 831 545 798 c 0,52,53
 545 766 545 766 518.5 735.5 c 128,-1,54
 492 705 492 705 460 705 c 0,55,56
 453 705 453 705 446 706 c 2,36,-1
EndSplineSet
Validated: 37
EndChar

StartChar: Aacute
Encoding: 193 193 130
Width: 695
GlyphClass: 2
Flags: W
LayerCount: 2
Fore
SplineSet
673 53 m 0,0,1
 657 49 657 49 643 49 c 0,2,3
 601 49 601 49 569 87 c 0,4,5
 564 93 564 93 520 165 c 1,6,-1
 285 107 l 1,7,8
 279 17 279 17 275 4 c 0,9,10
 260 -50 260 -50 204 -64 c 0,11,12
 192 -67 192 -67 179 -67 c 0,13,14
 146 -67 146 -67 119.5 -48 c 128,-1,15
 93 -29 93 -29 85 4 c 0,16,17
 81 22 81 22 83 47 c 2,18,-1
 147 623 l 2,19,20
 152 668 152 668 177 702 c 0,21,22
 205 740 205 740 249 751 c 0,23,24
 266 755 266 755 282 755 c 0,25,26
 354 755 354 755 400 686 c 2,27,-1
 722 206 l 2,28,29
 737 182 737 182 742 164 c 0,30,31
 745 153 745 153 745 141 c 0,32,33
 745 110 745 110 724.5 85.5 c 128,-1,34
 704 61 704 61 673 53 c 0,0,1
307 507 m 1,35,36
 307 440 307 440 297 303 c 1,37,-1
 415 333 l 1,38,-1
 307 507 l 1,35,36
279 787 m 2,39,-1
 172 732 l 1,40,41
 151 720 151 720 149 720 c 0,42,43
 141 717 141 717 125 715 c 0,44,45
 89 711 89 711 63 743 c 0,46,47
 41 770 41 770 37 804 c 0,48,49
 33 846 33 846 72 871 c 2,50,-1
 80 876 l 1,51,-1
 194 936 l 2,52,53
 221 951 221 951 239 953 c 0,54,55
 273 957 273 957 300 929 c 0,56,57
 324 905 324 905 327 875 c 0,58,59
 333 815 333 815 279 787 c 2,39,-1
EndSplineSet
Validated: 33
EndChar

StartChar: Acircumflex
Encoding: 194 194 131
Width: 617
GlyphClass: 2
Flags: W
LayerCount: 2
Fore
SplineSet
550 -38 m 0,0,1
 491 -36 491 -36 465 13 c 0,2,3
 458 26 458 26 434 112 c 1,4,-1
 192 121 l 1,5,6
 162 36 162 36 155 25 c 0,7,8
 125 -23 125 -23 67 -21 c 0,9,10
 27 -20 27 -20 -1.5 8.5 c 128,-1,11
 -30 37 -30 37 -28 77 c 0,12,13
 -28 96 -28 96 -18 119 c 2,14,-1
 201 655 l 2,15,16
 219 697 219 697 252 723 c 0,17,18
 289 752 289 752 335 750 c 0,19,20
 430 747 430 747 462 646 c 2,21,-1
 639 96 l 2,22,23
 648 69 648 69 647 50 c 0,24,25
 646 10 646 10 617 -14.5 c 128,-1,26
 588 -39 588 -39 550 -38 c 0,0,1
324 500 m 1,27,28
 305 436 305 436 258 307 c 1,29,-1
 379 302 l 1,30,-1
 324 500 l 1,27,28
412 763 m 0,31,32
 405 761 405 761 392 761 c 0,33,34
 380 761 380 761 316 770 c 1,35,36
 297 754 297 754 278 738 c 0,37,38
 251 717 251 717 237 713 c 0,39,40
 227 710 227 710 216 710 c 0,41,42
 187 710 187 710 162.5 729 c 128,-1,43
 138 748 138 748 130 775 c 0,44,45
 126 788 126 788 126 801 c 0,46,47
 126 841 126 841 166 873 c 2,48,-1
 264 950 l 1,49,-1
 388 936 l 2,50,51
 454 929 454 929 470 872 c 0,52,53
 473 862 473 862 473 850 c 0,54,55
 473 821 473 821 456.5 796 c 128,-1,56
 440 771 440 771 412 763 c 0,31,32
EndSplineSet
Validated: 37
EndChar

StartChar: Atilde
Encoding: 195 195 132
Width: 617
GlyphClass: 2
Flags: W
LayerCount: 2
Fore
SplineSet
550 -38 m 0,0,1
 491 -36 491 -36 465 13 c 0,2,3
 458 26 458 26 434 112 c 1,4,-1
 192 121 l 1,5,6
 162 36 162 36 155 25 c 0,7,8
 125 -23 125 -23 67 -21 c 0,9,10
 27 -20 27 -20 -1.5 8.5 c 128,-1,11
 -30 37 -30 37 -28 77 c 0,12,13
 -28 96 -28 96 -18 119 c 2,14,-1
 201 655 l 2,15,16
 219 697 219 697 252 723 c 0,17,18
 289 752 289 752 335 750 c 0,19,20
 430 747 430 747 462 646 c 2,21,-1
 639 96 l 2,22,23
 648 69 648 69 647 50 c 0,24,25
 646 10 646 10 617 -14.5 c 128,-1,26
 588 -39 588 -39 550 -38 c 0,0,1
324 500 m 1,27,28
 305 436 305 436 258 307 c 1,29,-1
 379 302 l 1,30,-1
 324 500 l 1,27,28
238 778 m 0,31,32
 234 778 234 778 214.5 770.5 c 128,-1,33
 195 763 195 763 178 763 c 0,34,35
 144 763 144 763 120.5 791.5 c 128,-1,36
 97 820 97 820 103 853 c 0,37,38
 111 898 111 898 144 923 c 0,39,40
 174 946 174 946 216 946 c 0,41,42
 246 946 246 946 277 933 c 0,43,44
 278 932 278 932 333 905 c 0,45,46
 343 900 343 900 347 900 c 1,47,48
 349 899 349 899 379.5 908.5 c 128,-1,49
 410 918 410 918 429 915 c 0,50,51
 487 904 487 904 487 839 c 0,52,53
 487 792 487 792 450 762 c 128,-1,54
 413 732 413 732 365 732 c 0,55,56
 335 732 335 732 297 752 c 0,57,58
 254 775 254 775 238 778 c 0,31,32
EndSplineSet
Validated: 37
EndChar

StartChar: Adieresis
Encoding: 196 196 133
Width: 670
GlyphClass: 2
Flags: W
LayerCount: 2
Fore
SplineSet
610 13 m 0,0,1
 562 13 562 13 532 56 c 0,2,3
 526 64 526 64 488 142 c 1,4,-1
 249 109 l 1,5,6
 234 19 234 19 225 1 c 0,7,8
 201 -53 201 -53 136 -53 c 0,9,10
 100 -53 100 -53 72 -31 c 128,-1,11
 44 -9 44 -9 39 28 c 0,12,13
 37 46 37 46 42 70 c 2,14,-1
 165 637 l 2,15,16
 176 688 176 688 212.5 721.5 c 128,-1,17
 249 755 249 755 300 755 c 0,18,19
 381 755 381 755 424 673 c 2,20,-1
 693 162 l 2,21,22
 707 137 707 137 709 118 c 0,23,24
 716 73 716 73 685.5 43 c 128,-1,25
 655 13 655 13 610 13 c 0,0,1
312 505 m 1,26,27
 306 439 306 439 282 303 c 1,28,-1
 402 320 l 1,29,-1
 312 505 l 1,26,27
331 766 m 0,30,31
 290 766 290 766 262 794.5 c 128,-1,32
 234 823 234 823 234 863 c 0,33,34
 234 904 234 904 262.5 932 c 128,-1,35
 291 960 291 960 331 960 c 0,36,37
 372 960 372 960 400 931.5 c 128,-1,38
 428 903 428 903 428 863 c 0,39,40
 428 822 428 822 399.5 794 c 128,-1,41
 371 766 371 766 331 766 c 0,30,31
119 705 m 256,42,43
 79 705 79 705 51 734 c 128,-1,44
 23 763 23 763 23 803 c 256,45,46
 23 843 23 843 51.5 871 c 128,-1,47
 80 899 80 899 120 899 c 256,48,49
 160 899 160 899 188.5 870.5 c 128,-1,50
 217 842 217 842 217 802 c 256,51,52
 217 762 217 762 188 733.5 c 128,-1,53
 159 705 159 705 119 705 c 256,42,43
EndSplineSet
Validated: 33
EndChar

StartChar: Aring
Encoding: 197 197 134
Width: 556
GlyphClass: 2
Flags: W
LayerCount: 2
Fore
SplineSet
404 -91 m 0,0,1
 332 -67 332 -67 332 27 c 0,2,3
 332 37 332 37 333 56.5 c 128,-1,4
 334 76 334 76 334 86 c 1,5,-1
 104 160 l 1,6,7
 55 92 55 92 52 89 c 0,8,9
 18 53 18 53 -21 53 c 0,10,11
 -37 53 -37 53 -55 59 c 0,12,13
 -86 68 -86 68 -105.5 93.5 c 128,-1,14
 -125 119 -125 119 -125 151 c 0,15,16
 -125 184 -125 184 -99 217 c 2,17,-1
 260 672 l 2,18,19
 308 732 308 732 376 732 c 0,20,21
 395 732 395 732 415 726 c 0,22,23
 505 697 505 697 508 591 c 2,24,-1
 527 13 l 2,25,26
 527 -15 527 -15 521 -33 c 0,27,28
 501 -96 501 -96 434 -96 c 0,29,30
 419 -96 419 -96 404 -91 c 0,0,1
335 489 m 1,31,32
 299 432 299 432 219 321 c 1,33,-1
 334 283 l 1,34,-1
 335 489 l 1,31,32
364 706 m 0,35,36
 325 718 325 718 301 751 c 128,-1,37
 277 784 277 784 277 824 c 0,38,39
 277 843 277 843 282 861 c 0,40,41
 294 900 294 900 327 924 c 128,-1,42
 360 948 360 948 400 948 c 0,43,44
 419 948 419 948 437 943 c 0,45,46
 477 931 477 931 501 898 c 128,-1,47
 525 865 525 865 525 825 c 0,48,49
 525 806 525 806 519 788 c 0,50,51
 507 748 507 748 474 724 c 128,-1,52
 441 700 441 700 401 700 c 0,53,54
 382 700 382 700 364 706 c 0,35,36
406 843 m 1,55,56
 387 849 387 849 381 830 c 0,57,58
 376 811 376 811 395 805 c 256,59,60
 414 799 414 799 420 818 c 0,61,62
 426 838 426 838 406 843 c 1,55,56
EndSplineSet
Validated: 5
EndChar

StartChar: AE
Encoding: 198 198 135
Width: 845
GlyphClass: 2
Flags: W
LayerCount: 2
Fore
SplineSet
716 -53 m 2,0,-1
 459 -31 l 2,1,2
 416 -27 416 -27 389 3.5 c 128,-1,3
 362 34 362 34 366 78 c 2,4,-1
 368 103 l 1,5,-1
 179 119 l 1,6,7
 128 45 128 45 122 39 c 0,8,9
 83 -4 83 -4 36 0 c 0,10,11
 -2 3 -2 3 -28 28 c 0,12,13
 -57 56 -57 56 -53 96 c 0,14,15
 -51 125 -51 125 -31 154 c 2,16,-1
 328 698 l 2,17,18
 357 743 357 743 424 737 c 2,19,-1
 773 707 l 2,20,21
 818 703 818 703 841 672.5 c 128,-1,22
 864 642 864 642 861 605 c 0,23,24
 857 568 857 568 831 543 c 0,25,26
 801 515 801 515 757 519 c 2,27,-1
 606 532 l 1,28,-1
 598 437 l 1,29,-1
 736 425 l 2,30,31
 782 421 782 421 807 389 c 0,32,33
 829 361 829 361 826 323 c 256,34,35
 823 285 823 285 795 261 c 1,36,37
 765 233 765 233 720 237 c 2,38,-1
 582 250 l 1,39,-1
 573 148 l 1,40,-1
 732 134 l 2,41,42
 777 130 777 130 801 98 c 0,43,44
 823 70 823 70 820 32 c 1,45,46
 816 -5 816 -5 790 -30 c 1,47,48
 760 -57 760 -57 716 -53 c 2,0,-1
400 463 m 1,49,50
 361 400 361 400 292 295 c 1,51,-1
 384 287 l 1,52,-1
 400 463 l 1,49,50
EndSplineSet
Validated: 33
EndChar

StartChar: Ccedilla
Encoding: 199 199 136
Width: 595
GlyphClass: 2
Flags: W
LayerCount: 2
Fore
SplineSet
287 -28 m 1,0,1
 159 -5 159 -5 76.5 97 c 128,-1,2
 -6 199 -6 199 -13 340 c 0,3,4
 -22 507 -22 507 75.5 625 c 128,-1,5
 173 743 173 743 335 751 c 0,6,7
 416 756 416 756 488 729 c 0,8,9
 578 694 578 694 582 627 c 0,10,11
 584 590 584 590 561 561.5 c 128,-1,12
 538 533 538 533 500 531 c 0,13,14
 480 530 480 530 429 546 c 1,15,16
 388 560 388 560 345 558 c 0,17,18
 269 554 269 554 228.5 495 c 128,-1,19
 188 436 188 436 193 347 c 0,20,21
 197 262 197 262 243.5 209 c 128,-1,22
 290 156 290 156 366 160 c 0,23,24
 406 162 406 162 453.5 185.5 c 128,-1,25
 501 209 501 209 523 211 c 0,26,27
 566 213 566 213 594 179 c 0,28,29
 617 152 617 152 618 122 c 0,30,31
 622 55 622 55 544 12 c 0,32,33
 483 -22 483 -22 401 -31 c 1,34,-1
 380 -62 l 1,35,-1
 358 -23 l 1,36,37
 361 -23 361 -23 368.5 -21 c 128,-1,38
 376 -19 376 -19 379 -19 c 0,39,40
 422 -17 422 -17 452 -43 c 128,-1,41
 482 -69 482 -69 485 -115 c 0,42,43
 488 -173 488 -173 442 -209 c 0,44,45
 404 -238 404 -238 355 -241 c 0,46,47
 315 -243 315 -243 282 -229 c 0,48,49
 238 -211 238 -211 236 -172 c 0,50,51
 235 -151 235 -151 248 -135.5 c 128,-1,52
 261 -120 261 -120 282 -119 c 0,53,54
 291 -118 291 -118 307.5 -122 c 128,-1,55
 324 -126 324 -126 332 -126 c 0,56,57
 339 -126 339 -126 339 -123 c 256,58,59
 339 -120 339 -120 328 -120 c 0,60,61
 299 -118 299 -118 288 -112 c 0,62,63
 270 -103 270 -103 268 -75 c 0,64,65
 267 -60 267 -60 287 -28 c 1,0,1
EndSplineSet
Validated: 37
EndChar

StartChar: Egrave
Encoding: 200 200 137
Width: 503
GlyphClass: 2
Flags: W
LayerCount: 2
Fore
SplineSet
416 -17 m 2,0,-1
 158 -26 l 2,1,2
 115 -27 115 -27 84.5 0 c 128,-1,3
 54 27 54 27 53 71 c 2,4,-1
 33 620 l 2,5,6
 32 668 32 668 56 699 c 0,7,8
 82 734 82 734 132 736 c 2,9,-1
 380 745 l 2,10,11
 426 746 426 746 452 719 c 128,-1,12
 478 692 478 692 480 654 c 0,13,14
 481 617 481 617 457 589 c 0,15,16
 431 558 431 558 387 557 c 2,17,-1
 236 551 l 1,18,-1
 239 455 l 1,19,-1
 378 460 l 2,20,21
 424 462 424 462 451 435 c 128,-1,22
 478 408 478 408 479 370 c 0,23,24
 481 332 481 332 456 305 c 1,25,26
 430 274 430 274 385 272 c 2,27,-1
 246 268 l 1,28,-1
 249 166 l 1,29,-1
 409 171 l 2,30,31
 455 173 455 173 482 144 c 1,32,33
 507 119 507 119 509 81 c 0,34,35
 510 43 510 43 486 16 c 1,36,37
 460 -15 460 -15 416 -17 c 2,0,-1
238 741 m 2,38,-1
 229 739 l 2,39,40
 219 737 219 737 188 741 c 2,41,-1
 69 759 l 2,42,43
 35 764 35 764 14 787 c 128,-1,44
 -7 810 -7 810 -7 843 c 0,45,46
 -7 872 -7 872 7 895 c 0,47,48
 24 922 24 922 52 929 c 0,49,50
 70 933 70 933 101 928 c 2,51,-1
 237 905 l 1,52,53
 295 892 295 892 295 830 c 0,54,55
 295 754 295 754 238 741 c 2,38,-1
EndSplineSet
Validated: 37
EndChar

StartChar: Eacute
Encoding: 201 201 138
Width: 498
GlyphClass: 2
Flags: W
LayerCount: 2
Fore
SplineSet
262 -47 m 2,0,-1
 14 24 l 2,1,2
 -20 34 -20 34 -40.5 60 c 128,-1,3
 -61 86 -61 86 -61 119 c 0,4,5
 -61 134 -61 134 -57 149 c 2,6,-1
 95 677 l 2,7,8
 119 762 119 762 192 762 c 0,9,10
 208 762 208 762 225 757 c 2,11,-1
 463 688 l 2,12,13
 534 668 534 668 534 599 c 0,14,15
 534 560 534 560 507 531.5 c 128,-1,16
 480 503 480 503 441 503 c 0,17,18
 427 503 427 503 411 508 c 2,19,-1
 266 549 l 1,20,-1
 240 457 l 1,21,-1
 373 419 l 2,22,23
 446 398 446 398 446 328 c 0,24,25
 446 289 446 289 419 261 c 128,-1,26
 392 233 392 233 352 233 c 0,27,28
 337 233 337 233 322 238 c 2,29,-1
 188 276 l 1,30,-1
 160 178 l 1,31,-1
 314 134 l 2,32,33
 384 114 384 114 384 45 c 0,34,35
 384 6 384 6 357.5 -22.5 c 128,-1,36
 331 -51 331 -51 291 -51 c 0,37,38
 277 -51 277 -51 262 -47 c 2,0,-1
336 765 m 2,39,-1
 216 758 l 2,40,41
 185 756 185 756 166 762 c 0,42,43
 116 778 116 778 116 844 c 0,44,45
 116 863 116 863 122 879 c 1,46,47
 134 919 134 919 181 925 c 1,48,-1
 190 927 l 1,49,-1
 318 936 l 2,50,51
 350 938 350 938 367 933 c 0,52,53
 419 916 419 916 419 851 c 0,54,55
 419 815 419 815 395.5 791 c 128,-1,56
 372 767 372 767 336 765 c 2,39,-1
EndSplineSet
Validated: 37
EndChar

StartChar: Ecircumflex
Encoding: 202 202 139
Width: 498
GlyphClass: 2
Flags: W
LayerCount: 2
Fore
SplineSet
261 -47 m 2,0,-1
 13 25 l 2,1,2
 -20 34 -20 34 -40.5 60 c 128,-1,3
 -61 86 -61 86 -61 119 c 0,4,5
 -61 134 -61 134 -57 149 c 2,6,-1
 95 677 l 2,7,8
 119 762 119 762 192 762 c 0,9,10
 207 762 207 762 224 757 c 2,11,-1
 463 688 l 2,12,13
 533 668 533 668 533 599 c 0,14,15
 533 560 533 560 506.5 531.5 c 128,-1,16
 480 503 480 503 441 503 c 0,17,18
 426 503 426 503 411 508 c 2,19,-1
 266 549 l 1,20,-1
 239 457 l 1,21,-1
 373 419 l 2,22,23
 445 398 445 398 445 328 c 0,24,25
 445 289 445 289 418 261 c 128,-1,26
 391 233 391 233 352 233 c 0,27,28
 337 233 337 233 321 238 c 2,29,-1
 188 276 l 1,30,-1
 159 178 l 1,31,-1
 313 134 l 2,32,33
 384 114 384 114 384 45 c 0,34,35
 384 6 384 6 357 -22.5 c 128,-1,36
 330 -51 330 -51 291 -51 c 0,37,38
 277 -51 277 -51 261 -47 c 2,0,-1
372 746 m 0,39,40
 356 744 356 744 277 766 c 1,41,42
 256 753 256 753 235 740 c 0,43,44
 206 723 206 723 191 721 c 0,45,46
 153 716 153 716 123 744.5 c 128,-1,47
 93 773 93 773 93 812 c 0,48,49
 93 860 93 860 143 889 c 2,50,-1
 251 951 l 1,51,-1
 372 921 l 2,52,53
 436 905 436 905 444 846 c 0,54,55
 449 813 449 813 427.5 782 c 128,-1,56
 406 751 406 751 372 746 c 0,39,40
EndSplineSet
Validated: 37
EndChar

StartChar: Edieresis
Encoding: 203 203 140
Width: 496
GlyphClass: 2
Flags: W
LayerCount: 2
Fore
SplineSet
271 -46 m 2,0,-1
 21 21 l 2,1,2
 -13 30 -13 30 -34 55.5 c 128,-1,3
 -55 81 -55 81 -55 115 c 0,4,5
 -55 129 -55 129 -51 144 c 2,6,-1
 91 675 l 2,7,8
 114 761 114 761 188 761 c 0,9,10
 203 761 203 761 219 756 c 2,11,-1
 459 692 l 2,12,13
 531 673 531 673 531 603 c 0,14,15
 531 563 531 563 504.5 535 c 128,-1,16
 478 507 478 507 438 507 c 0,17,18
 425 507 425 507 410 511 c 2,19,-1
 265 550 l 1,20,-1
 240 457 l 1,21,-1
 374 421 l 2,22,23
 448 401 448 401 448 330 c 0,24,25
 448 291 448 291 421 263 c 128,-1,26
 394 235 394 235 354 235 c 0,27,28
 340 235 340 235 325 239 c 2,29,-1
 191 275 l 1,30,-1
 165 177 l 1,31,-1
 319 135 l 2,32,33
 391 116 391 116 391 46 c 0,34,35
 391 7 391 7 364.5 -21.5 c 128,-1,36
 338 -50 338 -50 299 -50 c 0,37,38
 285 -50 285 -50 271 -46 c 2,0,-1
368 738 m 0,39,40
 327 739 327 739 299.5 767.5 c 128,-1,41
 272 796 272 796 272 837 c 1,42,43
 273 877 273 877 302 905 c 128,-1,44
 331 933 331 933 371 932 c 256,45,46
 411 931 411 931 439 902.5 c 128,-1,47
 467 874 467 874 466 833 c 0,48,49
 465 793 465 793 436.5 765 c 128,-1,50
 408 737 408 737 368 738 c 0,39,40
148 742 m 0,51,52
 107 743 107 743 79.5 771.5 c 128,-1,53
 52 800 52 800 52 841 c 1,54,55
 53 881 53 881 82 908.5 c 128,-1,56
 111 936 111 936 151 936 c 0,57,58
 191 935 191 935 219 906 c 128,-1,59
 247 877 247 877 246 837 c 0,60,61
 246 797 246 797 217 769 c 128,-1,62
 188 741 188 741 148 742 c 0,51,52
EndSplineSet
Validated: 37
EndChar

StartChar: Igrave
Encoding: 204 204 141
Width: 286
GlyphClass: 2
Flags: W
LayerCount: 2
Fore
SplineSet
203 -21 m 0,0,1
 167 -21 167 -21 140.5 1.5 c 128,-1,2
 114 24 114 24 107 65 c 2,3,-1
 8 624 l 2,4,5
 6 636 6 636 6 647 c 0,6,7
 6 690 6 690 35.5 717.5 c 128,-1,8
 65 745 65 745 109 745 c 0,9,10
 145 745 145 745 171.5 722.5 c 128,-1,11
 198 700 198 700 205 659 c 2,12,-1
 304 100 l 2,13,14
 306 88 306 88 306 77 c 0,15,16
 306 34 306 34 276.5 6.5 c 128,-1,17
 247 -21 247 -21 203 -21 c 0,0,1
99 743 m 1,18,-1
 90 740 l 2,19,20
 81 737 81 737 48 738 c 2,21,-1
 -72 743 l 2,22,23
 -109 745 -109 745 -133 769 c 128,-1,24
 -157 793 -157 793 -157 829 c 0,25,26
 -157 859 -157 859 -141.5 883 c 128,-1,27
 -126 907 -126 907 -98 913 c 0,28,29
 -83 916 -83 916 -57 915 c 2,30,-1
 81 907 l 1,31,32
 127 901 127 901 141 861 c 0,33,34
 146 844 146 844 146 824 c 0,35,36
 146 760 146 760 99 743 c 1,18,-1
EndSplineSet
Validated: 37
EndChar

StartChar: Iacute
Encoding: 205 205 142
Width: 287
GlyphClass: 2
Flags: W
LayerCount: 2
Fore
SplineSet
-48 0 m 0,0,1
 -111 25 -111 25 -111 89 c 0,2,3
 -111 111 -111 111 -102 133 c 2,4,-1
 111 660 l 2,5,6
 138 726 138 726 202 726 c 0,7,8
 222 726 222 726 242 718 c 0,9,10
 305 692 305 692 305 629 c 0,11,12
 305 607 305 607 296 585 c 2,13,-1
 84 58 l 2,14,15
 57 -8 57 -8 -7 -8 c 0,16,17
 -27 -8 -27 -8 -48 0 c 0,0,1
232 765 m 2,18,-1
 113 748 l 2,19,20
 81 743 81 743 63 747 c 0,21,22
 6 761 6 761 6 836 c 0,23,24
 6 898 6 898 64 912 c 1,25,-1
 73 914 l 1,26,-1
 200 935 l 2,27,28
 231 940 231 940 249 935 c 1,29,30
 277 929 277 929 292.5 903.5 c 128,-1,31
 308 878 308 878 308 850 c 0,32,33
 308 817 308 817 287 793.5 c 128,-1,34
 266 770 266 770 232 765 c 2,18,-1
EndSplineSet
Validated: 33
EndChar

StartChar: Icircumflex
Encoding: 206 206 143
Width: 260
GlyphClass: 2
Flags: W
LayerCount: 2
Fore
SplineSet
85 -29 m 256,0,1
 42 -24 42 -24 16.5 6.5 c 128,-1,2
 -9 37 -9 37 -4 84 c 2,3,-1
 56 649 l 2,4,5
 61 696 61 696 92 720.5 c 128,-1,6
 123 745 123 745 166 741 c 0,7,8
 209 736 209 736 234.5 705.5 c 128,-1,9
 260 675 260 675 255 628 c 2,10,-1
 195 63 l 2,11,12
 190 16 190 16 159 -9 c 128,-1,13
 128 -34 128 -34 85 -29 c 256,0,1
218 762 m 0,14,15
 210 759 210 759 198 759 c 0,16,17
 185 759 185 759 121 768 c 1,18,19
 103 752 103 752 84 737 c 0,20,21
 57 715 57 715 43 711 c 0,22,23
 33 708 33 708 22 708 c 0,24,25
 -7 708 -7 708 -32 727 c 128,-1,26
 -57 746 -57 746 -64 773 c 0,27,28
 -68 787 -68 787 -68 800 c 0,29,30
 -68 840 -68 840 -28 871 c 2,31,-1
 70 948 l 1,32,-1
 194 935 l 2,33,34
 260 928 260 928 276 871 c 0,35,36
 279 860 279 860 279 848 c 0,37,38
 279 819 279 819 262 794 c 128,-1,39
 245 769 245 769 218 762 c 0,14,15
EndSplineSet
Validated: 33
EndChar

StartChar: Idieresis
Encoding: 207 207 144
Width: 336
GlyphClass: 2
Flags: W
LayerCount: 2
Fore
SplineSet
18 -19 m 0,0,1
 -58 0 -58 0 -58 75 c 0,2,3
 -58 90 -58 90 -54 105 c 2,4,-1
 83 656 l 2,5,6
 103 735 103 735 178 735 c 0,7,8
 191 735 191 735 205 732 c 0,9,10
 281 713 281 713 281 638 c 0,11,12
 281 623 281 623 277 608 c 2,13,-1
 140 57 l 2,14,15
 120 -23 120 -23 45 -23 c 0,16,17
 32 -23 32 -23 18 -19 c 0,0,1
260 735 m 1,18,19
 219 736 219 736 192 765.5 c 128,-1,20
 165 795 165 795 166 835 c 0,21,22
 168 875 168 875 197 902.5 c 128,-1,23
 226 930 226 930 267 929 c 1,24,25
 307 927 307 927 334 898 c 128,-1,26
 361 869 361 869 360 828 c 0,27,28
 359 788 359 788 329.5 760.5 c 128,-1,29
 300 733 300 733 260 735 c 1,18,19
40 742 m 0,30,31
 0 744 0 744 -27.5 773 c 128,-1,32
 -55 802 -55 802 -54 843 c 1,33,34
 -52 883 -52 883 -23 910.5 c 128,-1,35
 6 938 6 938 47 936 c 0,36,37
 87 935 87 935 114.5 905.5 c 128,-1,38
 142 876 142 876 140 836 c 0,39,40
 139 796 139 796 109.5 768.5 c 128,-1,41
 80 741 80 741 40 742 c 0,30,31
EndSplineSet
Validated: 33
EndChar

StartChar: Eth
Encoding: 208 208 145
Width: 673
GlyphClass: 2
Flags: W
LayerCount: 2
Fore
SplineSet
358 -20 m 2,0,-1
 186 -47 l 2,1,2
 177 -49 177 -49 168 -49 c 0,3,4
 81 -49 81 -49 67 35 c 2,5,-1
 35 237 l 1,6,7
 27 235 27 235 18 235 c 0,8,9
 -17 235 -17 235 -42 258.5 c 128,-1,10
 -67 282 -67 282 -67 317 c 0,11,12
 -67 346 -67 346 -47.5 369.5 c 128,-1,13
 -28 393 -28 393 8 398 c 1,14,-1
 -20 588 l 2,15,16
 -22 597 -22 597 -22 606 c 0,17,18
 -22 644 -22 644 2 671.5 c 128,-1,19
 26 699 26 699 65 705 c 2,20,-1
 229 731 l 2,21,22
 268 737 268 737 305 737 c 0,23,24
 450 737 450 737 543.5 648 c 128,-1,25
 637 559 637 559 662 404 c 0,26,27
 668 366 668 366 668 330 c 0,28,29
 668 192 668 192 584.5 97.5 c 128,-1,30
 501 3 501 3 358 -20 c 2,0,-1
256 545 m 2,31,-1
 191 534 l 1,32,-1
 207 430 l 1,33,-1
 264 439 l 2,34,35
 272 440 272 440 281 440 c 0,36,37
 314 440 314 440 336.5 420.5 c 128,-1,38
 359 401 359 401 363 371 c 1,39,40
 369 339 369 339 349 311 c 128,-1,41
 329 283 329 283 289 277 c 2,42,-1
 233 268 l 1,43,-1
 251 153 l 1,44,-1
 326 165 l 2,45,46
 461 187 461 187 461 330 c 0,47,48
 461 353 461 353 457 378 c 0,49,50
 431 548 431 548 293 548 c 0,51,52
 275 548 275 548 256 545 c 2,31,-1
EndSplineSet
Validated: 33
EndChar

StartChar: Ntilde
Encoding: 209 209 146
Width: 782
GlyphClass: 2
Flags: W
LayerCount: 2
Fore
SplineSet
513 389 m 1,0,1
 468 459 468 459 363 673 c 1,2,3
 350 697 350 697 350 722 c 0,4,5
 350 781 350 781 408 809 c 0,6,7
 431 820 431 820 454 820 c 0,8,9
 513 820 513 820 543 760 c 2,10,-1
 792 250 l 2,11,12
 804 224 804 224 804 200 c 0,13,14
 804 141 804 141 747 113 c 0,15,16
 729 105 729 105 704 105 c 0,17,18
 675 105 675 105 654 115 c 2,19,-1
 232 328 l 1,20,21
 277 260 277 260 381 49 c 0,22,23
 394 24 394 24 394 -1 c 0,24,25
 394 -59 394 -59 336 -87 c 0,26,27
 313 -98 313 -98 289 -98 c 0,28,29
 230 -98 230 -98 201 -38 c 2,30,-1
 -48 472 l 2,31,32
 -60 497 -60 497 -60 522 c 0,33,34
 -60 581 -60 581 -3 609 c 0,35,36
 14 617 14 617 40 617 c 0,37,38
 69 617 69 617 90 606 c 2,39,-1
 513 389 l 1,0,1
293 729 m 0,40,41
 272 727 272 727 231 735.5 c 128,-1,42
 190 744 190 744 178 742 c 0,43,44
 175 742 175 742 153.5 727 c 128,-1,45
 132 712 132 712 110 709 c 0,46,47
 81 706 81 706 55.5 727.5 c 128,-1,48
 30 749 30 749 27 778 c 0,49,50
 22 829 22 829 55 865 c 0,51,52
 86 898 86 898 135 903 c 0,53,54
 157 905 157 905 234 891 c 0,55,56
 245 889 245 889 249 890 c 0,57,58
 251 890 251 890 278 907.5 c 128,-1,59
 305 925 305 925 323 927 c 0,60,61
 358 930 358 930 381 905 c 0,62,63
 400 884 400 884 403 854 c 0,64,65
 408 806 408 806 372 768 c 1,66,67
 338 734 338 734 293 729 c 0,40,41
EndSplineSet
Validated: 37
EndChar

StartChar: Ograve
Encoding: 210 210 147
Width: 722
GlyphClass: 2
Flags: W
LayerCount: 2
Fore
SplineSet
190 -6 m 0,0,1
 81 38 81 38 21 131 c 0,2,3
 -38 221 -38 221 -38 333 c 0,4,5
 -38 416 -38 416 -5 497 c 0,6,7
 43 614 43 614 136.5 682.5 c 128,-1,8
 230 751 230 751 344 751 c 0,9,10
 415 751 415 751 484 723 c 0,11,12
 593 679 593 679 652 586.5 c 128,-1,13
 711 494 711 494 711 381 c 0,14,15
 711 299 711 299 679 220 c 0,16,17
 632 103 632 103 538 34.5 c 128,-1,18
 444 -34 444 -34 331 -34 c 0,19,20
 260 -34 260 -34 190 -6 c 0,0,1
414 549 m 0,21,22
 385 561 385 561 356 561 c 0,23,24
 302 561 302 561 257 522.5 c 128,-1,25
 212 484 212 484 186 420 c 0,26,27
 164 365 164 365 164 316 c 0,28,29
 164 208 164 208 260 169 c 0,30,31
 291 156 291 156 320 156 c 0,32,33
 431 156 431 156 488 298 c 0,34,35
 510 351 510 351 510 400 c 0,36,37
 510 510 510 510 414 549 c 0,21,22
491 712 m 2,38,-1
 481 714 l 2,39,40
 472 716 472 716 445 735 c 2,41,-1
 346 803 l 2,42,43
 307 830 307 830 307 873 c 0,44,45
 307 884 307 884 309 896 c 0,46,47
 315 921 315 921 338.5 942.5 c 128,-1,48
 362 964 362 964 391 964 c 0,49,50
 415 964 415 964 449 941 c 1,51,-1
 562 860 l 1,52,53
 590 837 590 837 590 804 c 0,54,55
 590 772 590 772 563.5 741.5 c 128,-1,56
 537 711 537 711 505 711 c 0,57,58
 498 711 498 711 491 712 c 2,38,-1
EndSplineSet
Validated: 5
EndChar

StartChar: Oacute
Encoding: 211 211 148
Width: 723
GlyphClass: 2
Flags: W
LayerCount: 2
Fore
SplineSet
266 -27 m 0,0,1
 134 4 134 4 57 106 c 0,2,3
 -17 205 -17 205 -17 337 c 0,4,5
 -17 388 -17 388 -5 439 c 0,6,7
 27 578 27 578 125.5 663.5 c 128,-1,8
 224 749 224 749 355 749 c 0,9,10
 399 749 399 749 443 739 c 0,11,12
 573 709 573 709 651 605 c 1,13,14
 725 504 725 504 725 372 c 0,15,16
 725 323 725 323 714 273 c 0,17,18
 682 135 682 135 583.5 49 c 128,-1,19
 485 -37 485 -37 354 -37 c 0,20,21
 310 -37 310 -37 266 -27 c 0,0,1
400 556 m 0,22,23
 382 560 382 560 363 560 c 0,24,25
 302 560 302 560 257.5 514 c 128,-1,26
 213 468 213 468 195 393 c 0,27,28
 187 357 187 357 187 324 c 0,29,30
 187 184 187 184 308 156 c 0,31,32
 328 152 328 152 346 152 c 0,33,34
 408 152 408 152 452 198 c 128,-1,35
 496 244 496 244 513 320 c 0,36,37
 521 354 521 354 521 387 c 0,38,39
 521 451 521 451 490 496.5 c 128,-1,40
 459 542 459 542 400 556 c 0,22,23
459 766 m 2,41,-1
 339 756 l 2,42,43
 307 754 307 754 289 759 c 0,44,45
 238 775 238 775 238 843 c 0,46,47
 238 861 238 861 243 876 c 0,48,49
 255 916 255 916 301 923 c 1,50,-1
 311 925 l 1,51,-1
 439 936 l 2,52,53
 470 939 470 939 487 934 c 0,54,55
 541 918 541 918 541 851 c 0,56,57
 541 816 541 816 518 792 c 128,-1,58
 495 768 495 768 459 766 c 2,41,-1
EndSplineSet
Validated: 33
EndChar

StartChar: Ocircumflex
Encoding: 212 212 149
Width: 758
GlyphClass: 2
Flags: W
LayerCount: 2
Fore
SplineSet
411 -33 m 1,0,1
 238 -46 238 -46 124 76 c 0,2,3
 15 192 15 192 15 366 c 0,4,5
 15 522 15 522 109 631 c 128,-1,6
 203 740 203 740 357 751 c 0,7,8
 528 763 528 763 643 641 c 0,9,10
 753 523 753 523 753 351 c 0,11,12
 753 196 753 196 661 88 c 1,13,14
 565 -23 565 -23 411 -33 c 1,0,1
370 563 m 256,15,16
 294 558 294 558 253 495 c 0,17,18
 215 436 215 436 221 347 c 0,19,20
 228 257 228 257 273 205 c 0,21,22
 321 149 321 149 398 154 c 0,23,24
 475 160 475 160 515 222 c 0,25,26
 553 280 553 280 547 370 c 1,27,28
 540 459 540 459 493 513.5 c 128,-1,29
 446 568 446 568 370 563 c 256,15,16
432 808 m 0,30,31
 426 807 426 807 418 807 c 0,32,33
 404 807 404 807 336 820 c 1,34,35
 316 805 316 805 296 790 c 1,36,37
 268 771 268 771 254 767 c 1,38,39
 246 766 246 766 237 766 c 0,40,41
 207 766 207 766 182 786 c 128,-1,42
 157 806 157 806 150 835 c 0,43,44
 148 846 148 846 148 857 c 0,45,46
 148 900 148 900 191 931 c 2,47,-1
 293 1002 l 1,48,-1
 416 983 l 2,49,50
 497 970 497 970 497 896 c 0,51,52
 497 866 497 866 479 840.5 c 128,-1,53
 461 815 461 815 432 808 c 0,30,31
EndSplineSet
Validated: 33
EndChar

StartChar: Otilde
Encoding: 213 213 150
Width: 723
GlyphClass: 2
Flags: W
LayerCount: 2
Fore
SplineSet
257 -25 m 0,0,1
 128 7 128 7 53 108 c 0,2,3
 -19 206 -19 206 -19 336 c 0,4,5
 -19 391 -19 391 -6 446 c 0,6,7
 28 582 28 582 126.5 665.5 c 128,-1,8
 225 749 225 749 354 749 c 0,9,10
 400 749 400 749 447 738 c 0,11,12
 575 706 575 706 651 603 c 1,13,14
 723 503 723 503 723 373 c 0,15,16
 723 320 723 320 710 267 c 0,17,18
 676 131 676 131 578 47 c 128,-1,19
 480 -37 480 -37 351 -37 c 0,20,21
 305 -37 305 -37 257 -25 c 0,0,1
402 555 m 0,22,23
 382 560 382 560 362 560 c 0,24,25
 302 560 302 560 257.5 515 c 128,-1,26
 213 470 213 470 194 396 c 0,27,28
 185 358 185 358 185 322 c 0,29,30
 185 187 185 187 303 157 c 0,31,32
 324 152 324 152 343 152 c 0,33,34
 404 152 404 152 448 197 c 128,-1,35
 492 242 492 242 510 317 c 1,36,37
 520 354 520 354 520 388 c 0,38,39
 520 451 520 451 490 496 c 128,-1,40
 460 541 460 541 402 555 c 0,22,23
375 756 m 128,-1,42
 341 780 341 780 330 784 c 0,43,44
 325 785 325 785 310 782 c 1,45,46
 292 777 292 777 280 777 c 0,47,48
 267 777 267 777 254 781 c 0,49,50
 232 788 232 788 217.5 810 c 128,-1,51
 203 832 203 832 203 857 c 0,52,53
 203 868 203 868 207 878 c 0,54,55
 232 955 232 955 313 955 c 0,56,57
 335 955 335 955 356 948 c 128,-1,58
 377 941 377 941 442 897 c 0,59,60
 450 891 450 891 454 890 c 0,61,62
 457 889 457 889 477 892 c 0,63,64
 501 896 501 896 515 896 c 0,65,66
 546 896 546 896 566 876 c 128,-1,67
 586 856 586 856 586 823 c 0,68,69
 586 777 586 777 550.5 748 c 128,-1,70
 515 719 515 719 468 719 c 0,71,72
 447 719 447 719 428 725.5 c 128,-1,41
 409 732 409 732 375 756 c 128,-1,42
EndSplineSet
Validated: 5
EndChar

StartChar: Odieresis
Encoding: 214 214 151
Width: 725
GlyphClass: 2
Flags: W
LayerCount: 2
Fore
SplineSet
266 -27 m 0,0,1
 135 4 135 4 57 106 c 1,2,3
 -17 205 -17 205 -17 337 c 0,4,5
 -17 388 -17 388 -5 439 c 0,6,7
 27 578 27 578 125.5 663.5 c 128,-1,8
 224 749 224 749 355 749 c 0,9,10
 399 749 399 749 443 739 c 0,11,12
 573 709 573 709 651 605 c 1,13,14
 725 504 725 504 725 372 c 0,15,16
 725 323 725 323 714 273 c 0,17,18
 682 135 682 135 583.5 49 c 128,-1,19
 485 -37 485 -37 354 -37 c 0,20,21
 310 -37 310 -37 266 -27 c 0,0,1
400 556 m 0,22,23
 382 560 382 560 364 560 c 0,24,25
 302 560 302 560 257.5 514 c 128,-1,26
 213 468 213 468 196 393 c 0,27,28
 187 357 187 357 187 324 c 0,29,30
 187 184 187 184 308 156 c 0,31,32
 328 152 328 152 346 152 c 0,33,34
 408 152 408 152 452 198 c 128,-1,35
 496 244 496 244 513 320 c 0,36,37
 521 354 521 354 521 387 c 0,38,39
 521 451 521 451 490 496.5 c 128,-1,40
 459 542 459 542 400 556 c 0,22,23
496 737 m 0,41,42
 456 738 456 738 428 766.5 c 128,-1,43
 400 795 400 795 401 836 c 0,44,45
 402 876 402 876 430.5 904 c 128,-1,46
 459 932 459 932 500 931 c 0,47,48
 540 930 540 930 568 901.5 c 128,-1,49
 596 873 596 873 595 832 c 0,50,51
 594 792 594 792 565.5 764 c 128,-1,52
 537 736 537 736 496 737 c 0,41,42
276 741 m 0,53,54
 236 742 236 742 208 770.5 c 128,-1,55
 180 799 180 799 181 840 c 0,56,57
 182 880 182 880 210.5 908 c 128,-1,58
 239 936 239 936 280 935 c 0,59,60
 320 934 320 934 348 905.5 c 128,-1,61
 376 877 376 877 375 836 c 0,62,63
 374 796 374 796 345.5 768 c 128,-1,64
 317 740 317 740 276 741 c 0,53,54
EndSplineSet
Validated: 37
EndChar

StartChar: multiply
Encoding: 215 215 152
Width: 562
GlyphClass: 2
Flags: W
LayerCount: 2
Fore
SplineSet
479 15 m 1,1,2
 444 12 444 12 376 71 c 1,3,4
 342 104 342 104 308 136 c 1,5,6
 279 99 279 99 250 63 c 1,7,8
 191 -5 191 -5 156 -8 c 0,9,10
 122 -10 122 -10 93 13.5 c 128,-1,11
 64 37 64 37 62 71 c 0,12,13
 60 103 60 103 84 131 c 2,14,-1
 183 245 l 1,15,16
 146 274 146 274 110 303 c 1,17,18
 42 362 42 362 39 397 c 0,19,20
 37 431 37 431 60.5 460 c 128,-1,21
 84 489 84 489 118 491 c 0,22,23
 150 493 150 493 178 469 c 2,24,-1
 292 370 l 1,25,-1
 390 484 l 2,26,27
 415 512 415 512 447 514 c 0,28,29
 481 516 481 516 508.5 491 c 128,-1,30
 536 466 536 466 538 432 c 0,31,32
 541 397 541 397 482 329 c 1,33,34
 449 295 449 295 417 261 c 1,35,-1
 531 163 l 2,36,37
 559 138 559 138 561 106 c 0,38,39
 563 75 563 75 539.5 46 c 128,-1,0
 516 17 516 17 479 15 c 1,1,2
EndSplineSet
Validated: 33
EndChar

StartChar: Oslash
Encoding: 216 216 153
Width: 741
GlyphClass: 2
Flags: W
LayerCount: 2
Fore
SplineSet
616 749 m 2,0,-1
 578 668 l 1,1,2
 670 592 670 592 710 476 c 0,3,4
 735 404 735 404 735 331 c 0,5,6
 735 212 735 212 672 121 c 0,7,8
 606 25 606 25 489 -16 c 0,9,10
 424 -38 424 -38 362 -38 c 0,11,12
 311 -38 311 -38 263 -22 c 1,13,14
 232 -87 232 -87 230 -90 c 0,15,16
 205 -128 205 -128 170 -128 c 0,17,18
 143 -128 143 -128 121.5 -108.5 c 128,-1,19
 100 -89 100 -89 100 -62 c 0,20,21
 100 -39 100 -39 117 -5 c 0,22,23
 129 20 129 20 142 44 c 1,24,25
 53 117 53 117 12 236 c 0,26,27
 -13 308 -13 308 -13 381 c 0,28,29
 -13 500 -13 500 51.5 593.5 c 128,-1,30
 116 687 116 687 233 728 c 1,31,32
 296 749 296 749 358 749 c 0,33,34
 410 749 410 749 458 734 c 1,35,36
 488 797 488 797 493 803 c 0,37,38
 518 841 518 841 555 841 c 0,39,40
 602 841 602 841 616 802 c 1,41,42
 626 771 626 771 616 749 c 2,0,-1
294 550 m 0,43,44
 191 514 191 514 191 394 c 0,45,46
 191 315 191 315 234 244 c 1,47,-1
 375 557 l 1,48,49
 338 565 338 565 294 550 c 0,43,44
487 470 m 1,50,-1
 345 155 l 1,51,52
 382 147 382 147 428 162 c 0,53,54
 532 198 532 198 532 316 c 0,55,56
 532 399 532 399 487 470 c 1,50,-1
EndSplineSet
Validated: 33
EndChar

StartChar: Ugrave
Encoding: 217 217 154
Width: 730
GlyphClass: 2
Flags: W
LayerCount: 2
Fore
SplineSet
447 -30 m 0,0,1
 417 -36 417 -36 386 -36 c 0,2,3
 268 -36 268 -36 180 36 c 1,4,5
 88 109 88 109 67 228 c 2,6,-1
 5 579 l 2,7,8
 3 591 3 591 3 602 c 0,9,10
 3 645 3 645 33 672.5 c 128,-1,11
 63 700 63 700 106 700 c 0,12,13
 142 700 142 700 168.5 677.5 c 128,-1,14
 195 655 195 655 202 614 c 2,15,-1
 263 270 l 2,16,17
 272 217 272 217 306.5 185 c 128,-1,18
 341 153 341 153 389 153 c 0,19,20
 402 153 402 153 414 155 c 0,21,22
 462 163 462 163 490.5 200.5 c 128,-1,23
 519 238 519 238 519 287 c 0,24,25
 519 301 519 301 516 315 c 2,26,-1
 455 659 l 2,27,28
 453 670 453 670 453 681 c 0,29,30
 453 725 453 725 483 752 c 128,-1,31
 513 779 513 779 556 779 c 0,32,33
 592 779 592 779 618.5 756.5 c 128,-1,34
 645 734 645 734 652 693 c 2,35,-1
 714 342 l 2,36,37
 719 314 719 314 719 286 c 0,38,39
 719 169 719 169 642 80 c 128,-1,40
 565 -9 565 -9 447 -30 c 0,0,1
321 738 m 2,41,-1
 312 735 l 2,42,43
 303 732 303 732 271 733 c 2,44,-1
 151 738 l 2,45,46
 113 740 113 740 89.5 764 c 128,-1,47
 66 788 66 788 66 824 c 0,48,49
 66 854 66 854 81.5 878 c 128,-1,50
 97 902 97 902 125 908 c 0,51,52
 140 911 140 911 165 910 c 2,53,-1
 303 901 l 1,54,55
 349 895 349 895 363 856 c 0,56,57
 369 839 369 839 369 819 c 0,58,59
 369 755 369 755 321 738 c 2,41,-1
EndSplineSet
Validated: 33
EndChar

StartChar: Uacute
Encoding: 218 218 155
Width: 697
GlyphClass: 2
Flags: W
LayerCount: 2
Fore
SplineSet
12 282 m 0,0,1
 12 299 12 299 14 317 c 2,2,-1
 51 672 l 2,3,4
 56 719 56 719 87 744 c 128,-1,5
 118 769 118 769 161 764 c 0,6,7
 204 760 204 760 229.5 729 c 128,-1,8
 255 698 255 698 250 651 c 2,9,-1
 213 304 l 2,10,11
 212 294 212 294 212 285 c 0,12,13
 212 230 212 230 243 193.5 c 128,-1,14
 274 157 274 157 327 151 c 1,15,16
 382 146 382 146 422.5 182.5 c 128,-1,17
 463 219 463 219 469 277 c 2,18,-1
 506 624 l 1,19,20
 510 671 510 671 541.5 696 c 128,-1,21
 573 721 573 721 616 716 c 0,22,23
 659 712 659 712 684 681 c 128,-1,24
 709 650 709 650 704 603 c 2,25,-1
 667 248 l 2,26,27
 654 123 654 123 560.5 43 c 128,-1,28
 467 -37 467 -37 343 -37 c 0,29,30
 207 -37 207 -37 111 53 c 0,31,32
 12 146 12 146 12 282 c 0,0,1
402 774 m 2,33,-1
 284 751 l 2,34,35
 253 744 253 744 234 748 c 0,36,37
 204 753 204 753 187 782 c 0,38,39
 173 807 173 807 173 839 c 0,40,41
 173 896 173 896 226 912 c 2,42,-1
 236 915 l 1,43,-1
 361 942 l 2,44,45
 392 948 392 948 410 945 c 0,46,47
 439 940 439 940 458 912 c 0,48,49
 474 887 474 887 474 858 c 0,50,51
 474 789 474 789 402 774 c 2,33,-1
EndSplineSet
Validated: 33
EndChar

StartChar: Ucircumflex
Encoding: 219 219 156
Width: 698
GlyphClass: 2
Flags: W
LayerCount: 2
Fore
SplineSet
240 -24 m 0,0,1
 128 4 128 4 58 90.5 c 128,-1,2
 -12 177 -12 177 -12 287 c 0,3,4
 -12 327 -12 327 -2 366 c 2,5,-1
 84 713 l 2,6,7
 104 792 104 792 179 792 c 0,8,9
 192 792 192 792 206 788 c 0,10,11
 282 770 282 770 282 694 c 0,12,13
 282 680 282 680 278 664 c 2,14,-1
 194 326 l 2,15,16
 188 304 188 304 188 283 c 0,17,18
 188 237 188 237 213.5 203.5 c 128,-1,19
 239 170 239 170 285 159 c 0,20,21
 300 155 300 155 316 155 c 0,22,23
 360 155 360 155 395.5 185 c 128,-1,24
 431 215 431 215 443 264 c 2,25,-1
 528 602 l 2,26,27
 547 681 547 681 622 681 c 0,28,29
 636 681 636 681 650 678 c 0,30,31
 726 659 726 659 726 584 c 0,32,33
 726 569 726 569 722 554 c 2,34,-1
 635 207 l 2,35,36
 608 98 608 98 520 32 c 128,-1,37
 432 -34 432 -34 322 -34 c 0,38,39
 280 -34 280 -34 240 -24 c 0,0,1
482 747 m 1,40,41
 466 744 466 744 387 766 c 1,42,43
 367 753 367 753 346 741 c 0,44,45
 316 723 316 723 302 721 c 0,46,47
 263 716 263 716 233 744.5 c 128,-1,48
 203 773 203 773 203 812 c 0,49,50
 203 860 203 860 254 889 c 2,51,-1
 361 952 l 1,52,-1
 482 921 l 2,53,54
 547 905 547 905 555 847 c 0,55,56
 560 813 560 813 538.5 782 c 128,-1,57
 517 751 517 751 482 747 c 1,40,41
EndSplineSet
Validated: 37
EndChar

StartChar: Udieresis
Encoding: 220 220 157
Width: 716
GlyphClass: 2
Flags: W
LayerCount: 2
Fore
SplineSet
392 -37 m 0,0,1
 256 -47 256 -47 155 37 c 0,2,3
 51 123 51 123 42 259 c 2,4,-1
 17 615 l 2,5,6
 13 662 13 662 39.5 692 c 128,-1,7
 66 722 66 722 109 725 c 0,8,9
 153 728 153 728 183 702 c 128,-1,10
 213 676 213 676 216 629 c 2,11,-1
 241 281 l 2,12,13
 245 220 245 220 283 183 c 128,-1,14
 321 146 321 146 379 150 c 0,15,16
 434 154 434 154 467.5 197.5 c 128,-1,17
 501 241 501 241 497 299 c 2,18,-1
 473 647 l 2,19,20
 469 694 469 694 495.5 724 c 128,-1,21
 522 754 522 754 565 757 c 0,22,23
 609 760 609 760 639 734 c 128,-1,24
 669 708 669 708 672 661 c 2,25,-1
 697 305 l 2,26,27
 706 170 706 170 616.5 71 c 128,-1,28
 527 -28 527 -28 392 -37 c 0,0,1
362 757 m 0,29,30
 321 757 321 757 293 785.5 c 128,-1,31
 265 814 265 814 265 854 c 0,32,33
 265 895 265 895 293.5 923 c 128,-1,34
 322 951 322 951 362 951 c 256,35,36
 402 951 402 951 430.5 922.5 c 128,-1,37
 459 894 459 894 459 854 c 0,38,39
 459 813 459 813 430.5 785 c 128,-1,40
 402 757 402 757 362 757 c 0,29,30
150 696 m 256,41,42
 110 696 110 696 81.5 725 c 128,-1,43
 53 754 53 754 53 794 c 256,44,45
 53 834 53 834 82 862 c 128,-1,46
 111 890 111 890 151 890 c 256,47,48
 191 890 191 890 219 861.5 c 128,-1,49
 247 833 247 833 247 793 c 256,50,51
 247 753 247 753 218.5 724.5 c 128,-1,52
 190 696 190 696 150 696 c 256,41,42
EndSplineSet
Validated: 37
EndChar

StartChar: Yacute
Encoding: 221 221 158
Width: 466
GlyphClass: 2
Flags: W
LayerCount: 2
Fore
SplineSet
438 694 m 2,0,-1
 375 382 l 1,1,-1
 480 145 l 2,2,3
 490 124 490 124 490 101 c 0,4,5
 490 42 490 42 429 15 c 0,6,7
 405 4 405 4 383 4 c 0,8,9
 324 4 324 4 297 64 c 2,10,-1
 192 300 l 1,11,-1
 -82 462 l 2,12,13
 -132 492 -132 492 -132 550 c 0,14,15
 -132 612 -132 612 -74 638 c 0,16,17
 -53 648 -53 648 -31 648 c 0,18,19
 -4 648 -4 648 18 634 c 2,20,-1
 203 521 l 1,21,-1
 243 735 l 2,22,23
 249 769 249 769 278 791.5 c 128,-1,24
 307 814 307 814 342 814 c 0,25,26
 404 814 404 814 430 756 c 0,27,28
 444 725 444 725 438 694 c 2,0,-1
295 792 m 2,29,-1
 180 756 l 2,30,31
 149 746 149 746 130 747 c 0,32,33
 95 750 95 750 74 786 c 0,34,35
 57 816 57 816 59 851 c 0,36,37
 62 892 62 892 105 910 c 1,38,-1
 114 914 l 1,39,-1
 236 954 l 2,40,41
 266 964 266 964 285 962 c 0,42,43
 318 960 318 960 340 928 c 0,44,45
 359 900 359 900 357 870 c 0,46,47
 353 810 353 810 295 792 c 2,29,-1
EndSplineSet
Validated: 37
EndChar

StartChar: Thorn
Encoding: 222 222 159
Width: 573
GlyphClass: 2
Flags: W
LayerCount: 2
Fore
SplineSet
323 112 m 2,0,-1
 237 106 l 1,1,-1
 240 67 l 2,2,3
 243 20 243 20 217 -9.5 c 128,-1,4
 191 -39 191 -39 147 -42 c 0,5,6
 104 -45 104 -45 74 -19.5 c 128,-1,7
 44 6 44 6 40 53 c 2,8,-1
 1 620 l 2,9,10
 -3 667 -3 667 23.5 697 c 128,-1,11
 50 727 50 727 93 730 c 0,12,13
 137 733 137 733 167 707 c 128,-1,14
 197 681 197 681 200 634 c 1,15,-1
 200 631 l 1,16,-1
 280 636 l 1,17,18
 401 645 401 645 486 577.5 c 128,-1,19
 571 510 571 510 579 393 c 0,20,21
 587 275 587 275 512.5 197.5 c 128,-1,22
 438 120 438 120 323 112 c 2,0,-1
290 455 m 2,23,-1
 213 449 l 1,24,-1
 224 288 l 1,25,-1
 301 293 l 2,26,27
 337 296 337 296 356.5 319.5 c 128,-1,28
 376 343 376 343 373 379 c 0,29,30
 371 415 371 415 348 436 c 128,-1,31
 325 457 325 457 290 455 c 2,23,-1
EndSplineSet
Validated: 33
EndChar

StartChar: germandbls
Encoding: 223 223 160
Width: 564
GlyphClass: 2
Flags: W
LayerCount: 2
Fore
SplineSet
287 -38 m 0,0,1
 234 -34 234 -34 207 -4 c 128,-1,2
 180 26 180 26 183 68 c 0,3,4
 187 112 187 112 221 130 c 0,5,6
 242 142 242 142 293 148 c 1,7,8
 318 152 318 152 337.5 171.5 c 128,-1,9
 357 191 357 191 359 220 c 1,10,11
 364 268 364 268 345 290 c 0,12,13
 332 304 332 304 297 315 c 1,14,15
 257 329 257 329 240 341 c 0,16,17
 204 367 204 367 208 418 c 0,18,19
 212 458 212 458 234 476 c 0,20,21
 250 489 250 489 291 501 c 0,22,23
 314 507 314 507 323 515 c 0,24,25
 336 528 336 528 339 560 c 0,26,27
 341 579 341 579 327.5 595.5 c 128,-1,28
 314 612 314 612 290 614 c 0,29,30
 255 617 255 617 239 593 c 0,31,32
 225 573 225 573 220 523 c 2,33,-1
 182 82 l 2,34,35
 178 37 178 37 148.5 9.5 c 128,-1,36
 119 -18 119 -18 76 -14 c 256,37,38
 33 -10 33 -10 9 22 c 128,-1,39
 -15 54 -15 54 -12 99 c 2,40,-1
 27 540 l 2,41,42
 37 652 37 652 101 722 c 0,43,44
 170 796 170 796 279 796 c 0,45,46
 389 796 389 796 461 727 c 0,47,48
 536 654 536 654 526 544 c 0,49,50
 519 463 519 463 469 415 c 1,51,52
 554 356 554 356 554 229 c 0,53,54
 554 119 554 119 477 37 c 0,55,56
 396 -48 396 -48 287 -38 c 0,0,1
EndSplineSet
Validated: 37
EndChar

StartChar: agrave
Encoding: 224 224 161
Width: 588
GlyphClass: 2
Flags: W
LayerCount: 2
Fore
SplineSet
545 31 m 0,0,1
 529 27 529 27 514 27 c 0,2,3
 483 27 483 27 458 50 c 1,4,5
 418 -11 418 -11 348 -31 c 0,6,7
 314 -41 314 -41 279 -41 c 0,8,9
 188 -41 188 -41 115 21 c 128,-1,10
 42 83 42 83 12 187 c 0,11,12
 -2 235 -2 235 -2 285 c 0,13,14
 -2 380 -2 380 47.5 453.5 c 128,-1,15
 97 527 97 527 181 551 c 0,16,17
 211 560 211 560 240 560 c 0,18,19
 282 560 282 560 317 543 c 1,20,21
 334 589 334 589 381 602 c 0,22,23
 399 608 399 608 415 608 c 0,24,25
 477 608 477 608 504 514 c 2,26,-1
 602 172 l 2,27,28
 612 135 612 135 612 113 c 0,29,30
 612 51 612 51 545 31 c 0,0,1
251 382 m 0,31,32
 191 365 191 365 191 289 c 0,33,34
 191 265 191 265 199 240 c 1,35,36
 210 199 210 199 236.5 172.5 c 128,-1,37
 263 146 263 146 296 146 c 0,38,39
 306 146 306 146 317 149 c 0,40,41
 374 165 374 165 374 240 c 0,42,43
 374 264 374 264 367 288 c 0,44,45
 355 331 355 331 328.5 358 c 128,-1,46
 302 385 302 385 270 385 c 0,47,48
 260 385 260 385 251 382 c 0,31,32
347 576 m 1,49,-1
 337 575 l 2,50,51
 328 575 328 575 297 585 c 2,52,-1
 183 623 l 2,53,54
 125 642 125 642 122 702 c 0,55,56
 120 732 120 732 140 760 c 0,57,58
 162 792 162 792 196 793 c 0,59,60
 214 794 214 794 244 784 c 2,61,-1
 374 738 l 1,62,63
 417 719 417 719 420 678 c 1,64,65
 421 644 421 644 403 613 c 0,66,67
 382 578 382 578 347 576 c 1,49,-1
EndSplineSet
Validated: 37
EndChar

StartChar: aacute
Encoding: 225 225 162
Width: 565
GlyphClass: 2
Flags: W
LayerCount: 2
Fore
SplineSet
439 -24 m 0,0,1
 386 -24 386 -24 361 18 c 1,2,3
 306 -30 306 -30 233 -30 c 0,4,5
 119 -30 119 -30 44.5 56.5 c 128,-1,6
 -30 143 -30 143 -30 272 c 0,7,8
 -30 399 -30 399 46 487.5 c 128,-1,9
 122 576 122 576 233 576 c 0,10,11
 309 576 309 576 362 531 c 1,12,13
 390 570 390 570 439 570 c 0,14,15
 498 570 498 570 520 529 c 0,16,17
 533 503 533 503 533 451 c 2,18,-1
 533 95 l 2,19,20
 533 43 533 43 520 18 c 0,21,22
 498 -24 498 -24 439 -24 c 0,0,1
253 394 m 0,23,24
 212 394 212 394 188 359 c 128,-1,25
 164 324 164 324 164 272 c 0,26,27
 164 222 164 222 188 187 c 128,-1,28
 212 152 212 152 253 152 c 0,29,30
 292 152 292 152 315.5 187 c 128,-1,31
 339 222 339 222 339 272 c 0,32,33
 339 324 339 324 315.5 359 c 128,-1,34
 292 394 292 394 253 394 c 0,23,24
359 570 m 2,35,-1
 239 552 l 2,36,37
 208 548 208 548 189 552 c 0,38,39
 132 565 132 565 132 641 c 0,40,41
 132 703 132 703 190 716 c 1,42,-1
 199 719 l 1,43,-1
 326 739 l 2,44,45
 357 744 357 744 375 740 c 0,46,47
 403 733 403 733 420 706 c 0,48,49
 434 683 434 683 434 655 c 0,50,51
 434 621 434 621 413 598 c 128,-1,52
 392 575 392 575 359 570 c 2,35,-1
EndSplineSet
Validated: 37
EndChar

StartChar: acircumflex
Encoding: 226 226 163
Width: 579
GlyphClass: 2
Flags: W
LayerCount: 2
Fore
SplineSet
494 0 m 0,0,1
 485 -1 485 -1 477 -1 c 0,2,3
 436 -1 436 -1 411 30 c 1,4,5
 352 -37 352 -37 255 -37 c 0,6,7
 154 -37 154 -37 79.5 36.5 c 128,-1,8
 5 110 5 110 -11 228 c 0,9,10
 -15 253 -15 253 -15 279 c 0,11,12
 -15 393 -15 393 53 478 c 0,13,14
 125 568 125 568 237 568 c 0,15,16
 295 568 295 568 340 539 c 1,17,18
 367 590 367 590 431 590 c 0,19,20
 506 590 506 590 521 484 c 2,21,-1
 571 131 l 2,22,23
 574 107 574 107 574 91 c 0,24,25
 574 11 574 11 494 0 c 0,0,1
252 388 m 0,26,27
 217 383 217 383 198 353.5 c 128,-1,28
 179 324 179 324 179 281 c 0,29,30
 179 229 179 229 205 189 c 0,31,32
 235 141 235 141 285 148 c 0,33,34
 318 153 318 153 337 182.5 c 128,-1,35
 356 212 356 212 356 254 c 0,36,37
 356 305 356 305 330 346 c 0,38,39
 300 395 300 395 252 388 c 0,26,27
419 584 m 0,40,41
 403 582 403 582 325 604 c 1,42,43
 304 591 304 591 283 578 c 0,44,45
 253 561 253 561 239 559 c 0,46,47
 200 554 200 554 170 582.5 c 128,-1,48
 140 611 140 611 140 650 c 0,49,50
 140 698 140 698 191 727 c 2,51,-1
 298 789 l 1,52,-1
 419 759 l 2,53,54
 484 743 484 743 492 684 c 0,55,56
 497 651 497 651 475.5 620 c 128,-1,57
 454 589 454 589 419 584 c 0,40,41
EndSplineSet
Validated: 37
EndChar

StartChar: atilde
Encoding: 227 227 164
Width: 567
GlyphClass: 2
Flags: W
LayerCount: 2
Fore
SplineSet
501 4 m 0,0,1
 491 2 491 2 482 2 c 0,2,3
 442 2 442 2 417 32 c 1,4,5
 370 -23 370 -23 298 -35 c 0,6,7
 278 -38 278 -38 258 -38 c 0,8,9
 158 -38 158 -38 84 34.5 c 128,-1,10
 10 107 10 107 -9 223 c 0,11,12
 -13 251 -13 251 -13 279 c 0,13,14
 -13 394 -13 394 54 477 c 0,15,16
 126 567 126 567 238 567 c 0,17,18
 293 567 293 567 338 540 c 1,19,20
 364 592 364 592 430 592 c 0,21,22
 503 592 503 592 519 487 c 2,23,-1
 575 136 l 2,24,25
 579 110 579 110 579 93 c 0,26,27
 579 16 579 16 501 4 c 0,0,1
252 387 m 0,28,29
 217 382 217 382 198.5 353 c 128,-1,30
 180 324 180 324 180 282 c 0,31,32
 180 233 180 233 204 194 c 1,33,34
 231 147 231 147 277 147 c 0,35,36
 317 147 317 147 339 181 c 0,37,38
 358 209 358 209 358 252 c 0,39,40
 358 304 358 304 332 346 c 1,41,42
 300 395 300 395 252 387 c 0,28,29
345 565 m 0,43,44
 325 571 325 571 290.5 595 c 128,-1,45
 256 619 256 619 244 622 c 0,46,47
 240 623 240 623 225 619 c 0,48,49
 206 614 206 614 193 614 c 0,50,51
 181 614 181 614 169 618 c 0,52,53
 146 625 146 625 131.5 647 c 128,-1,54
 117 669 117 669 117 694 c 0,55,56
 117 704 117 704 120 714 c 0,57,58
 144 793 144 793 227 793 c 0,59,60
 248 793 248 793 268.5 786.5 c 128,-1,61
 289 780 289 780 355 737 c 0,62,63
 363 731 363 731 367 730 c 0,64,65
 370 729 370 729 392.5 733.5 c 128,-1,66
 415 738 415 738 429 738 c 0,67,68
 461 738 461 738 480.5 717 c 128,-1,69
 500 696 500 696 500 664 c 0,70,71
 500 618 500 618 464.5 589 c 128,-1,72
 429 560 429 560 381 560 c 0,73,74
 362 560 362 560 345 565 c 0,43,44
EndSplineSet
Validated: 37
EndChar

StartChar: adieresis
Encoding: 228 228 165
Width: 668
GlyphClass: 2
Flags: W
LayerCount: 2
Fore
SplineSet
627 113 m 0,0,1
 602 97 602 97 577 97 c 0,2,3
 558 97 558 97 539 107 c 1,4,5
 518 37 518 37 456.5 -1 c 128,-1,6
 395 -39 395 -39 325 -39 c 0,7,8
 253 -39 253 -39 186 1.5 c 128,-1,9
 119 42 119 42 73 115 c 0,10,11
 20 200 20 200 20 294 c 0,12,13
 20 441 20 441 135 513 c 0,14,15
 186 544 186 544 242 544 c 0,16,17
 255 544 255 544 268 542 c 1,18,19
 271 591 271 591 313 617 c 0,20,21
 341 634 341 634 367 634 c 0,22,23
 412 634 412 634 455 565 c 2,24,-1
 644 264 l 2,25,26
 674 216 674 216 674 184 c 0,27,28
 674 142 674 142 627 113 c 0,0,1
248 369 m 0,29,30
 212 346 212 346 212 299 c 0,31,32
 212 259 212 259 237 218 c 0,33,34
 279 152 279 152 336 152 c 0,35,36
 357 152 357 152 376 164 c 0,37,38
 411 185 411 185 411 231 c 0,39,40
 411 271 411 271 386 311 c 0,41,42
 343 380 343 380 285 380 c 0,43,44
 265 380 265 380 248 369 c 0,29,30
326 607 m 0,45,46
 308 600 308 600 290 600 c 0,47,48
 224 600 224 600 200 660 c 0,49,50
 193 678 193 678 193 697 c 0,51,52
 193 762 193 762 253 787 c 0,53,54
 271 794 271 794 290 794 c 0,55,56
 355 794 355 794 380 733 c 0,57,58
 387 715 387 715 387 696 c 0,59,60
 387 631 387 631 326 607 c 0,45,46
122 524 m 0,61,62
 104 517 104 517 86 517 c 0,63,64
 20 517 20 517 -4 578 c 0,65,66
 -11 596 -11 596 -11 614 c 0,67,68
 -11 680 -11 680 49 704 c 0,69,70
 67 711 67 711 86 711 c 0,71,72
 151 711 151 711 176 651 c 0,73,74
 183 633 183 633 183 614 c 0,75,76
 183 549 183 549 122 524 c 0,61,62
EndSplineSet
Validated: 5
EndChar

StartChar: aring
Encoding: 229 229 166
Width: 571
GlyphClass: 2
Flags: W
LayerCount: 2
Fore
SplineSet
526 19 m 0,0,1
 512 16 512 16 500 16 c 0,2,3
 466 16 466 16 441 42 c 1,4,5
 398 -17 398 -17 327 -33 c 0,6,7
 298 -40 298 -40 269 -40 c 0,8,9
 175 -40 175 -40 101.5 26.5 c 128,-1,10
 28 93 28 93 2 202 c 0,11,12
 -7 242 -7 242 -7 282 c 0,13,14
 -7 383 -7 383 47 459.5 c 128,-1,15
 101 536 101 536 190 557 c 0,16,17
 215 563 215 563 239 563 c 0,18,19
 286 563 286 563 326 542 c 1,20,21
 344 586 344 586 392 598 c 0,22,23
 408 601 408 601 422 601 c 0,24,25
 488 601 488 601 511 503 c 2,26,-1
 591 156 l 2,27,28
 598 124 598 124 598 103 c 0,29,30
 598 35 598 35 526 19 c 0,0,1
187 286 m 0,31,32
 187 266 187 266 191 245 c 0,33,34
 201 202 201 202 227 174 c 128,-1,35
 253 146 253 146 287 146 c 0,36,37
 326 146 326 146 347 177 c 1,38,39
 367 204 367 204 367 245 c 0,40,41
 367 264 367 264 362 285 c 0,42,43
 352 329 352 329 326 357.5 c 128,-1,44
 300 386 300 386 267 386 c 0,45,46
 228 386 228 386 207.5 356.5 c 128,-1,47
 187 327 187 327 187 286 c 0,31,32
220 544 m 0,48,49
 168 544 168 544 132 580.5 c 128,-1,50
 96 617 96 617 96 669 c 0,51,52
 96 720 96 720 132.5 756 c 128,-1,53
 169 792 169 792 221 792 c 0,54,55
 272 792 272 792 308 755.5 c 128,-1,56
 344 719 344 719 344 668 c 0,57,58
 344 616 344 616 307.5 580 c 128,-1,59
 271 544 271 544 220 544 c 0,48,49
217 688 m 0,60,61
 198 685 198 685 201 665 c 0,62,63
 204 646 204 646 224 649 c 0,64,65
 243 652 243 652 240 672 c 0,66,67
 237 691 237 691 217 688 c 0,60,61
EndSplineSet
Validated: 5
EndChar

StartChar: ae
Encoding: 230 230 167
Width: 938
GlyphClass: 2
Flags: W
LayerCount: 2
Fore
SplineSet
310 486 m 1,0,1
 309 489 309 489 309 493 c 0,2,3
 309 529 309 529 359 546 c 0,4,5
 376 552 376 552 391 552 c 0,6,7
 411 552 411 552 427 541 c 1,8,9
 493 625 493 625 615 625 c 0,10,11
 706 625 706 625 784 571.5 c 128,-1,12
 862 518 862 518 892 432 c 0,13,14
 899 412 899 412 899 394 c 0,15,16
 899 340 899 340 837 319 c 2,17,-1
 578 230 l 1,18,19
 604 204 604 204 645 204 c 0,20,21
 669 204 669 204 694 213 c 0,22,23
 728 224 728 224 767.5 268.5 c 128,-1,24
 807 313 807 313 828 320 c 0,25,26
 840 324 840 324 853 324 c 0,27,28
 887 324 887 324 913.5 299.5 c 128,-1,29
 940 275 940 275 940 241 c 0,30,31
 940 185 940 185 872 123 c 0,32,33
 811 67 811 67 738 42 c 0,34,35
 691 25 691 25 645 25 c 0,36,37
 624 25 624 25 604 29 c 1,38,39
 595 6 595 6 570 -8 c 128,-1,40
 545 -22 545 -22 518 -22 c 0,41,42
 489 -22 489 -22 468 -2 c 1,43,44
 442 -60 442 -60 368 -86 c 0,45,46
 327 -100 327 -100 286 -100 c 0,47,48
 199 -100 199 -100 126.5 -42 c 128,-1,49
 54 16 54 16 21 114 c 0,50,51
 1 171 1 171 1 229 c 0,52,53
 1 319 1 319 46 389.5 c 128,-1,54
 91 460 91 460 170 487 c 0,55,56
 205 499 205 499 240 499 c 0,57,58
 277 499 277 499 310 486 c 1,0,1
586 451 m 0,59,60
 529 431 529 431 527 367 c 1,61,-1
 684 421 l 1,62,63
 656 456 656 456 616 456 c 0,64,65
 601 456 601 456 586 451 c 0,59,60
248 322 m 0,66,67
 194 303 194 303 194 234 c 0,68,69
 194 206 194 206 204 177 c 0,70,71
 235 88 235 88 302 88 c 0,72,73
 315 88 315 88 327 93 c 0,74,75
 379 111 379 111 379 179 c 0,76,77
 379 206 379 206 369 234 c 1,78,79
 356 275 356 275 329 300.5 c 128,-1,80
 302 326 302 326 271 326 c 0,81,82
 260 326 260 326 248 322 c 0,66,67
EndSplineSet
Validated: 5
EndChar

StartChar: ccedilla
Encoding: 231 231 168
Width: 536
GlyphClass: 2
Flags: W
LayerCount: 2
Fore
SplineSet
157 -12 m 1,0,1
 89 26 89 26 52 93.5 c 128,-1,2
 15 161 15 161 15 240 c 0,3,4
 15 279 15 279 24 317 c 0,5,6
 48 419 48 419 126.5 488 c 128,-1,7
 205 557 205 557 306 557 c 0,8,9
 337 557 337 557 368 549 c 0,10,11
 425 536 425 536 477 500 c 0,12,13
 540 456 540 456 540 407 c 0,14,15
 540 399 540 399 538 391 c 0,16,17
 532 364 532 364 511 342 c 0,18,19
 486 316 486 316 455 316 c 0,20,21
 430 316 430 316 394 339 c 0,22,23
 352 366 352 366 334 370 c 0,24,25
 323 373 323 373 313 373 c 0,26,27
 277 373 277 373 250.5 345.5 c 128,-1,28
 224 318 224 318 213 273 c 0,29,30
 209 256 209 256 209 238 c 0,31,32
 209 195 209 195 233 164 c 128,-1,33
 257 133 257 133 298 133 c 0,34,35
 311 133 311 133 336.5 137.5 c 128,-1,36
 362 142 362 142 374 142 c 0,37,38
 409 142 409 142 433.5 115.5 c 128,-1,39
 458 89 458 89 458 54 c 0,40,41
 458 44 458 44 456 35 c 0,42,43
 446 -8 446 -8 395 -30 c 0,44,45
 354 -47 354 -47 297 -47 c 0,46,47
 282 -47 282 -47 267 -46 c 1,48,-1
 236 -72 l 1,49,-1
 226 -28 l 1,50,51
 229 -29 229 -29 236.5 -29.5 c 128,-1,52
 244 -30 244 -30 248 -30 c 0,53,54
 283 -38 283 -38 304.5 -63.5 c 128,-1,55
 326 -89 326 -89 326 -125 c 0,56,57
 326 -138 326 -138 322 -151 c 1,58,59
 302 -240 302 -240 198 -240 c 0,60,61
 180 -240 180 -240 163 -237 c 0,62,63
 129 -229 129 -229 102 -209 c 1,64,65
 66 -184 66 -184 66 -152 c 0,66,67
 66 -130 66 -130 80 -114 c 128,-1,68
 94 -98 94 -98 116 -98 c 0,69,70
 129 -98 129 -98 145 -107 c 0,71,72
 167 -118 167 -118 173 -120 c 256,73,74
 179 -122 179 -122 180 -118 c 0,75,76
 181 -116 181 -116 171 -113 c 0,77,78
 124 -96 124 -96 124 -68 c 0,79,80
 124 -62 124 -62 125 -53 c 1,81,82
 129 -38 129 -38 157 -12 c 1,0,1
EndSplineSet
Validated: 5
EndChar

StartChar: egrave
Encoding: 232 232 169
Width: 549
GlyphClass: 2
Flags: W
LayerCount: 2
Fore
SplineSet
466 243 m 2,0,-1
 200 177 l 1,1,2
 227 144 227 144 275 144 c 0,3,4
 293 144 293 144 313 149 c 0,5,6
 347 158 347 158 398 205 c 0,7,8
 443 247 443 247 475 247 c 0,9,10
 509 247 509 247 535.5 221.5 c 128,-1,11
 562 196 562 196 562 163 c 0,12,13
 562 106 562 106 487 47 c 0,14,15
 420 -6 420 -6 343 -25 c 0,16,17
 303 -35 303 -35 264 -35 c 0,18,19
 162 -35 162 -35 86 28 c 128,-1,20
 10 91 10 91 -16 197 c 0,21,22
 -26 236 -26 236 -26 276 c 0,23,24
 -26 375 -26 375 28 453 c 0,25,26
 86 536 86 536 185 560 c 0,27,28
 218 569 218 569 251 569 c 0,29,30
 350 569 350 569 432 501 c 0,31,32
 508 438 508 438 530 351 c 0,33,34
 534 334 534 334 534 320 c 0,35,36
 534 260 534 260 466 243 c 2,0,-1
226 395 m 0,37,38
 167 381 167 381 160 317 c 1,39,-1
 322 357 l 1,40,41
 295 398 295 398 250 398 c 0,42,43
 238 398 238 398 226 395 c 0,37,38
356 566 m 2,44,-1
 346 567 l 2,45,46
 336 568 336 568 308 582 c 2,47,-1
 200 636 l 2,48,49
 145 663 145 663 150 723 c 0,50,51
 153 752 153 752 178 778.5 c 128,-1,52
 203 805 203 805 237 802 c 0,53,54
 255 801 255 801 283 786 c 2,55,-1
 406 723 l 1,56,57
 445 698 445 698 442 657 c 0,58,59
 439 623 439 623 417 595 c 0,60,61
 391 563 391 563 356 566 c 2,44,-1
EndSplineSet
Validated: 37
EndChar

StartChar: eacute
Encoding: 233 233 170
Width: 590
GlyphClass: 2
Flags: W
LayerCount: 2
Fore
SplineSet
483 272 m 2,0,-1
 229 169 l 1,1,2
 254 146 254 146 290 146 c 0,3,4
 316 146 316 146 344 158 c 1,5,6
 378 171 378 171 415.5 217.5 c 128,-1,7
 453 264 453 264 474 272 c 0,8,9
 487 278 487 278 502 278 c 0,10,11
 537 278 537 278 563.5 253.5 c 128,-1,12
 590 229 590 229 590 194 c 0,13,14
 590 139 590 139 526 76 c 0,15,16
 468 18 468 18 398 -10 c 0,17,18
 339 -34 339 -34 280 -34 c 0,19,20
 192 -34 192 -34 120 17.5 c 128,-1,21
 48 69 48 69 12 159 c 0,22,23
 -12 218 -12 218 -12 281 c 0,24,25
 -12 368 -12 368 31 438 c 0,26,27
 77 513 77 513 160 547 c 0,28,29
 209 567 209 567 261 567 c 0,30,31
 350 567 350 567 428 513 c 0,32,33
 501 462 501 462 531 387 c 0,34,35
 540 365 540 365 540 345 c 0,36,37
 540 295 540 295 483 272 c 2,0,-1
224 389 m 0,38,39
 167 367 167 367 170 303 c 1,40,-1
 324 365 l 1,41,42
 296 397 296 397 259 397 c 0,43,44
 242 397 242 397 224 389 c 0,38,39
332 613 m 2,45,-1
 215 589 l 2,46,47
 183 583 183 583 164 586 c 0,48,49
 134 592 134 592 117 621 c 0,50,51
 103 646 103 646 103 678 c 0,52,53
 103 735 103 735 156 751 c 1,54,-1
 166 753 l 1,55,-1
 291 780 l 2,56,57
 322 787 322 787 340 784 c 0,58,59
 370 779 370 779 387 752.5 c 128,-1,60
 404 726 404 726 404 697 c 0,61,62
 404 628 404 628 332 613 c 2,45,-1
EndSplineSet
Validated: 37
EndChar

StartChar: ecircumflex
Encoding: 234 234 171
Width: 566
GlyphClass: 2
Flags: W
LayerCount: 2
Fore
SplineSet
477 261 m 2,0,-1
 218 171 l 1,1,2
 244 145 244 145 285 145 c 0,3,4
 308 145 308 145 333 154 c 0,5,6
 367 166 367 166 407 210 c 128,-1,7
 447 254 447 254 468 262 c 0,8,9
 480 266 480 266 492 266 c 0,10,11
 527 266 527 266 553.5 241 c 128,-1,12
 580 216 580 216 580 182 c 0,13,14
 580 127 580 127 512 65 c 1,15,16
 451 8 451 8 378 -17 c 0,17,18
 326 -35 326 -35 274 -35 c 0,19,20
 181 -35 181 -35 107.5 21 c 128,-1,21
 34 77 34 77 1 173 c 0,22,23
 -17 224 -17 224 -17 279 c 0,24,25
 -17 371 -17 371 30 444 c 0,26,27
 81 522 81 522 169 552 c 0,28,29
 213 567 213 567 258 567 c 0,30,31
 350 567 350 567 429 508 c 0,32,33
 504 453 504 453 531 373 c 0,34,35
 538 353 538 353 538 335 c 0,36,37
 538 282 538 282 477 261 c 2,0,-1
225 392 m 0,38,39
 167 372 167 372 166 308 c 1,40,-1
 323 362 l 1,41,42
 296 397 296 397 256 397 c 0,43,44
 241 397 241 397 225 392 c 0,38,39
306 615 m 0,45,46
 293 607 293 607 212 595 c 1,47,48
 198 575 198 575 184 554 c 1,49,50
 164 527 164 527 152 519 c 0,51,52
 133 507 133 507 109 507 c 0,53,54
 58 507 58 507 32 549 c 0,55,56
 18 571 18 571 18 594 c 0,57,58
 18 623 18 623 39 653 c 2,59,-1
 112 754 l 1,60,-1
 235 775 l 2,61,62
 247 777 247 777 259 777 c 0,63,64
 306 777 306 777 332 736 c 0,65,66
 345 716 345 716 345 690 c 0,67,68
 345 639 345 639 306 615 c 0,45,46
EndSplineSet
Validated: 5
EndChar

StartChar: edieresis
Encoding: 235 235 172
Width: 566
GlyphClass: 2
Flags: W
LayerCount: 2
Fore
SplineSet
469 247 m 2,0,-1
 204 176 l 1,1,2
 231 145 231 145 277 145 c 0,3,4
 297 145 297 145 318 151 c 0,5,6
 352 160 352 160 402 208 c 0,7,8
 447 252 447 252 479 252 c 0,9,10
 513 252 513 252 539.5 226.5 c 128,-1,11
 566 201 566 201 566 167 c 0,12,13
 566 111 566 111 493 52 c 0,14,15
 427 -2 427 -2 351 -23 c 0,16,17
 308 -34 308 -34 266 -34 c 0,18,19
 166 -34 166 -34 90.5 27.5 c 128,-1,20
 15 89 15 89 -12 193 c 0,21,22
 -23 234 -23 234 -23 277 c 0,23,24
 -23 375 -23 375 29 452 c 1,25,26
 86 534 86 534 182 560 c 0,27,28
 217 569 217 569 253 569 c 0,29,30
 351 569 351 569 432 503 c 0,31,32
 508 441 508 441 531 356 c 0,33,34
 535 339 535 339 535 324 c 0,35,36
 535 265 535 265 469 247 c 2,0,-1
226 396 m 0,37,38
 168 380 168 380 162 316 c 1,39,-1
 323 359 l 1,40,41
 296 399 296 399 252 399 c 0,42,43
 239 399 239 399 226 396 c 0,37,38
398 576 m 1,44,45
 358 577 358 577 330 606 c 128,-1,46
 302 635 302 635 303 675 c 256,47,48
 304 715 304 715 333 743 c 128,-1,49
 362 771 362 771 402 770 c 256,50,51
 442 769 442 769 470 740.5 c 128,-1,52
 498 712 498 712 497 672 c 0,53,54
 496 631 496 631 467.5 603.5 c 128,-1,55
 439 576 439 576 398 576 c 1,44,45
179 580 m 0,56,57
 138 581 138 581 110.5 609.5 c 128,-1,58
 83 638 83 638 83 679 c 1,59,60
 84 719 84 719 113 747 c 128,-1,61
 142 775 142 775 182 774 c 256,62,63
 222 773 222 773 250 744.5 c 128,-1,64
 278 716 278 716 277 675 c 0,65,66
 277 635 277 635 248 607 c 128,-1,67
 219 579 219 579 179 580 c 0,56,57
EndSplineSet
Validated: 37
EndChar

StartChar: igrave
Encoding: 236 236 173
Width: 300
GlyphClass: 2
Flags: W
LayerCount: 2
Fore
SplineSet
-2 -15 m 0,0,1
 -70 6 -70 6 -70 78 c 0,2,3
 -70 96 -70 96 -64 114 c 2,4,-1
 48 481 l 2,5,6
 71 558 71 558 142 558 c 0,7,8
 157 558 157 558 171 553 c 0,9,10
 239 532 239 532 239 460 c 0,11,12
 239 443 239 443 233 424 c 2,13,-1
 121 57 l 2,14,15
 98 -20 98 -20 27 -20 c 0,16,17
 13 -20 13 -20 -2 -15 c 0,0,1
222 552 m 1,18,-1
 212 555 l 2,19,20
 203 557 203 557 177 575 c 2,21,-1
 77 643 l 2,22,23
 38 670 38 670 38 713 c 0,24,25
 38 724 38 724 40 736 c 0,26,27
 46 761 46 761 69.5 783 c 128,-1,28
 93 805 93 805 122 805 c 0,29,30
 147 805 147 805 181 781 c 2,31,-1
 293 701 l 1,32,33
 321 677 321 677 321 644 c 0,34,35
 321 612 321 612 294.5 581.5 c 128,-1,36
 268 551 268 551 236 551 c 0,37,38
 229 551 229 551 222 552 c 1,18,-1
EndSplineSet
Validated: 1
EndChar

StartChar: iacute
Encoding: 237 237 174
Width: 269
GlyphClass: 2
Flags: W
LayerCount: 2
Fore
SplineSet
167 -26 m 0,0,1
 131 -26 131 -26 104.5 -1 c 128,-1,2
 78 24 78 24 72 64 c 2,3,-1
 12 443 l 2,4,5
 10 454 10 454 10 464 c 0,6,7
 10 507 10 507 37.5 535.5 c 128,-1,8
 65 564 65 564 107 564 c 0,9,10
 144 564 144 564 170.5 539 c 128,-1,11
 197 514 197 514 203 474 c 2,12,-1
 263 95 l 2,13,14
 265 84 265 84 265 74 c 0,15,16
 265 31 265 31 237.5 2.5 c 128,-1,17
 210 -26 210 -26 167 -26 c 0,0,1
134 621 m 2,18,-1
 22 577 l 2,19,20
 -8 565 -8 565 -27 565 c 0,21,22
 -63 565 -63 565 -85 600 c 1,23,24
 -105 629 -105 629 -105 663 c 0,25,26
 -105 705 -105 705 -63 726 c 1,27,-1
 -54 730 l 1,28,-1
 65 778 l 2,29,30
 94 790 94 790 112 790 c 0,31,32
 146 790 146 790 170 760 c 0,33,34
 191 733 191 733 191 703 c 0,35,36
 191 643 191 643 134 621 c 2,18,-1
EndSplineSet
Validated: 1
EndChar

StartChar: icircumflex
Encoding: 238 238 175
Width: 256
GlyphClass: 2
Flags: W
LayerCount: 2
Fore
SplineSet
112 -31 m 256,0,1
 69 -30 69 -30 42.5 0 c 128,-1,2
 16 30 16 30 17 76 c 2,3,-1
 23 460 l 2,4,5
 24 505 24 505 51.5 534.5 c 128,-1,6
 79 564 79 564 122 563 c 256,7,8
 165 562 165 562 191.5 531.5 c 128,-1,9
 218 501 218 501 217 456 c 2,10,-1
 211 72 l 2,11,12
 210 27 210 27 182.5 -2.5 c 128,-1,13
 155 -32 155 -32 112 -31 c 256,0,1
213 600 m 0,14,15
 206 598 206 598 193 598 c 0,16,17
 181 598 181 598 116 606 c 1,18,19
 98 590 98 590 79 575 c 0,20,21
 52 554 52 554 38 550 c 0,22,23
 28 547 28 547 17 547 c 0,24,25
 -12 547 -12 547 -36.5 565.5 c 128,-1,26
 -61 584 -61 584 -69 611 c 0,27,28
 -73 625 -73 625 -73 638 c 0,29,30
 -73 678 -73 678 -33 709 c 2,31,-1
 65 786 l 1,32,-1
 189 773 l 2,33,34
 255 766 255 766 271 709 c 0,35,36
 274 698 274 698 274 686 c 0,37,38
 274 658 274 658 257 633 c 128,-1,39
 240 608 240 608 213 600 c 0,14,15
EndSplineSet
Validated: 33
EndChar

StartChar: idieresis
Encoding: 239 239 176
Width: 321
GlyphClass: 2
Flags: W
LayerCount: 2
Fore
SplineSet
-26 72 m 0,0,1
 -26 82 -26 82 -24 92 c 2,2,-1
 36 471 l 2,3,4
 42 511 42 511 68.5 536 c 128,-1,5
 95 561 95 561 132 561 c 0,6,7
 174 561 174 561 201.5 532.5 c 128,-1,8
 229 504 229 504 229 461 c 0,9,10
 229 451 229 451 227 441 c 2,11,-1
 167 62 l 2,12,13
 161 22 161 22 134.5 -3 c 128,-1,14
 108 -28 108 -28 72 -28 c 0,15,16
 29 -28 29 -28 1.5 0.5 c 128,-1,17
 -26 29 -26 29 -26 72 c 0,0,1
244 573 m 256,18,19
 204 574 204 574 176.5 603.5 c 128,-1,20
 149 633 149 633 150 673 c 0,21,22
 152 714 152 714 181 741 c 128,-1,23
 210 768 210 768 251 767 c 0,24,25
 291 766 291 766 318.5 736.5 c 128,-1,26
 346 707 346 707 344 667 c 1,27,28
 343 626 343 626 313.5 599 c 128,-1,29
 284 572 284 572 244 573 c 256,18,19
24 581 m 0,30,31
 -16 582 -16 582 -43.5 611.5 c 128,-1,32
 -71 641 -71 641 -70 681 c 0,33,34
 -68 721 -68 721 -39 748.5 c 128,-1,35
 -10 776 -10 776 31 775 c 1,36,37
 71 773 71 773 98.5 744 c 128,-1,38
 126 715 126 715 124 674 c 0,39,40
 123 634 123 634 93.5 606.5 c 128,-1,41
 64 579 64 579 24 581 c 0,30,31
EndSplineSet
Validated: 33
EndChar

StartChar: eth
Encoding: 240 240 177
Width: 571
GlyphClass: 2
Flags: W
LayerCount: 2
Fore
SplineSet
174 675 m 1,0,-1
 171 677 l 1,1,2
 139 705 139 705 145 739 c 0,3,4
 156 811 156 811 231 811 c 0,5,6
 244 811 244 811 260 809 c 0,7,8
 313 801 313 801 382 746 c 1,9,10
 411 756 411 756 440 767 c 1,11,12
 482 781 482 781 504 777 c 0,13,14
 529 773 529 773 543.5 752.5 c 128,-1,15
 558 732 558 732 554 706 c 0,16,17
 549 677 549 677 521 662 c 0,18,19
 514 658 514 658 467 642 c 1,20,21
 553 517 553 517 553 364 c 0,22,23
 553 310 553 310 542 246 c 1,24,25
 523 121 523 121 445.5 42.5 c 128,-1,26
 368 -36 368 -36 258 -36 c 0,27,28
 235 -36 235 -36 212 -32 c 0,29,30
 103 -14 103 -14 37 69 c 1,31,32
 -25 149 -25 149 -25 257 c 0,33,34
 -25 284 -25 284 -20 311 c 0,35,36
 -5 407 -5 407 69 477 c 1,37,38
 148 550 148 550 248 550 c 0,39,40
 295 550 295 550 336 533 c 1,41,42
 313 565 313 565 295 582 c 1,43,44
 261 570 261 570 227 558 c 1,45,46
 177 542 177 542 155 545 c 0,47,48
 133 549 133 549 117 567.5 c 128,-1,49
 101 586 101 586 106 615 c 0,50,51
 110 641 110 641 130 656 c 0,52,53
 142 664 142 664 174 675 c 1,0,-1
275 370 m 0,54,55
 227 378 227 378 196 337 c 0,56,57
 169 301 169 301 169 252 c 0,58,59
 169 209 169 209 189 180 c 0,60,61
 212 147 212 147 253 147 c 0,62,63
 295 147 295 147 323 187 c 0,64,65
 348 224 348 224 348 272 c 0,66,67
 348 359 348 359 275 370 c 0,54,55
EndSplineSet
Validated: 33
EndChar

StartChar: ntilde
Encoding: 241 241 178
Width: 588
GlyphClass: 2
Flags: W
LayerCount: 2
Fore
SplineSet
503 -3 m 0,0,1
 460 -8 460 -8 430 19 c 128,-1,2
 400 46 400 46 396 91 c 2,3,-1
 369 340 l 1,4,5
 362 414 362 414 293 407 c 0,6,7
 226 400 226 400 234 326 c 2,8,-1
 260 77 l 2,9,10
 265 32 265 32 241.5 -0.5 c 128,-1,11
 218 -33 218 -33 175 -38 c 0,12,13
 132 -42 132 -42 102 -15.5 c 128,-1,14
 72 11 72 11 68 56 c 2,15,-1
 27 438 l 2,16,17
 23 483 23 483 46.5 515.5 c 128,-1,18
 70 548 70 548 113 553 c 0,19,20
 161 558 161 558 190 528 c 1,21,22
 243 582 243 582 345 582 c 0,23,24
 431 582 431 582 490.5 530 c 128,-1,25
 550 478 550 478 560 386 c 2,26,-1
 589 111 l 2,27,28
 593 66 593 66 569.5 33.5 c 128,-1,29
 546 1 546 1 503 -3 c 0,0,1
253 575 m 0,30,31
 232 573 232 573 191 581 c 128,-1,32
 150 589 150 589 138 588 c 0,33,34
 135 588 135 588 113.5 572.5 c 128,-1,35
 92 557 92 557 70 555 c 0,36,37
 40 552 40 552 15 573.5 c 128,-1,38
 -10 595 -10 595 -13 624 c 0,39,40
 -18 675 -18 675 15 710 c 0,41,42
 45 743 45 743 95 749 c 0,43,44
 117 751 117 751 194 737 c 0,45,46
 204 735 204 735 209 735 c 1,47,48
 210 736 210 736 237.5 753 c 128,-1,49
 265 770 265 770 283 772 c 0,50,51
 318 776 318 776 341 751 c 0,52,53
 360 730 360 730 363 699 c 0,54,55
 368 651 368 651 331 614 c 0,56,57
 298 580 298 580 253 575 c 0,30,31
EndSplineSet
Validated: 33
EndChar

StartChar: ograve
Encoding: 242 242 179
Width: 586
GlyphClass: 2
Flags: W
LayerCount: 2
Fore
SplineSet
387 -22 m 0,0,1
 347 -34 347 -34 308 -34 c 0,2,3
 211 -34 211 -34 135 30 c 1,4,5
 60 91 60 91 32 190 c 0,6,7
 19 234 19 234 19 280 c 0,8,9
 19 376 19 376 71 452 c 0,10,11
 126 533 126 533 220 560 c 0,12,13
 258 571 258 571 296 571 c 0,14,15
 393 571 393 571 472 506 c 0,16,17
 548 443 548 443 576 346 c 0,18,19
 589 300 589 300 589 253 c 0,20,21
 589 157 589 157 538 83 c 0,22,23
 483 5 483 5 387 -22 c 0,0,1
270 385 m 0,24,25
 211 368 211 368 211 292 c 0,26,27
 211 269 211 269 218 243 c 0,28,29
 230 202 230 202 256.5 175.5 c 128,-1,30
 283 149 283 149 315 149 c 0,31,32
 326 149 326 149 337 153 c 0,33,34
 397 170 397 170 397 245 c 0,35,36
 397 268 397 268 390 293 c 0,37,38
 377 335 377 335 351 361.5 c 128,-1,39
 325 388 325 388 292 388 c 0,40,41
 281 388 281 388 270 385 c 0,24,25
303 584 m 1,42,-1
 293 582 l 1,43,44
 284 579 284 579 252 584 c 2,45,-1
 133 602 l 2,46,47
 100 607 100 607 79 630 c 128,-1,48
 58 653 58 653 58 686 c 0,49,50
 58 714 58 714 73.5 739.5 c 128,-1,51
 89 765 89 765 117 772 c 0,52,53
 135 776 135 776 166 771 c 2,54,-1
 302 748 l 1,55,56
 359 735 359 735 359 672 c 0,57,58
 359 597 359 597 303 584 c 1,42,-1
EndSplineSet
Validated: 33
EndChar

StartChar: oacute
Encoding: 243 243 180
Width: 554
GlyphClass: 2
Flags: W
LayerCount: 2
Fore
SplineSet
265 -37 m 256,0,1
 140 -35 140 -35 61 57 c 0,2,3
 -14 145 -14 145 -12 270 c 0,4,5
 -10 392 -10 392 71.5 481.5 c 128,-1,6
 153 571 153 571 276 569 c 256,7,8
 399 567 399 567 479 472 c 0,9,10
 556 382 556 382 554 260 c 0,11,12
 551 136 551 136 473 50 c 1,13,14
 390 -39 390 -39 265 -37 c 256,0,1
273 387 m 0,15,16
 232 388 232 388 207.5 353 c 128,-1,17
 183 318 183 318 182 267 c 256,18,19
 181 216 181 216 204.5 181 c 128,-1,20
 228 146 228 146 269 145 c 0,21,22
 309 145 309 145 334 179 c 128,-1,23
 359 213 359 213 360 264 c 256,24,25
 361 315 361 315 337.5 351 c 128,-1,26
 314 387 314 387 273 387 c 0,15,16
370 604 m 2,27,-1
 251 594 l 2,28,29
 219 592 219 592 200 598 c 0,30,31
 150 613 150 613 150 681 c 0,32,33
 150 699 150 699 154 714 c 0,34,35
 166 754 166 754 212 762 c 1,36,-1
 222 763 l 1,37,-1
 350 775 l 2,38,39
 381 778 381 778 399 772 c 0,40,41
 452 756 452 756 452 689 c 0,42,43
 452 654 452 654 429 630.5 c 128,-1,44
 406 607 406 607 370 604 c 2,27,-1
EndSplineSet
Validated: 33
EndChar

StartChar: ocircumflex
Encoding: 244 244 181
Width: 545
GlyphClass: 2
Flags: W
LayerCount: 2
Fore
SplineSet
201 -30 m 0,0,1
 93 -11 93 -11 30 72 c 0,2,3
 -31 151 -31 151 -31 258 c 0,4,5
 -31 382 -31 382 50 474 c 1,6,7
 134 571 134 571 258 571 c 0,8,9
 282 571 282 571 306 567 c 0,10,11
 412 549 412 549 476 463 c 0,12,13
 537 381 537 381 537 275 c 0,14,15
 537 152 537 152 458 61 c 0,16,17
 375 -34 375 -34 252 -34 c 0,18,19
 227 -34 227 -34 201 -30 c 0,0,1
260 389 m 0,20,21
 215 389 215 389 187 342 c 0,22,23
 163 301 163 301 163 252 c 0,24,25
 163 210 163 210 183 181 c 0,26,27
 206 148 206 148 246 148 c 0,28,29
 292 148 292 148 320 195 c 0,30,31
 344 235 344 235 344 285 c 0,32,33
 344 328 344 328 324 356 c 0,34,35
 301 389 301 389 260 389 c 0,20,21
438 563 m 0,36,37
 422 563 422 563 347 596 c 1,38,39
 272 563 272 563 256 563 c 0,40,41
 221 563 221 563 195.5 590.5 c 128,-1,42
 170 618 170 618 170 652 c 0,43,44
 170 711 170 711 231 736 c 2,45,-1
 347 783 l 1,46,-1
 462 736 l 2,47,48
 524 711 524 711 524 652 c 0,49,50
 524 618 524 618 498 590.5 c 128,-1,51
 472 563 472 563 438 563 c 0,36,37
EndSplineSet
Validated: 5
EndChar

StartChar: otilde
Encoding: 245 245 182
Width: 557
GlyphClass: 2
Flags: W
LayerCount: 2
Fore
SplineSet
258 -36 m 0,0,1
 133 -32 133 -32 55 61 c 1,2,3
 -19 151 -19 151 -14 275 c 0,4,5
 -10 397 -10 397 71 483 c 0,6,7
 156 574 156 574 279 569 c 0,8,9
 402 565 402 565 480 469 c 0,10,11
 556 377 556 377 551 256 c 1,12,13
 547 131 547 131 467 47 c 0,14,15
 383 -41 383 -41 258 -36 c 0,0,1
273 387 m 0,16,17
 232 389 232 389 206.5 354.5 c 128,-1,18
 181 320 181 320 180 269 c 0,19,20
 178 218 178 218 201 182.5 c 128,-1,21
 224 147 224 147 264 145 c 1,22,23
 305 144 305 144 330.5 178 c 128,-1,24
 356 212 356 212 357 262 c 0,25,26
 359 314 359 314 336.5 350 c 128,-1,27
 314 386 314 386 273 387 c 0,16,17
285 594 m 128,-1,29
 251 618 251 618 240 622 c 0,30,31
 235 624 235 624 220 620 c 0,32,33
 202 615 202 615 190 615 c 0,34,35
 177 615 177 615 164 619 c 0,36,37
 141 627 141 627 127 648.5 c 128,-1,38
 113 670 113 670 113 695 c 0,39,40
 113 706 113 706 116 716 c 0,41,42
 142 793 142 793 223 793 c 0,43,44
 245 793 245 793 266 786 c 128,-1,45
 287 779 287 779 352 735 c 0,46,47
 360 729 360 729 364 728 c 0,48,49
 367 727 367 727 387 730 c 0,50,51
 411 734 411 734 424 734 c 0,52,53
 456 734 456 734 475.5 714 c 128,-1,54
 495 694 495 694 495 661 c 0,55,56
 495 616 495 616 460 587 c 128,-1,57
 425 558 425 558 378 558 c 0,58,59
 357 558 357 558 338 564 c 128,-1,28
 319 570 319 570 285 594 c 128,-1,29
EndSplineSet
Validated: 33
EndChar

StartChar: odieresis
Encoding: 246 246 183
Width: 565
GlyphClass: 2
Flags: W
LayerCount: 2
Fore
SplineSet
294 -37 m 0,0,1
 169 -43 169 -43 84 43 c 0,2,3
 2 126 2 126 -5 250 c 0,4,5
 -11 372 -11 372 63 465 c 0,6,7
 140 562 140 562 262 569 c 1,8,9
 385 575 385 575 471 486 c 1,10,11
 554 402 554 402 561 280 c 1,12,13
 567 155 567 155 495 65 c 0,14,15
 419 -30 419 -30 294 -37 c 0,0,1
272 387 m 256,16,17
 231 385 231 385 208.5 348.5 c 128,-1,18
 186 312 186 312 189 260 c 0,19,20
 192 210 192 210 218 176.5 c 128,-1,21
 244 143 244 143 284 145 c 0,22,23
 325 147 325 147 347.5 183 c 128,-1,24
 370 219 370 219 367 270 c 256,25,26
 364 321 364 321 338.5 355 c 128,-1,27
 313 389 313 389 272 387 c 256,16,17
393 593 m 0,28,29
 352 591 352 591 322.5 617.5 c 128,-1,30
 293 644 293 644 291 684 c 0,31,32
 289 725 289 725 315.5 754.5 c 128,-1,33
 342 784 342 784 383 786 c 0,34,35
 423 788 423 788 452.5 761.5 c 128,-1,36
 482 735 482 735 484 695 c 0,37,38
 487 654 487 654 460 624.5 c 128,-1,39
 433 595 433 595 393 593 c 0,28,29
173 581 m 256,40,41
 133 579 133 579 103 606 c 128,-1,42
 73 633 73 633 71 673 c 256,43,44
 69 713 69 713 96 743 c 128,-1,45
 123 773 123 773 163 775 c 256,46,47
 203 777 203 777 233 750 c 128,-1,48
 263 723 263 723 265 683 c 256,49,50
 267 643 267 643 240 613 c 128,-1,51
 213 583 213 583 173 581 c 256,40,41
EndSplineSet
Validated: 33
EndChar

StartChar: divide
Encoding: 247 247 184
Width: 581
GlyphClass: 2
Flags: W
LayerCount: 2
Fore
SplineSet
253 352 m 0,0,1
 211 352 211 352 180.5 382 c 128,-1,2
 150 412 150 412 150 455 c 0,3,4
 150 497 150 497 180.5 527.5 c 128,-1,5
 211 558 211 558 253 558 c 0,6,7
 296 558 296 558 326 527.5 c 128,-1,8
 356 497 356 497 356 455 c 0,9,10
 356 412 356 412 326 382 c 128,-1,11
 296 352 296 352 253 352 c 0,0,1
519 216 m 2,12,-1
 119 124 l 2,13,14
 108 121 108 121 97 121 c 0,15,16
 33 121 33 121 17 188 c 0,17,18
 15 199 15 199 15 210 c 0,19,20
 15 274 15 274 81 290 c 2,21,-1
 481 382 l 2,22,23
 492 385 492 385 503 385 c 0,24,25
 567 385 567 385 583 318 c 0,26,27
 585 307 585 307 585 296 c 0,28,29
 585 232 585 232 519 216 c 2,12,-1
347 -52 m 0,30,31
 304 -52 304 -52 274 -21.5 c 128,-1,32
 244 9 244 9 244 51 c 0,33,34
 244 94 244 94 274 124 c 128,-1,35
 304 154 304 154 347 154 c 0,36,37
 389 154 389 154 419.5 124 c 128,-1,38
 450 94 450 94 450 51 c 0,39,40
 450 9 450 9 419.5 -21.5 c 128,-1,41
 389 -52 389 -52 347 -52 c 0,30,31
EndSplineSet
Validated: 1
EndChar

StartChar: oslash
Encoding: 248 248 185
Width: 599
GlyphClass: 2
Flags: W
LayerCount: 2
Fore
SplineSet
572 443 m 2,0,-1
 531 405 l 1,1,2
 566 329 566 329 560 245 c 0,3,4
 552 121 552 121 469 40 c 0,5,6
 382 -45 382 -45 257 -36 c 0,7,8
 170 -30 170 -30 106 20 c 1,9,10
 88 4 88 4 70 -13 c 1,11,12
 46 -32 46 -32 25 -30 c 0,13,14
 -3 -28 -3 -28 -20.5 -7 c 128,-1,15
 -38 14 -38 14 -36 40 c 0,16,17
 -35 65 -35 65 -14 87 c 1,18,19
 6 104 6 104 26 122 c 1,20,21
 -10 196 -10 196 -4 285 c 0,22,23
 4 406 4 406 90.5 491.5 c 128,-1,24
 177 577 177 577 299 568 c 0,25,26
 386 562 386 562 452 507 c 1,27,28
 470 523 470 523 487 539 c 1,29,30
 511 557 511 557 531 556 c 0,31,32
 559 554 559 554 576.5 533 c 128,-1,33
 594 512 594 512 592 486 c 0,34,35
 590 459 590 459 572 443 c 2,0,-1
287 387 m 0,36,37
 246 390 246 390 219.5 356 c 128,-1,38
 193 322 193 322 189 271 c 1,39,-1
 312 381 l 1,40,41
 301 386 301 386 287 387 c 0,36,37
367 257 m 1,42,-1
 248 150 l 1,43,44
 258 146 258 146 270 145 c 0,45,46
 310 142 310 142 337 176 c 1,47,48
 363 207 363 207 367 257 c 1,42,-1
EndSplineSet
Validated: 33
EndChar

StartChar: ugrave
Encoding: 249 249 186
Width: 555
GlyphClass: 2
Flags: W
LayerCount: 2
Fore
SplineSet
265 -37 m 256,0,1
 143 -35 143 -35 74 29.5 c 128,-1,2
 5 94 5 94 7 203 c 2,3,-1
 11 463 l 2,4,5
 12 508 12 508 39.5 537.5 c 128,-1,6
 67 567 67 567 110 566 c 256,7,8
 153 565 153 565 179.5 534.5 c 128,-1,9
 206 504 206 504 205 459 c 2,10,-1
 201 202 l 2,11,12
 200 171 200 171 219.5 152.5 c 128,-1,13
 239 134 239 134 268 133 c 0,14,15
 296 133 296 133 316 150.5 c 128,-1,16
 336 168 336 168 337 200 c 2,17,-1
 341 457 l 2,18,19
 342 502 342 502 369.5 531.5 c 128,-1,20
 397 561 397 561 440 560 c 256,21,22
 483 559 483 559 509.5 529 c 128,-1,23
 536 499 536 499 535 453 c 2,24,-1
 531 193 l 2,25,26
 529 85 529 85 458 23 c 128,-1,27
 387 -39 387 -39 265 -37 c 256,0,1
361 567 m 1,28,-1
 352 568 l 2,29,30
 342 569 342 569 313 583 c 2,31,-1
 204 634 l 1,32,33
 149 661 149 661 153 720 c 0,34,35
 155 750 155 750 179 775 c 1,36,37
 204 804 204 804 238 802 c 0,38,39
 257 800 257 800 285 786 c 2,40,-1
 409 725 l 1,41,42
 449 701 449 701 446 660 c 0,43,44
 444 626 444 626 422 598 c 0,45,46
 397 565 397 565 361 567 c 1,28,-1
EndSplineSet
Validated: 33
EndChar

StartChar: uacute
Encoding: 250 250 187
Width: 604
GlyphClass: 2
Flags: W
LayerCount: 2
Fore
SplineSet
425 -8 m 0,0,1
 360 -35 360 -35 301 -35 c 0,2,3
 154 -35 154 -35 94 112 c 2,4,-1
 -3 353 l 2,5,6
 -12 375 -12 375 -12 398 c 0,7,8
 -12 462 -12 462 48 486 c 0,9,10
 66 494 66 494 85 494 c 0,11,12
 149 494 149 494 177 425 c 2,13,-1
 273 187 l 2,14,15
 291 144 291 144 334 144 c 0,16,17
 362 144 362 144 383.5 163 c 128,-1,18
 405 182 405 182 405 210 c 0,19,20
 405 223 405 223 399 238 c 2,21,-1
 303 476 l 2,22,23
 294 499 294 499 294 521 c 0,24,25
 294 586 294 586 354 610 c 0,26,27
 372 617 372 617 391 617 c 0,28,29
 455 617 455 617 483 549 c 2,30,-1
 580 308 l 2,31,32
 600 259 600 259 600 212 c 0,33,34
 600 62 600 62 425 -8 c 0,0,1
272 623 m 2,35,-1
 165 567 l 2,36,37
 144 556 144 556 142 555 c 0,38,39
 134 552 134 552 118 550 c 0,40,41
 82 547 82 547 56 578 c 0,42,43
 33 605 33 605 30 640 c 1,44,45
 25 681 25 681 65 706 c 2,46,-1
 73 711 l 1,47,-1
 186 772 l 2,48,49
 214 787 214 787 232 789 c 0,50,51
 266 792 266 792 293 765 c 0,52,53
 317 740 317 740 320 710 c 0,54,55
 326 651 326 651 272 623 c 2,35,-1
EndSplineSet
Validated: 33
EndChar

